<?xml version="1.0" encoding="UTF-8" standalone="no"?>
<svg
   width="65.387421"
   height="63.030499"
   viewBox="0 0 65.387421 63.030499"
   fill="none"
   version="1.1"
   id="svg2"
   sodipodi:docname="ALA.svg"
   inkscape:version="1.4 (86a8ad7, 2024-10-11)"
   xmlns:inkscape="http://www.inkscape.org/namespaces/inkscape"
   xmlns:sodipodi="http://sodipodi.sourceforge.net/DTD/sodipodi-0.dtd"
   xmlns="http://www.w3.org/2000/svg"
   xmlns:svg="http://www.w3.org/2000/svg">
  <defs
     id="defs2" />
  <sodipodi:namedview
     id="namedview2"
     pagecolor="#ffffff"
     bordercolor="#000000"
     borderopacity="0.25"
     inkscape:showpageshadow="2"
     inkscape:pageopacity="0.0"
     inkscape:pagecheckerboard="0"
     inkscape:deskcolor="#d1d1d1"
     inkscape:zoom="3.671875"
     inkscape:cx="24.238298"
     inkscape:cy="60.323404"
     inkscape:window-width="1644"
     inkscape:window-height="1211"
     inkscape:window-x="52"
     inkscape:window-y="52"
     inkscape:window-maximized="0"
     inkscape:current-layer="svg2" />
  <path
     id="path4"
     style="fill:#ffffff;fill-opacity:1"
     sodipodi:type="inkscape:offset"
     inkscape:radius="3.525569"
     inkscape:original="M 80.435547 20.914062 C 77.607147 23.077675 74.758613 25.27178 72.382812 25.625 C 70.213813 26.14878 56.952666 27.189604 57.884766 21.119141 C 56.403366 21.237327 55.570025 22.980195 55.578125 24.484375 C 56.056225 31.035665 64.571859 29.736333 69.755859 30.376953 C 64.405259 37.07596 59.702425 44.012813 55.453125 51.195312 C 52.086125 51.839912 51.641344 47.664572 52.214844 46.513672 C 52.214844 46.513672 49.995012 47.136712 49.132812 49.570312 C 48.091912 52.127412 49.269731 56.449706 52.894531 56.691406 C 49.307331 63.003606 45.003302 73.344244 36.201172 71.277344 C 33.255922 70.670244 29.816193 65.68415 31.595703 62.71875 C 32.688923 61.19975 31.068951 60.133219 29.212891 62.386719 C 24.645271 67.427119 29.050714 77.493072 38.621094 76.888672 C 48.909994 77.111672 55.852609 64.324063 59.599609 56.726562 L 69.355469 55.193359 L 68.736328 63.152344 C 67.506128 82.949844 81.755859 75.308594 81.755859 75.308594 C 83.736859 74.408794 85.812719 72.242997 85.761719 69.716797 C 85.654219 68.866597 85.183738 69.1958 84.710938 69.4375 L 84.712891 69.439453 C 79.685991 72.035553 75.907359 71.492022 75.505859 68.357422 C 75.051859 64.852122 75.30355 59.919362 75.46875 58.039062 C 75.52915 57.350163 75.737541 55.127878 75.869141 54.455078 C 77.586941 54.096478 79.880859 53.257987 79.880859 56.242188 C 80.748459 55.800387 82.340681 54.495375 82.613281 53.109375 C 84.126881 45.947075 76.623047 47.824219 76.623047 47.824219 C 78.453647 39.363219 80.421681 30.354289 84.613281 22.917969 L 80.435547 20.914062 z M 74.431641 32.867188 C 72.795841 38.080787 71.463306 43.996925 70.191406 49.265625 L 62.808594 50.166016 C 66.488494 44.279516 68.499541 38.836887 74.431641 32.867188 z "
     d="m 57.603516,17.605469 c -2.057974,0.164185 -3.631622,1.525435 -4.433594,2.830078 -0.801972,1.304643 -1.124783,2.65789 -1.117188,4.068359 a 3.5259215,3.5259215 0 0 0 0.0098,0.236328 c 0.175438,2.403979 1.294797,4.634516 2.912109,6.017578 1.617313,1.383063 3.475541,1.990893 5.228516,2.345704 1.004081,0.20323 1.945123,0.231365 2.919922,0.318359 -2.802229,3.793469 -5.443838,7.655357 -7.910156,11.587891 a 3.5259215,3.5259215 0 0 0 -3.951172,-1.890625 c 0,0 -3.946409,1.2195 -5.408203,5.199218 -0.923685,2.328135 -0.821377,4.772543 0.173828,7.078125 0.424551,0.983556 1.152611,1.922577 2.037109,2.734375 -1.35115,2.462374 -2.734421,4.91615 -4.257812,6.72461 -2.18856,2.598099 -3.796066,3.695337 -6.798829,2.990234 a 3.5259215,3.5259215 0 0 0 -0.0957,-0.02148 c 0.130712,0.02694 -1.149517,-0.724655 -1.753906,-1.742188 -0.604388,-1.017533 -0.464508,-1.673066 -0.539062,-1.548828 l -0.16211,0.244141 c 0.628716,-0.873584 1.137167,-1.983111 0.998047,-3.410157 -0.13912,-1.427045 -1.344704,-3.054715 -2.78125,-3.55664 -2.837569,-0.991439 -4.703711,0.577801 -6.119141,2.279297 -6.76344,7.584 0.172756,20.935749 12.132813,20.30664 6.550406,0.08038 11.751871,-3.87542 15.566406,-8.376953 3.364224,-3.970119 5.768158,-8.409166 7.626953,-12.083984 l 3.613282,-0.566406 -0.273438,3.509765 a 3.5259215,3.5259215 0 0 0 -0.0039,0.05469 c -0.332809,5.355861 0.309241,9.259041 1.96289,12.199218 1.65365,2.940178 4.49727,4.58077 7.029297,5 4.94012,0.817941 8.883855,-1.541606 9.080078,-1.660156 3.050681,-1.411577 6.088086,-4.366248 5.998047,-8.826172 a 3.5259215,3.5259215 0 0 0 -0.02734,-0.371093 c -0.07057,-0.558159 -0.172993,-1.284935 -0.867188,-2.169922 -0.694194,-0.884987 -2.206786,-1.491381 -3.134766,-1.460938 -1.855959,0.06089 -2.071558,0.612999 -2.152343,0.654297 a 3.5259215,3.5259215 0 0 0 -0.01172,0.01563 l 0.002,-0.0078 c -1.985778,1.025538 -3.508998,1.248861 -4.109375,1.220703 -0.288322,-2.620472 -0.176987,-6.264169 -0.04687,-8.244141 a 3.5259215,3.5259215 0 0 0 2.541016,0.101563 c 0.907506,-0.462123 1.687793,-1.045035 2.515625,-1.894532 0.824134,-0.845703 1.718275,-1.932755 2.068359,-3.68164 0.486198,-2.325608 0.346874,-4.542474 -0.712891,-6.337891 -1.055277,-1.787815 -2.827842,-2.718942 -4.263671,-3.089844 1.601508,-7.061648 3.406989,-14.075322 6.595703,-19.732422 a 3.5259215,3.5259215 0 0 0 -1.544922,-4.910156 l -4.177735,-2.003906 a 3.5259215,3.5259215 0 0 0 -3.667968,0.378906 c -2.834683,2.16842 -5.747076,3.924195 -6.427735,4.025391 a 3.5259215,3.5259215 0 0 0 -0.310547,0.05859 c -0.0044,0.0011 -1.279839,0.208696 -2.658203,0.277343 -1.378364,0.06865 -3.042112,0.05161 -4.488281,-0.128906 -1.446169,-0.180518 -2.661772,-0.600001 -3.029297,-0.839844 -0.03383,-0.02208 -0.0063,0.02552 -0.0293,0.01758 a 3.5259215,3.5259215 0 0 0 -3.746093,-3.917968 z m -2.222657,30.359375 c 0.02059,0.01718 0.01516,0.0137 0.03125,0.0293 -0.0291,0.07441 0.04135,-0.0735 -0.04102,0.0918 a 3.5259215,3.5259215 0 0 0 0.0098,-0.121093 z"
     transform="translate(-23.901646,-17.387448)" />
  <g
     inkscape:groupmode="layer"
     id="layer1"
     inkscape:label="Layer 1"
     transform="translate(-16.20438,-9.6901827)" />
  <path
     d="m 60.812214,52.052185 c -5.0269,2.5961 -8.8062,2.0521 -9.2077,-1.0825 -0.454,-3.5053 -0.2028,-8.4368 -0.0376,-10.3171 0.0604,-0.6889 0.2699,-2.913 0.4015,-3.5858 1.7178,-0.3586 4.0116,-1.1967 4.0116,1.7875 0.8676,-0.4418 2.4591,-1.7473 2.7317,-3.1333 1.5136,-7.1623 -5.9912,-5.2834 -5.9912,-5.2834 1.8306,-8.461 3.7994,-17.471377 7.991,-24.9076973 l -4.1781,-2.002443 c -2.8284,2.163613 -5.677,4.356763 -8.0528,4.709983 -2.169,0.52378 -15.43,1.56462 -14.4979,-4.505843 -1.4814,0.118186 -2.3141,1.861433 -2.306,3.365613 0.4781,6.5512903 8.9929,5.2525603 14.1769,5.8931803 -5.3506,6.699007 -10.0525,13.635707 -14.3018,20.818207 -3.367,0.6446 -3.8115,-3.5322 -3.238,-4.6831 0,0 -2.2214,0.6231 -3.0836,3.0567 -1.0409,2.5571 0.137,6.8803 3.7618,7.122 -3.5872,6.3122 -7.8903,16.6535 -16.69243,14.5866 -2.9452497,-0.6071 -6.3847297,-5.595 -4.6052197,-8.5604 1.09322,-1.519 -0.52781,-2.5853 -2.38387,-0.3318 -4.56762,5.0404 -0.16116,15.1077 9.4092197,14.5033 10.2889,0.223 17.231,-12.5653 20.978,-20.1628 l 9.7557,-1.5337 -0.6178,7.9601 c -1.2302,19.7975 13.0193,12.1557 13.0193,12.1557 1.981,-0.8998 4.0559,-3.0661 4.0049,-5.5923 -0.1075,-0.8502 -0.5775,-0.5211 -1.0503,-0.2794 z m -14.5221,-20.1735 -7.3839,0.8998 c 3.6799,-5.8865 5.6917,-11.3284 11.6238,-17.2981 -1.6358,5.2136 -2.968,11.1296 -4.2399,16.3983 z"
     fill="white"
     id="path1"
     style="fill:#8f2935;fill-opacity:1" />
</svg>
