<?xml version="1.0" encoding="UTF-8" standalone="no"?>
<svg
   width="143.24579"
   height="128.10547"
   viewBox="0 0 143.24579 128.10547"
   fill="none"
   version="1.1"
   id="svg2"
   sodipodi:docname="DUKE.svg"
   inkscape:version="1.4 (86a8ad7, 2024-10-11)"
   xmlns:inkscape="http://www.inkscape.org/namespaces/inkscape"
   xmlns:sodipodi="http://sodipodi.sourceforge.net/DTD/sodipodi-0.dtd"
   xmlns:xlink="http://www.w3.org/1999/xlink"
   xmlns="http://www.w3.org/2000/svg"
   xmlns:svg="http://www.w3.org/2000/svg">
  <defs
     id="defs2" />
  <sodipodi:namedview
     id="namedview2"
     pagecolor="#ffffff"
     bordercolor="#000000"
     borderopacity="0.25"
     inkscape:showpageshadow="2"
     inkscape:pageopacity="0.0"
     inkscape:pagecheckerboard="0"
     inkscape:deskcolor="#d1d1d1"
     inkscape:zoom="6.9237539"
     inkscape:cx="89.98009"
     inkscape:cy="75.175982"
     inkscape:window-width="3440"
     inkscape:window-height="1377"
     inkscape:window-x="-8"
     inkscape:window-y="-8"
     inkscape:window-maximized="1"
     inkscape:current-layer="svg2" />
  <path
     style="fill:#ffffff"
     sodipodi:type="inkscape:offset"
     inkscape:radius="4.7683883"
     inkscape:original="M 4.7675781 4.7675781 L 20.826172 31.576172 L 20.826172 96.529297 L 4.7675781 123.33789 L 113.30273 123.26172 C 137.86473 123.26172 138.47852 107.04877 138.47852 94.384766 L 138.47852 27.337891 C 138.47852 21.235791 136.81795 4.7675781 109.62695 4.7675781 L 4.7675781 4.7675781 z M 76.691406 6.453125 L 91.753906 31.576172 L 91.753906 96.529297 L 76.691406 121.65234 L 61.626953 96.529297 L 61.626953 31.576172 L 76.691406 6.453125 z "
     xlink:href="#path2"
     id="path3"
     inkscape:href="#path2"
     d="m 0,-4.7675781 a 4.7688651,4.7688651 0 0 0 -4.0898437,7.21875 L 11.292969,28.126953 V 90.443359 L -4.0898437,116.11914 a 4.7688651,4.7688651 0 0 0 4.09374995,7.21875 L 108.53516,123.26172 c 13.33017,0 21.87494,-4.98696 25.9375,-12.08984 4.06256,-7.10289 4.00586,-15.145656 4.00586,-21.554693 V 22.570312 c 0,-3.483591 -0.43132,-10.357027 -5.24024,-16.5097651 -4.80892,-6.15273846 -13.82075,-10.828125 -28.3789,-10.828125 z M 71.923828,10.958984 82.21875,28.128906 v 62.3125 L 71.923828,107.61133 61.626953,90.441406 v -62.3125 z" />
  <path
     d="m 91.754438,96.529278 -15.0638,25.123302 -15.0638,-25.123302 v -64.9532 l 15.0638,-25.1233899 15.0638,25.1233899 z M 109.65224,4.7675781 H 4.7672378 L 20.826838,31.576078 v 64.9532 L 4.7672378,123.33758 113.30324,123.26158 c 24.562,0 25.175,-16.213 25.175,-28.877002 0,-5.2085 0,-65.5659 0,-67.0468 0,-6.1021 -1.66,-22.5701999 -28.851,-22.5701999"
     fill="#0a2f87"
     id="path1" />
  <path
     d="m 91.754438,96.529278 -15.0638,25.123302 -15.0638,-25.123302 v -64.9532 l 15.0638,-25.1233899 15.0638,25.1233899 z M 109.65224,4.7675781 H 4.7672378 L 20.826838,31.576078 v 64.9532 L 4.7672378,123.33758 113.30324,123.26158 c 24.562,0 25.175,-16.213 25.175,-28.877002 0,-5.2085 0,-65.5659 0,-67.0468 0,-6.1021 -1.66,-22.5701999 -28.851,-22.5701999"
     fill="#0A2F87"
     id="path2"
     style="fill:#0a2f87;fill-opacity:1" />
</svg>
