<?xml version="1.0" encoding="UTF-8" standalone="no"?>
<svg
   width="144.05388"
   height="128.91406"
   viewBox="0 0 144.05388 128.91406"
   fill="none"
   version="1.1"
   id="svg2"
   sodipodi:docname="DUKE - Copy.svg"
   inkscape:version="1.4 (86a8ad7, 2024-10-11)"
   xmlns:inkscape="http://www.inkscape.org/namespaces/inkscape"
   xmlns:sodipodi="http://sodipodi.sourceforge.net/DTD/sodipodi-0.dtd"
   xmlns="http://www.w3.org/2000/svg"
   xmlns:svg="http://www.w3.org/2000/svg">
  <path
     id="path2"
     style="fill:#ffffff;fill-opacity:1"
     sodipodi:type="inkscape:offset"
     inkscape:radius="5.1713314"
     inkscape:original="M 0 0 L 16.060547 26.808594 L 16.060547 91.761719 L 0 118.57031 L 108.53516 118.49414 C 133.09716 118.49414 133.71094 102.28119 133.71094 89.617188 L 133.71094 22.570312 C 133.71094 16.468212 132.05038 2.3684758e-15 104.85938 0 L 0 0 z M 71.923828 1.6855469 L 86.986328 26.808594 L 86.986328 91.761719 L 71.923828 116.88477 L 56.859375 91.761719 L 56.859375 26.808594 L 71.923828 1.6855469 z "
     d="M 0,-5.171875 A 5.1718485,5.1718485 0 0 0 -4.4355469,2.6582031 L 10.888672,28.238281 v 62.09375 L -4.4355469,115.91211 a 5.1718485,5.1718485 0 0 0 4.43945315,7.83008 L 108.53516,123.66602 c 13.41883,0 22.15366,-5.06615 26.28711,-12.29297 4.13344,-7.22683 4.06054,-15.340316 4.06054,-21.755863 V 22.570312 c 0,-3.52014 -0.43318,-10.497507 -5.32617,-16.757812 -4.89299,-6.26030513 -14.05776,-10.984375 -28.69726,-10.984375 z m 71.923828,16.914063 9.890625,16.498046 V 90.330078 L 71.923828,106.82813 62.03125,90.330078 V 28.240234 Z"
     transform="translate(5.1709748,5.171875)" />
  <defs
     id="defs2" />
  <sodipodi:namedview
     id="namedview2"
     pagecolor="#ffffff"
     bordercolor="#000000"
     borderopacity="0.25"
     inkscape:showpageshadow="2"
     inkscape:pageopacity="0.0"
     inkscape:pagecheckerboard="0"
     inkscape:deskcolor="#d1d1d1"
     inkscape:zoom="6.9237539"
     inkscape:cx="90.413381"
     inkscape:cy="75.753703"
     inkscape:window-width="3440"
     inkscape:window-height="1377"
     inkscape:window-x="-8"
     inkscape:window-y="-8"
     inkscape:window-maximized="1"
     inkscape:current-layer="svg2" />
  <path
     d="m 92.158175,96.933577 -15.0638,25.123303 -15.0638,-25.123303 V 31.980375 l 15.0638,-25.12339 15.0638,25.12339 z M 110.05598,5.171875 H 5.1709748 l 16.0596002,26.8085 V 96.933577 L 5.1709748,123.74187 113.70698,123.66588 c 24.562,0 25.175,-16.213 25.175,-28.877005 0,-5.2085 0,-65.5659 0,-67.0468 0,-6.1021 -1.66,-22.5702 -28.851,-22.5702"
     fill="#0a2f87"
     id="path1" />
</svg>
