<?xml version="1.0" encoding="UTF-8" standalone="no"?>
<svg
   width="147.42346"
   height="132.30469"
   viewBox="0 0 147.42346 132.30469"
   fill="none"
   version="1.1"
   id="svg2"
   sodipodi:docname="DUKE.svg"
   inkscape:version="1.4 (86a8ad7, 2024-10-11)"
   xmlns:inkscape="http://www.inkscape.org/namespaces/inkscape"
   xmlns:sodipodi="http://sodipodi.sourceforge.net/DTD/sodipodi-0.dtd"
   xmlns:xlink="http://www.w3.org/1999/xlink"
   xmlns="http://www.w3.org/2000/svg"
   xmlns:svg="http://www.w3.org/2000/svg">
  <defs
     id="defs2" />
  <sodipodi:namedview
     id="namedview2"
     pagecolor="#ffffff"
     bordercolor="#000000"
     borderopacity="0.25"
     inkscape:showpageshadow="2"
     inkscape:pageopacity="0.0"
     inkscape:pagecheckerboard="0"
     inkscape:deskcolor="#d1d1d1"
     inkscape:zoom="6.9237539"
     inkscape:cx="92.002115"
     inkscape:cy="77.342437"
     inkscape:window-width="3440"
     inkscape:window-height="1377"
     inkscape:window-x="-8"
     inkscape:window-y="-8"
     inkscape:window-maximized="1"
     inkscape:current-layer="svg2" />
  <path
     style="fill:#ffffff"
     sodipodi:type="inkscape:offset"
     inkscape:radius="2.0998998"
     inkscape:original="M 6.84375 2.0996094 A 4.7688651 4.7688651 0 0 0 2.7539062 9.3183594 L 18.136719 34.994141 L 18.136719 97.310547 L 2.7539062 122.98633 A 4.7688651 4.7688651 0 0 0 6.8476562 130.20508 L 115.38086 130.12891 C 128.71104 130.12891 137.25635 125.14207 141.31836 118.03906 C 145.38037 110.93606 145.32227 102.89317 145.32227 96.484375 L 145.32227 29.4375 C 145.32227 25.954419 144.89241 19.080635 140.08398 12.927734 C 135.27555 6.7748342 126.26324 2.0996094 111.70508 2.0996094 L 6.84375 2.0996094 z M 78.767578 17.826172 L 89.064453 34.996094 L 89.064453 97.308594 L 78.767578 114.47852 L 68.472656 97.308594 L 68.472656 34.996094 L 78.767578 17.826172 z "
     xlink:href="#path3"
     id="path4"
     inkscape:href="#path3"
     d="m 4.7675781,-2.0996094 c -2.4154879,8.244e-4 -4.78391553,1.38079612 -5.9746093,3.4824219 -1.1906939,2.1016258 -1.1569123,4.8416826 0.083984,6.9140625 a 2.1001098,2.1001098 0 0 0 0,0.00195 L 13.958984,33.474609 v 61.15625 L -1.1230469,119.80664 a 2.1001098,2.1001098 0 0 0 0,0.002 c -1.2413785,2.07319 -1.2740483,4.81407 -0.082031,6.91602 1.19201705,2.10195 3.5620899,3.48162 5.9785156,3.48047 l 108.5292925,-0.0762 c 13.85391,0 23.27749,-5.30977 27.75977,-13.14649 4.40593,-7.70322 4.2832,-16.20101 4.2832,-22.597654 V 27.337891 c 0,-3.656921 -0.44686,-11.10014 -5.68554,-17.8027347 C 134.38523,2.7861894 124.6347,-2.0996094 109.62695,-2.0996094 Z M 76.691406,19.810547 84.886719,33.478516 V 94.626953 L 76.691406,108.29492 68.494141,94.626953 V 33.478516 Z" />
  <path
     style="fill:#ffffff"
     sodipodi:type="inkscape:offset"
     inkscape:radius="4.7683883"
     inkscape:original="M 6.84375 6.8671875 L 22.904297 33.675781 L 22.904297 98.628906 L 6.84375 125.4375 L 115.38086 125.36133 C 139.94286 125.36133 140.55469 109.14838 140.55469 96.484375 L 140.55469 29.4375 C 140.55469 23.3354 138.89608 6.8671875 111.70508 6.8671875 L 6.84375 6.8671875 z M 78.767578 8.5527344 L 93.832031 33.675781 L 93.832031 98.628906 L 78.767578 123.75195 L 63.705078 98.628906 L 63.705078 33.675781 L 78.767578 8.5527344 z "
     xlink:href="#path2"
     id="path3"
     inkscape:href="#path2"
     d="M 4.7675781,0 A 4.7688651,4.7688651 0 0 0 0.67773437,7.21875 L 16.058594,32.894531 V 95.210937 L 0.67773437,120.88672 a 4.7688651,4.7688651 0 0 0 4.09375003,7.21875 L 113.30273,128.0293 c 13.33018,0 21.87494,-4.98696 25.9375,-12.08985 4.06257,-7.10289 4.00586,-15.14565 4.00586,-21.554684 V 27.337891 c 0,-3.483592 -0.43131,-10.357027 -5.24023,-16.509766 C 133.19694,4.6753864 124.18511,0 109.62695,0 Z M 76.691406,15.726563 86.986328,32.896484 v 62.3125 L 76.691406,112.37891 66.394531,95.208984 v -62.3125 z" />
  <path
     d="m 93.831858,98.628887 -15.0638,25.123303 -15.0638,-25.123303 v -64.9532 l 15.0638,-25.1233895 15.0638,25.1233895 z M 111.72966,6.8671875 H 6.844658 l 16.0596,26.8084995 v 64.9532 l -16.0596,26.808303 108.536002,-0.076 c 24.562,0 25.175,-16.213 25.175,-28.877003 0,-5.2085 0,-65.5659 0,-67.0468 0,-6.1021 -1.66,-22.5701995 -28.851,-22.5701995"
     fill="#0a2f87"
     id="path1" />
  <path
     d="m 93.831858,98.628887 -15.0638,25.123303 -15.0638,-25.123303 v -64.9532 l 15.0638,-25.1233895 15.0638,25.1233895 z M 111.72966,6.8671875 H 6.844658 l 16.0596,26.8084995 v 64.9532 l -16.0596,26.808303 108.536002,-0.076 c 24.562,0 25.175,-16.213 25.175,-28.877003 0,-5.2085 0,-65.5659 0,-67.0468 0,-6.1021 -1.66,-22.5701995 -28.851,-22.5701995"
     fill="#0A2F87"
     id="path2"
     style="fill:#0a2f87;fill-opacity:1" />
</svg>
