<?xml version="1.0" encoding="UTF-8" standalone="no"?>
<svg
   width="154.00087"
   height="138.85547"
   viewBox="0 0 154.00087 138.85547"
   fill="none"
   version="1.1"
   id="svg2"
   sodipodi:docname="DUKE.svg"
   inkscape:version="1.4 (86a8ad7, 2024-10-11)"
   xmlns:inkscape="http://www.inkscape.org/namespaces/inkscape"
   xmlns:sodipodi="http://sodipodi.sourceforge.net/DTD/sodipodi-0.dtd"
   xmlns:xlink="http://www.w3.org/1999/xlink"
   xmlns="http://www.w3.org/2000/svg"
   xmlns:svg="http://www.w3.org/2000/svg">
  <defs
     id="defs2" />
  <sodipodi:namedview
     id="namedview2"
     pagecolor="#ffffff"
     bordercolor="#000000"
     borderopacity="0.25"
     inkscape:showpageshadow="2"
     inkscape:pageopacity="0.0"
     inkscape:pagecheckerboard="0"
     inkscape:deskcolor="#d1d1d1"
     inkscape:zoom="6.9237539"
     inkscape:cx="95.324012"
     inkscape:cy="80.664334"
     inkscape:window-width="3440"
     inkscape:window-height="1377"
     inkscape:window-x="-8"
     inkscape:window-y="-8"
     inkscape:window-maximized="1"
     inkscape:current-layer="svg2" />
  <path
     style="fill:#ffffff"
     sodipodi:type="inkscape:offset"
     inkscape:radius="3.2755153"
     inkscape:original="M 10.146484 3.2753906 C 7.7309964 3.2762149 5.3625688 4.6561867 4.171875 6.7578125 C 2.9811812 8.8594383 3.0149628 11.599495 4.2558594 13.671875 A 2.1001098 2.1001098 0 0 0 4.2558594 13.673828 L 19.339844 38.849609 L 19.339844 100.00586 L 4.2558594 125.18164 A 2.1001098 2.1001098 0 0 0 4.2558594 125.18359 C 3.0144809 127.25678 2.9818111 129.99766 4.1738281 132.09961 C 5.3658452 134.20156 7.7359181 135.58123 10.152344 135.58008 L 118.68359 135.50391 C 132.53749 135.50391 141.96157 130.19447 146.44336 122.35742 C 150.84877 114.65394 150.72461 106.15587 150.72461 99.759766 L 150.72461 32.712891 C 150.72461 29.057039 150.27929 21.613094 145.04102 14.910156 C 139.76649 8.1608373 130.01555 3.2753906 115.00781 3.2753906 L 10.146484 3.2753906 z M 82.070312 25.185547 L 90.267578 38.853516 L 90.267578 100.00195 L 82.070312 113.66992 L 73.875 100.00195 L 73.875 38.853516 L 82.070312 25.185547 z "
     xlink:href="#path4"
     id="path5"
     inkscape:href="#path4"
     d="m 6.8417969,-3.2753906 c -3.6622949,0.00125 -7.01640248,1.9551521 -8.8222656,5.1425781 -1.8049737,3.185856 -1.7578368,7.0679692 0.1210937,10.2089845 7.609e-4,0.0013 0.00119,0.0026 0.00195,0.0039 a 3.2758429,3.2758429 0 0 0 0,0.002 L 12.761719,36.480469 v 59.34375 L -1.8574219,120.22266 a 3.2758429,3.2758429 0 0 0 -0.00195,0.006 c -1.8797958,3.14247 -1.9258187,7.0251 -0.1191406,10.21093 1.80766488,3.18756 5.1658526,5.14237 8.8300781,5.14063 l 108.5292975,-0.0762 c 14.69078,0 25.45591,-5.79359 30.60351,-14.79493 4.93393,-8.62765 4.7129,-17.87089 4.7129,-24.224605 V 29.4375 c 0,-3.921846 -0.47159,-12.261264 -6.37891,-19.8203125 -6.00835,-7.6883341 -16.8947,-12.8925781 -32.61328,-12.8925781 H 6.84375 a 3.2758429,3.2758429 0 0 0 -0.00195,0 z m 71.9257811,31.5527346 4.921875,8.207031 v 59.335937 l -4.921875,8.207028 -4.919922,-8.207028 V 36.484375 Z" />
  <path
     style="fill:#ffffff"
     sodipodi:type="inkscape:offset"
     inkscape:radius="2.0998998"
     inkscape:original="M 6.84375 2.0996094 A 4.7688651 4.7688651 0 0 0 2.7539062 9.3183594 L 18.136719 34.994141 L 18.136719 97.310547 L 2.7539062 122.98633 A 4.7688651 4.7688651 0 0 0 6.8476562 130.20508 L 115.38086 130.12891 C 128.71104 130.12891 137.25635 125.14207 141.31836 118.03906 C 145.38037 110.93606 145.32227 102.89317 145.32227 96.484375 L 145.32227 29.4375 C 145.32227 25.954419 144.89241 19.080635 140.08398 12.927734 C 135.27555 6.7748342 126.26324 2.0996094 111.70508 2.0996094 L 6.84375 2.0996094 z M 78.767578 17.826172 L 89.064453 34.996094 L 89.064453 97.308594 L 78.767578 114.47852 L 68.472656 97.308594 L 68.472656 34.996094 L 78.767578 17.826172 z "
     xlink:href="#path3"
     id="path4"
     d="M 6.84375,0 C 4.428262,8.2432125e-4 2.0598345,1.3807961 0.86914063,3.4824219 -0.32155322,5.5840477 -0.28777161,8.3241045 0.953125,10.396484 a 2.1001098,2.1001098 0 0 0 0,0.002 l 15.083984,25.175781 v 61.15625 L 0.953125,121.90625 a 2.1001098,2.1001098 0 0 0 0,0.002 c -1.24137852,2.07319 -1.27404831,4.81406 -0.0820313,6.91602 1.19201705,2.10195 3.56208995,3.48162 5.97851565,3.48047 l 108.5312506,-0.0762 c 13.8539,0 23.27798,-5.30944 27.75976,-13.14649 4.40542,-7.70349 4.28125,-16.20155 4.28125,-22.597655 V 29.4375 c 0,-3.655852 -0.44531,-11.099797 -5.68359,-17.802734 C 136.46376,4.8854467 126.71281,0 111.70508,0 Z m 71.923828,21.910156 8.197266,13.667969 V 96.726562 L 78.767578,110.39453 70.572266,96.726562 V 35.578125 Z"
     transform="translate(3.3021061,3.2753908)" />
  <path
     d="m 97.133964,101.90428 -15.0638,25.1233 -15.0638,-25.1233 V 36.951078 l 15.0638,-25.12339 15.0638,25.12339 z M 115.03177,10.142578 H 10.146764 l 16.0596,26.8085 v 64.953202 l -16.0596,26.8083 108.536006,-0.076 c 24.562,0 25.175,-16.213 25.175,-28.877002 0,-5.2085 0,-65.5659 0,-67.0468 0,-6.1021 -1.66,-22.5702 -28.851,-22.5702"
     fill="#0a2f87"
     id="path1" />
  <path
     d="m 97.133964,101.90428 -15.0638,25.1233 -15.0638,-25.1233 V 36.951078 l 15.0638,-25.12339 15.0638,25.12339 z M 115.03177,10.142578 H 10.146764 l 16.0596,26.8085 v 64.953202 l -16.0596,26.8083 108.536006,-0.076 c 24.562,0 25.175,-16.213 25.175,-28.877002 0,-5.2085 0,-65.5659 0,-67.0468 0,-6.1021 -1.66,-22.5702 -28.851,-22.5702"
     fill="#0A2F87"
     id="path2"
     style="fill:#0a2f87;fill-opacity:1" />
</svg>
