<svg width="60" height="72" viewBox="0 0 60 72" fill="none" xmlns="http://www.w3.org/2000/svg"><g clip-path="url(#clip0)"><path d="M35.302 43.726V24.204h3.803l1.458-9.084H18.32l1.458 9.084h3.82v19.522h-3.764l-1.457 9.089H40.52l-1.458-9.09-3.759.001z" fill="#FDC82F"/><path d="M37.925 22.82l1.014-6.316H19.941l1.014 6.317h4.023V45.11h-3.966l-1.014 6.321h18.898l-1.014-6.321H33.92V22.82h4.005z" fill="#A71930"/><path d="M38.94 16.504l-3.274 3.157H29.45v6.813c-.882.001-1.763.018-2.644.052-.859 3.354-1.718 6.725-2.576 10.111-.567.042-1.135.091-1.7.148l.487 3.286a71.174 71.174 0 014.343-.264c.213-.945.425-1.89.639-2.834.483-.01.967-.015 1.451-.016v11.252h-6.155L20 51.43h18.896L37.88 45.11l-2.215 3.099h-4.86l3.115-3.1v-5.2c.674.041 1.348.092 2.022.153.161-1.097.325-2.193.486-3.288a62.895 62.895 0 00-1.065-.096c.127-.928.253-1.856.377-2.784a74.634 74.634 0 00-1.693-.128c-.044-.16-.084-.32-.127-.48v-1.99a72.04 72.04 0 013.427.291c-.026-.453-.049-.907-.072-1.36.285.031.573.065.861.099v6.633c-.305-.036-.613-.072-.918-.106l-.545 3.279c2.261.226 4.51.56 6.748 1.003-.181-1.148-.36-2.293-.538-3.438-.36-.069-.72-.133-1.078-.196v-6.634l.867.156c-.023.447-.049.893-.072 1.34 1.161.216 2.316.46 3.468.733.08-1.541.164-3.084.248-4.626A71.592 71.592 0 0033.92 26.61v-3.79h4.003l1.017-6.317zM23.296 19.66l-2.34 3.16h4.023l3.312-3.16h-4.995zm2.02 6.937a71.547 71.547 0 00-12.72 1.91l.245 4.626a71.69 71.69 0 013.468-.74l-.071-1.341c.285-.053.57-.105.856-.156v6.633c-.358.063-.713.128-1.067.197l-.537 3.439a71.915 71.915 0 016.73-1.017l-.541-3.276c-.307.034-.614.07-.919.108v-6.634c.286-.035.574-.069.86-.101l-.071 1.361a73.556 73.556 0 013.516-.308l.251-4.701zm21.413 1.973c.176 1.154.355 2.31.533 3.466.248.064.496.13.743.196v1.633a74.963 74.963 0 00-1.365-.35c.222 1.165.444 2.331.663 3.498.233.06.47.122.702.184v1.666c-.354-.092-.705-.184-1.06-.272l-.532 3.202A71.382 71.382 0 0156.9 45.216c-.075-1.593-.153-3.187-.23-4.782a72.539 72.539 0 00-3.347-1.275c.017.458.04.916.06 1.375a68.05 68.05 0 00-1.797-.61v-1.667c.749.242 1.498.5 2.24.768.263-1.017.522-2.032.781-3.046a72.747 72.747 0 00-3.02-1.054V33.29a68.42 68.42 0 011.796.61c-.02.443-.043.885-.06 1.33 1.123.396 2.238.822 3.346 1.277.078-1.53.159-3.06.24-4.589a71.406 71.406 0 00-10.181-3.348zm-34.733.091a70.92 70.92 0 00-7.088 2.19c-1.524.557-2.746 2.073-2.746 3.915v2.161c0 1.568 1.221 2.546 2.745 2.024a71.848 71.848 0 013.699-1.156c.058-.016.105.018.105.078v1.562a.15.15 0 01-.103.137c-.967.297-1.929.614-2.885.951l.07-1.377c-1.119.393-2.232.816-3.334 1.268l-.238 4.778a71.306 71.306 0 017.263-2.55c1.55-.455 2.823-1.718 2.823-3.608v-2.43c0-1.567-1.272-2.562-2.82-2.146a70.785 70.785 0 00-3.71 1.107c-.058.02-.106-.015-.106-.074v-1.48c0-.06.046-.124.104-.144.875-.308 1.754-.599 2.637-.872l-.07 1.376c1.129-.35 2.265-.672 3.408-.966l.246-4.744zm17.456 2.673v2.292h-.626c.208-.765.417-1.528.627-2.292z" fill="#822433"/><path d="M34.458 30.637c.731.05 1.46.113 2.19.186-.023-.454-.049-.907-.073-1.362.757.076 1.512.162 2.265.262v8.018a88.6 88.6 0 00-1.023-.128l-.316 1.913c1.707.191 3.409.444 5.103.76l-.315-2.006a67.3 67.3 0 00-1.184-.205v-8.019c.755.124 1.51.26 2.26.408l-.072 1.339c.723.142 1.443.295 2.16.458.06-1.087.117-2.172.176-3.26a71.763 71.763 0 00-11.348-1.677l.177 3.313M53.993 40.091l.063 1.377a70.389 70.389 0 00-3.15-1.07v-3.05c.8.25 1.598.516 2.392.795l.456-1.784a72.03 72.03 0 00-2.849-.96v-3.017c1.057.33 2.108.685 3.151 1.067l-.063 1.33c.7.254 1.394.52 2.087.796.056-1.078.113-2.155.167-3.234a71.538 71.538 0 00-8.708-2.873c.102.677.205 1.353.309 2.03.281.074.564.151.845.229v3.019a67.953 67.953 0 00-1.166-.314c.105.676.207 1.353.311 2.03.286.075.57.153.855.231v3.053a54.278 54.278 0 00-1.16-.312c-.103.623-.205 1.245-.31 1.868a71.651 71.651 0 019.018 2.95c-.054-1.12-.109-2.243-.16-3.364a72.164 72.164 0 00-2.088-.797M34.014 36.404l.629.042.284-1.926a79.773 79.773 0 00-1.422-.093c-.644-2.419-1.29-4.83-1.936-7.231a72.339 72.339 0 00-4.208.004c-.863 3.348-1.727 6.712-2.589 10.091-.476.033-.952.07-1.428.11l.285 1.924a70.64 70.64 0 013.177-.192c.31-1.298.623-2.591.933-3.884l.495 1.027a70.8 70.8 0 013.236.014l.684 2.84c1.06.037 2.117.1 3.175.186l.287-1.924c-.475-.04-.95-.076-1.425-.108l-.177-.88zm-4.761-7.286h.455c.43 1.734.858 3.472 1.287 5.214a69.996 69.996 0 00-3.029.002l1.287-5.216M13.457 32.298c.718-.166 1.437-.321 2.158-.463-.024-.447-.046-.893-.072-1.34a72.2 72.2 0 012.248-.41v8.019c-.391.065-.78.132-1.172.204l-.313 2.007a71.825 71.825 0 015.088-.77l-.317-1.91c-.34.04-.68.082-1.02.129v-8.019c.753-.1 1.507-.19 2.262-.265l-.073 1.36c.73-.075 1.46-.138 2.19-.19l.178-3.313c-3.805.261-7.595.83-11.332 1.701l.175 3.26M9.485 35.151a71.594 71.594 0 00-3.71 1.108c-.431.14-.781-.098-.781-.541v-1.463c0-.441.348-.926.779-1.078a71.8 71.8 0 013.316-1.079l-.07 1.375c.702-.21 1.408-.41 2.116-.599l.173-3.342a71.57 71.57 0 00-6.402 2.012c-1.153.422-2.08 1.765-2.08 2.95v2.368c0 1.184.926 1.792 2.076 1.398a70.888 70.888 0 013.7-1.157c.436-.122.792.142.792.585v1.544c0 .44-.355.903-.79 1.035-1.19.364-2.374.76-3.551 1.19l.092-1.387c-.701.255-1.4.52-2.096.798-.056 1.122-.113 2.243-.167 3.365a71.683 71.683 0 016.6-2.284c1.172-.343 2.134-1.553 2.134-2.74v-2.446c0-1.184-.96-1.927-2.13-1.612" fill="#FADA63"/><path d="M38.84 29.723c.342-.281.684-.558 1.026-.833a71.519 71.519 0 00-4.445-.507l.022.03c-.007-.008-.014-.013-.022-.02.022.398.043.797.066 1.195-.343.347-.685.697-1.028 1.049.731.05 1.46.113 2.19.186-.023-.455-.049-.907-.072-1.362.756.076 1.51.162 2.264.262M44.507 29.734l-.08 1.23c-.378.276-.755.556-1.133.839.723.142 1.443.295 2.16.458l.175-3.26c-.374.241-.748.486-1.122.733" fill="#FDC82F"/><path d="M41.289 39.08a58.68 58.68 0 00-1.07-.17l.886-.835v-8.018c.755.123 1.509.26 2.26.407.376-.25.752-.497 1.127-.742-1.5-.32-3.006-.592-4.518-.816v9.968a69.978 69.978 0 00-1.416-.196c-.352.28-.705.563-1.058.848 1.707.192 3.409.445 5.104.76l-.315-2.005c-.334.263-.666.531-1 .8M17.79 30.084c.342-.38.683-.76 1.024-1.136a71.682 71.682 0 00-4.411.81.31.31 0 00.022.024l-.022-.014.063 1.175c-.336.449-.673.9-1.01 1.355.72-.166 1.438-.321 2.16-.463l-.073-1.339c.748-.15 1.497-.287 2.248-.412M23.475 28.407a354 354 0 00-.082 1.254c-.382.39-.765.783-1.147 1.178a71.56 71.56 0 012.19-.19l.178-3.313c-.38.355-.76.71-1.14 1.07" fill="#FDC82F"/><path d="M20.073 38.736c-.037.005-.423.056-.904.126.295-.368.592-.734.887-1.098v-8.018c.754-.101 1.508-.19 2.263-.266.38-.364.76-.724 1.14-1.08a70.49 70.49 0 00-4.537.533v9.966c-.504.075-1.215.191-1.566.252-.35.385-.7.773-1.05 1.164a71.8 71.8 0 015.089-.769l-.318-1.911c-.335.366-.67.731-1.004 1.101M56.078 40.889c-.33.195-.664.392-.996.593l.08 1.374c-1.338-.584-6.246-2.135-6.903-2.254-.346.23-.692.464-1.038.7 3.05.78 6.064 1.764 9.017 2.95-.053-1.12-.108-2.242-.16-3.363M53.993 34.778c.366-.223.732-.444 1.094-.662.027-.405.052-.812.08-1.216.36-.189.72-.374 1.08-.559-.054 1.079-.11 2.156-.167 3.235a72.282 72.282 0 00-2.087-.798M48.69 31.727l1.002-.688a64.798 64.798 0 00-.862-.246c-.328.232-.657.467-.984.706.28.075.563.15.845.228M48.69 36.694c.335-.232.668-.461 1.002-.688a66.864 66.864 0 00-.862-.247 90.5 90.5 0 00-.995.703c.286.076.57.152.855.232" fill="#FDC82F"/><path d="M54.054 33.448c.37-.188.742-.375 1.11-.558a71.428 71.428 0 00-5.365-1.818l-.001 9.966c.37-.165.738-.326 1.105-.485v-3.205c.802.25 1.6.516 2.394.796l.455-1.786c-.342.201-.685.406-1.028.613a67.49 67.49 0 00-1.82-.598v-3.992c1.057.332 2.107.688 3.15 1.067M34.574 38.286a66.556 66.556 0 00-1.402-.086c-.338.308-.679.617-1.018.93 1.06.037 2.118.1 3.176.186l.285-1.923c-.346.294-.693.592-1.04.893M33.231 38.148c.321-.29.64-.578.96-.864-.058-.292-.116-.586-.176-.88l.627.042c.097-.641.191-1.284.285-1.925-.34.298-.68.6-1.02.903a71.797 71.797 0 00-5.07-.13l-.603.982a71.057 71.057 0 014.546.062l.451 1.81M29.709 29.118c.312-.324.625-.648.938-.969a73.1 73.1 0 00-2.217 0c-.84 3.336-1.683 6.686-2.524 10.05-.413.022-.824.046-1.237.074-.346.349-.694.699-1.04 1.052a70.516 70.516 0 013.177-.191c.816-3.353 1.631-6.691 2.447-10.016h.456" fill="#FDC82F"/><path d="M32.503 35.3c.335-.292.67-.585 1.003-.873-.644-2.419-1.291-4.83-1.937-7.231-.308.316-.614.637-.922.958.619 2.373 1.237 4.757 1.856 7.146M5.146 40.07c-.03.463-.062.924-.093 1.387-.364.46-.727.922-1.09 1.388.024-.482.05-.962.073-1.444.37-.446.74-.89 1.11-1.33" fill="#FDC82F"/><path d="M11.614 39.21v-2.447c0-.639-.278-1.145-.718-1.43-.286.307-.57.618-.854.932.273.228.442.568.442 1.007v1.656c0 1.04-.838 2.001-1.864 2.315a71.969 71.969 0 00-4.657 1.602c-.361.458-.723.92-1.081 1.387a71.683 71.683 0 016.6-2.283c1.172-.344 2.132-1.553 2.132-2.74M5.668 32.234c-1.013.36-1.728 1.376-1.728 2.415v1.44c0 .51.146.842.466 1.042l.786-.952a.578.578 0 01-.199-.46v-1.463c0-.442.35-.927.78-1.079a71.804 71.804 0 013.315-1.079c.369-.435.739-.869 1.109-1.299a71.268 71.268 0 00-4.528 1.436" fill="#FDC82F"/><path d="M8.71 36.209a69.82 69.82 0 00-3.105.949c-.47.156-.898.156-1.222-.003-.283.35-.565.703-.848 1.056.366.197.842.228 1.367.05a70.8 70.8 0 013.7-1.158c.239-.066.451-.014.597.118.282-.32.562-.64.843-.956-.31-.23-.678-.255-1.332-.056M9.018 33.473c.362-.439.725-.874 1.087-1.306.031-.452.06-.903.092-1.354.37-.43.74-.857 1.11-1.281l-.172 3.342c-.708.189-1.414.388-2.117.6" fill="#FDC82F"/></g><defs><clipPath id="clip0"><path fill="white" transform="translate(2.16 15.12)" d="M0 0h54.749v37.696H0z"/></clipPath></defs></svg>