<?xml version="1.0" encoding="UTF-8" standalone="no"?>
<svg
   width="52.265625"
   height="64.6875"
   viewBox="0 0 52.265625 64.6875"
   fill="none"
   version="1.1"
   id="svg1"
   sodipodi:docname="IU.svg"
   inkscape:version="1.4 (86a8ad7, 2024-10-11)"
   xmlns:inkscape="http://www.inkscape.org/namespaces/inkscape"
   xmlns:sodipodi="http://sodipodi.sourceforge.net/DTD/sodipodi-0.dtd"
   xmlns="http://www.w3.org/2000/svg"
   xmlns:svg="http://www.w3.org/2000/svg">
  <defs
     id="defs1" />
  <sodipodi:namedview
     id="namedview1"
     pagecolor="#ffffff"
     bordercolor="#000000"
     borderopacity="0.25"
     inkscape:showpageshadow="2"
     inkscape:pageopacity="0.0"
     inkscape:pagecheckerboard="0"
     inkscape:deskcolor="#d1d1d1"
     inkscape:zoom="13.847508"
     inkscape:cx="27.369546"
     inkscape:cy="33.110651"
     inkscape:window-width="3440"
     inkscape:window-height="1377"
     inkscape:window-x="-8"
     inkscape:window-y="-8"
     inkscape:window-maximized="1"
     inkscape:current-layer="svg1" />
  <path
     id="path2"
     style="fill:#ffffff;fill-opacity:1"
     sodipodi:type="inkscape:offset"
     inkscape:radius="2.4436059"
     inkscape:original="M 16.097656 0 L 16.097656 4.5097656 L 19.601562 4.5097656 L 19.601562 37.542969 L 12.939453 37.542969 L 12.939453 12.457031 L 16.044922 12.457031 L 16.044922 7.9453125 L 0.58789062 7.9453125 L 0.58789062 12.457031 L 4.0742188 12.457031 L 4.0742188 41.498047 L 9.765625 47.292969 L 19.601562 47.292969 L 19.601562 53.988281 L 16.115234 53.988281 L 16.115234 59.800781 L 32.509766 59.800781 L 32.509766 53.988281 L 29.021484 53.988281 L 29.021484 47.292969 L 38.789062 47.292969 L 44.462891 41.498047 L 44.462891 12.457031 L 47.966797 12.457031 L 47.966797 7.9453125 L 32.509766 7.9453125 L 32.509766 12.457031 L 35.615234 12.457031 L 35.615234 37.542969 L 29.021484 37.542969 L 29.021484 4.5097656 L 32.527344 4.5097656 L 32.527344 0 L 16.097656 0 z "
     d="M 16.097656,-2.4433594 A 2.4438503,2.4438503 0 0 0 13.654297,0 v 4.5097656 a 2.4438503,2.4438503 0 0 0 0.992187,0.9921875 H 0.58789062 A 2.4438503,2.4438503 0 0 0 -1.8554687,7.9453125 v 4.5117185 a 2.4438503,2.4438503 0 0 0 2.44335932,2.44336 H 1.6308594 v 26.597656 a 2.4438503,2.4438503 0 0 0 0.6992187,1.71289 l 5.6914063,5.794922 a 2.4438503,2.4438503 0 0 0 1.7441406,0.730469 h 7.392578 v 1.808594 h -1.042969 a 2.4438503,2.4438503 0 0 0 -2.443359,2.443359 v 5.8125 a 2.4438503,2.4438503 0 0 0 2.443359,2.44336 h 16.394532 a 2.4438503,2.4438503 0 0 0 2.443359,-2.44336 v -5.8125 a 2.4438503,2.4438503 0 0 0 -2.443359,-2.443359 h -1.044922 v -1.808594 h 7.324218 a 2.4438503,2.4438503 0 0 0 1.746094,-0.734375 l 5.673828,-5.794922 A 2.4438503,2.4438503 0 0 0 46.90625,41.498047 V 14.900391 h 1.060547 a 2.4438503,2.4438503 0 0 0 2.443359,-2.44336 V 7.9453125 A 2.4438503,2.4438503 0 0 0 47.966797,5.5019531 H 33.978516 A 2.4438503,2.4438503 0 0 0 34.970703,4.5097656 V 0 a 2.4438503,2.4438503 0 0 0 -2.443359,-2.4433594 z m 1.060547,16.2304684 v 21.3125 h -1.77539 V 14.900391 h 0.662109 a 2.4438503,2.4438503 0 0 0 1.113281,-1.113282 z m 14.306641,0.06836 a 2.4438503,2.4438503 0 0 0 1.044922,1.044922 h 0.662109 v 20.199218 h -1.707031 z"
     transform="translate(1.8554687,2.4433594)" />
  <path
     d="m 34.364969,10.389019 v 4.51064 h 3.1054 v 25.0861 h -6.5925 V 6.9539994 h 3.5044 v -4.51064 h -16.4291 v 4.51064 h 3.5044 V 39.985759 h -6.6618 v -25.0861 h 3.1054 v -4.51064 H 2.4435118 v 4.51064 h 3.4870669 v 29.0416 l 5.6903503,5.7944 h 9.83664 v 6.6966 h -3.487 v 5.8118 h 16.3944 v -5.8118 h -3.4871 v -6.6966 h 9.7673 l 5.673,-5.7944 v -29.0416 h 3.5044 v -4.51064 z"
     fill="white"
     id="path1"
     style="fill:#990000;fill-opacity:1" />
</svg>
