<svg width="64" height="62" viewBox="0 0 64 62" fill="none" xmlns="http://www.w3.org/2000/svg">
<path d="M26.72 58.2653V50.703L23.551 56.3297L20.3821 50.703V58.2653H2.1877V45.6255H4.78948V28.7995H2.1877V15.9797H3.54711C3.42107 15.8537 3.30404 15.7276 3.178 15.6016C3.10598 15.5206 3.02495 15.4486 2.94393 15.3675C2.07967 14.5033 1.08938 13.513 0.65725 12.1086C0.180109 10.5871 0.378168 8.89462 1.20641 7.46319C2.14269 5.85171 3.80819 4.67236 5.90581 4.15021C6.62602 3.97015 7.38225 3.88013 8.14747 3.88013C9.2278 3.88013 10.3351 4.05118 11.5325 4.41128C14.1072 5.18551 15.5477 6.4729 15.8087 8.22842C15.9258 8.99365 15.7367 9.71386 15.2686 10.317C14.5394 11.2443 13.6661 11.4424 13.0719 11.4424C12.0186 11.4424 11.0553 10.8752 10.2001 10.3621C9.76796 10.101 9.27281 9.81289 8.99373 9.74987C8.84068 9.71386 8.67863 9.69585 8.51658 9.69585C8.01243 9.69585 7.5623 9.8579 7.29222 10.137C7.2202 10.209 7.20219 10.254 7.20219 10.263C7.20219 10.272 7.2112 10.326 7.26521 10.4071C7.34624 10.5601 7.49028 10.7042 7.67934 10.8572C8.19249 11.2623 8.72365 11.6404 9.28181 12.0365C10.1101 12.6307 10.9743 13.2429 11.7756 13.9541C12.4778 14.5843 13.0629 15.2685 13.5041 15.9797H15.0345L15.4036 16.6279C17.9694 14.4403 20.9043 12.0906 24.1092 10.227C28.2594 7.81429 32.1396 6.64395 35.9837 6.64395C36.821 6.64395 37.6582 6.69796 38.4865 6.815C40.5481 7.09408 42.3036 7.67926 43.8521 8.59753C43.8791 8.60653 43.9241 8.63354 43.9871 8.66955C44.3022 8.8316 44.8334 9.11968 45.2835 9.43478C46.949 9.66885 48.5425 10.254 50.0369 10.8572C50.28 10.9562 50.5141 11.0012 50.7391 11.0012C50.8472 11.0012 50.9642 10.9922 51.0722 10.9652C51.3423 10.9112 51.6574 10.8482 52.0175 10.8482C52.0445 10.8482 52.0715 10.8482 52.1075 10.8482C53.0708 10.8752 53.755 11.4154 53.9981 12.3426C54.1331 12.8378 54.1241 13.3689 53.9801 13.9091C53.9081 14.1972 53.8 14.5033 53.656 14.8544C53.548 15.1155 53.584 15.2595 53.674 15.4306C54.0341 16.0878 54.0791 16.7539 54.0701 17.3121C54.0701 17.7082 54.0521 18.1314 54.0251 18.6535C54.0251 18.6985 54.0251 18.7075 54.0341 18.7255C54.5112 19.4908 54.7093 20.364 54.6373 21.3273C54.6373 21.3723 54.6283 21.4173 54.6193 21.4623C55.4655 22.2006 56.1227 23.1278 56.6269 24.2982C56.897 24.9104 57.149 25.5676 57.4101 26.2878C57.6712 27.008 58.1123 27.5031 58.8055 27.8272L58.9676 27.9083C59.2286 28.0343 59.4717 28.1513 59.7238 28.2594C60.489 28.5925 61.0472 29.0966 61.3893 29.7538C61.3893 29.7538 61.4073 29.7628 61.4163 29.7808C62.2896 30.42 62.7037 31.3203 62.6317 32.3826C62.6317 32.4096 62.6317 32.4726 62.6317 32.5266C62.6317 32.6257 62.6407 32.7427 62.6317 32.8687C62.6317 33.0668 62.6587 33.2558 62.7487 33.4539C63.0098 34.0391 63.0458 34.6693 62.8567 35.2724C62.8027 35.4435 62.7307 35.6145 62.6407 35.7766C62.7217 36.3438 62.6407 36.9019 62.3886 37.4061C62.0465 38.1083 61.4253 38.5674 60.6421 38.7025C60.534 38.7205 60.426 38.7295 60.318 38.7295C60.2099 38.7295 60.1199 38.7295 60.0209 38.7025C59.5707 39.1076 58.9946 39.3327 58.3914 39.3327C58.1753 39.3327 57.9683 39.3056 57.7522 39.2516C56.8249 39.0176 56.0777 38.5404 55.5285 37.8202C55.1414 37.3251 54.9344 36.7759 54.9074 36.1817C54.9074 36.1277 54.9074 36.0737 54.8984 36.0107C54.8984 35.9386 54.8803 35.8576 54.8803 35.7676L54.8353 35.7316C54.5743 35.5335 54.3312 35.3445 54.0791 35.1734C53.2959 34.6333 52.7287 34.0301 52.3326 33.3279C52.3056 33.2919 52.2336 33.2378 52.1345 33.1928L52.0445 33.1568C51.9365 33.1118 51.8194 33.0578 51.7024 32.9948C50.7571 32.5356 50.0279 31.8874 49.5328 31.0682C49.5328 31.0592 49.5238 31.0502 49.5148 31.0322C49.1276 31.1942 48.7675 31.2302 48.5965 31.2483H48.5515C48.0923 31.3023 47.6242 31.3563 47.129 31.3563C46.958 31.3563 46.7869 31.3563 46.6249 31.3383C45.9767 31.2843 45.3555 31.1222 44.7794 30.8611C44.8604 30.9332 44.9414 31.0142 45.0224 31.0952C45.1485 31.2212 45.3195 31.4283 45.4455 31.6984C45.5086 31.8334 45.5536 31.9775 45.5716 32.1215C45.5986 32.1485 45.6256 32.1755 45.6526 32.2115C45.8057 32.3826 46.0577 32.7697 45.9857 33.3549C45.9407 33.742 45.8057 34.0751 45.7066 34.2912C45.8597 34.5882 45.9047 34.9393 45.8417 35.3085C45.7786 35.6866 45.6076 36.0377 45.3195 36.3798C45.2565 36.4608 45.1845 36.5328 45.1215 36.6048C45.1395 36.8569 45.1034 37.163 44.9324 37.5051C44.8064 37.7572 44.6263 37.9913 44.3922 38.1983C44.3022 38.2793 44.2212 38.3514 44.1312 38.4234C43.9781 38.8645 43.699 39.2426 43.2849 39.5757C42.9788 39.8278 42.6457 40.0259 42.2946 40.1609V45.5625H44.8964V58.2023H26.72V58.2653Z" fill="white"/>
<path d="M14.4582 8.43553C14.5843 9.3538 13.8821 9.95698 13.1528 10.038C12.8287 10.074 12.5227 10.002 12.2256 9.88496C11.9195 9.75892 11.6314 9.59687 11.3433 9.41682C11.0372 9.21876 10.7401 9.0117 10.425 8.83165C9.39873 8.26448 8.33641 8.15645 7.23809 8.58857C6.88698 8.72361 6.58089 8.93067 6.31981 9.20076C5.77965 9.75892 5.68963 10.4341 6.08575 11.1093C6.2748 11.4424 6.53588 11.7125 6.84197 11.9466C7.92229 12.8018 9.08363 13.558 10.1099 14.4943C10.6591 14.9895 11.1633 15.5386 11.6044 16.1328C11.8475 16.4659 12.3156 16.9521 12.5407 17.4652H6.6079C6.57189 17.4202 6.53588 17.4562 6.49987 17.3932C6.11275 16.817 5.71664 16.2859 5.2575 15.7637C4.87038 15.3226 4.44726 14.9265 4.03314 14.5123C3.565 14.0532 3.09686 13.5851 2.69174 13.0629C2.2416 12.4777 1.92651 11.8295 1.80948 11.0913C1.66543 10.2001 1.80948 9.3448 2.20559 8.52555C2.77276 7.3462 3.69103 6.50896 4.87939 5.9778C6.17577 5.40163 7.53517 5.14955 8.94859 5.25758C9.42574 5.2936 9.89388 5.38362 10.353 5.51866C11.0642 5.71672 11.7754 5.93278 12.4506 6.24788C13.0268 6.51796 13.54 6.86906 13.9451 7.37321C14.1972 7.6793 14.3952 8.0214 14.4492 8.42652M58.0132 30.9242C57.7251 31.4464 58.5173 32.1846 57.6981 32.5987C57.428 32.7427 57.0949 32.7427 56.8248 32.5807C56.3927 32.3106 56.1946 31.7795 56.1226 31.2753C56.0506 30.7712 56.0776 30.249 55.9335 29.7539C55.7445 29.1327 55.2493 28.7186 54.6372 28.5385C54.169 28.4035 53.2417 28.2774 52.8636 28.6645C52.8276 28.7005 52.7916 28.7456 52.7646 28.7906V28.8176L53.0797 28.9616C53.3138 29.0697 53.5118 29.2047 53.6649 29.3847C53.7549 29.4838 53.8629 29.6098 53.926 29.7449C53.989 29.8709 53.8629 30.0059 53.7369 29.9519C53.2958 29.7809 52.8726 29.7088 52.3595 29.8349C52.1524 29.8889 51.9634 30.0149 51.8463 30.186C51.5132 30.285 51.1891 30.4291 50.865 30.5551C50.829 30.5011 50.793 30.4471 50.757 30.393C50.703 30.303 50.64 30.204 50.586 30.114C50.4869 29.9519 50.3789 29.7899 50.2889 29.6278V29.6098C50.2439 29.5558 50.2168 29.4928 50.1718 29.4298C50.1088 29.3397 50.0098 29.2317 49.8567 29.2317C49.7487 29.2317 49.6497 29.2947 49.5687 29.4208C49.3526 29.7359 49.0555 29.8889 48.5243 29.9429H48.4793C48.0652 29.9969 47.6331 30.0419 47.21 30.0419C47.0749 30.0419 46.9399 30.0419 46.8138 30.0239C46.0126 29.9609 45.3014 29.6908 44.6442 29.1957C44.4281 29.0336 44.2031 28.8086 43.978 28.5655C43.4558 28.0253 42.8707 27.4042 42.0964 27.4042C42.0424 27.4042 41.9884 27.4042 41.9344 27.4042C41.0611 27.4942 40.0348 27.8273 40.0348 28.5655V30.8612C40.0348 31.1313 40.692 31.3113 41.1692 31.3923C41.1962 31.4464 41.2322 31.5004 41.2772 31.5364C41.3852 31.6354 41.5203 31.6984 41.6733 31.6984H41.7993C41.7993 31.6984 41.7903 31.7344 41.7903 31.7525C41.7633 31.9595 41.9344 32.0765 41.9794 32.2476C42.0604 32.5357 42.0424 32.8688 42.0424 33.1659C42.0424 34.0661 41.8894 34.9844 41.6373 35.8487C41.6013 35.9567 41.5743 36.0737 41.5113 36.1818C41.4122 36.3438 41.2502 36.4609 41.1061 36.5959C40.665 37.001 40.3949 37.5682 40.3499 38.1624C40.0708 38.3424 39.8008 38.5315 39.5307 38.7205C39.2426 38.6035 38.9545 38.4594 38.6304 38.2884C38.2703 38.0903 37.8832 37.8563 37.4331 37.5412C36.6768 37.019 35.9296 36.5149 35.2274 35.9657L35.1644 35.9207C34.5252 35.4255 33.859 34.9034 33.2558 34.3542C31.5633 32.8058 29.7358 31.3473 27.9802 29.9339L27.4761 29.5288C27.3231 29.4118 27.206 29.3127 27.08 29.1957C27.017 29.1327 26.9449 29.1057 26.8729 29.1057C26.7919 29.1057 26.7109 29.1417 26.6479 29.2227C26.5128 29.3757 26.4048 29.5378 26.2787 29.7359C25.7206 30.6091 25.2164 31.5184 24.7843 32.3016C24.4782 32.8598 24.1181 33.526 23.803 34.2102C23.749 34.3272 23.695 34.4443 23.641 34.5613C22.7857 33.1389 16.7359 22.7588 14.8904 19.3468C16.1327 17.6993 18.0773 16.3489 19.9499 15.0345C20.535 14.6294 21.0932 14.2423 21.6154 13.8551C23.5599 12.4147 25.2074 11.3524 26.8099 10.5332C28.5654 9.63288 30.2399 9.0117 31.9504 8.64259C32.8237 8.45353 33.733 8.3275 34.6692 8.25547C35.1734 8.21946 35.6775 8.19246 36.1727 8.19246C36.5058 8.19246 36.8389 8.20146 37.172 8.21946C38.7204 8.30049 40.1879 8.59758 41.5563 9.10173C42.3395 9.38981 43.0687 9.81294 43.7079 10.191C44.3741 10.5782 45.0313 10.8032 45.7155 10.8662C46.5438 10.9473 47.417 11.1903 48.4523 11.6315C48.8754 11.8115 49.2536 11.9736 49.6047 12.1086C50.0098 12.2707 50.4149 12.3517 50.811 12.3517C51.0091 12.3517 51.2161 12.3337 51.4142 12.2887C51.6303 12.2437 51.8643 12.1986 52.0894 12.1986C52.1074 12.1986 52.1254 12.1986 52.1434 12.1986C52.5035 12.2076 52.6746 12.3427 52.7646 12.6848C52.8366 12.9549 52.8366 13.243 52.7466 13.5671C52.7466 13.5941 52.7376 13.6121 52.7286 13.6391C52.7646 13.441 52.7736 13.225 52.7556 13.0269C52.7556 12.9909 52.7556 12.9549 52.7376 12.9189C52.6476 12.5317 52.3235 12.1716 51.9364 12.2167C51.7473 12.2347 51.5853 12.3427 51.4052 12.3967C51.2612 12.4417 51.1081 12.4507 50.9551 12.4597C50.631 12.4867 50.3159 12.5047 49.9918 12.5317C50.2619 12.5317 50.901 13.468 51.2612 13.8641C51.6213 14.2603 51.8283 14.7464 51.9544 15.2776C51.2702 14.9805 50.5229 14.9805 49.7847 14.8904C49.3976 14.8454 48.7944 15.1155 49.0555 15.5746C49.0825 15.6197 49.1275 15.6647 49.1815 15.7007C49.3436 15.8177 49.5957 15.9077 49.7217 15.9978C50.1538 16.3129 50.4779 16.61 50.5589 17.1321C50.613 17.5102 50.586 18.0234 50.9821 18.2394C51.3242 18.4285 51.5222 17.9424 51.7203 17.7803C51.9634 17.5732 52.3235 17.5462 52.4855 17.2401C52.6746 16.889 52.5575 16.2318 52.4315 15.8627C52.2605 15.3676 52.1074 14.9084 52.4945 14.2783C52.5125 14.2423 52.5305 14.2062 52.5485 14.1702C52.5305 14.2242 52.5035 14.2873 52.4765 14.3413C52.2244 14.9445 52.2515 15.5296 52.5575 16.0878C52.7646 16.4659 52.7916 16.898 52.7826 17.3032C52.7826 17.5192 52.7736 17.7623 52.7646 18.0144C52.7646 17.9063 52.7466 17.8343 52.7286 17.8253C52.5846 17.7623 52.4405 17.9063 52.3955 18.0594C52.3595 18.2034 52.3685 18.3655 52.3055 18.5095C52.2244 18.6896 52.0264 18.7886 51.8913 18.9326C51.2882 19.5808 52.5395 21.2463 51.3062 21.4444C50.784 21.5344 50.2529 21.2733 49.7397 21.2013C49.2266 21.1293 48.5874 20.8502 48.0742 20.9853C48.0022 21.0033 47.9302 21.0303 47.8581 21.0483C46.9849 21.2553 46.1296 20.3821 45.2744 20.7602C44.4281 21.1383 43.7349 21.5524 42.7716 21.6515C42.2585 21.7055 41.7453 21.6965 41.2322 21.6154C40.8181 21.5524 40.1429 21.4804 39.8368 21.1833C39.3956 20.7602 39.6657 19.8059 39.8998 19.3468C40.1429 18.8966 40.593 18.5365 41.0971 18.4825C41.3852 18.4555 41.6373 18.4465 41.7363 18.1224C41.9884 17.3572 41.6913 17.0331 41.0791 16.637C40.647 16.3579 40.2869 15.9618 40.0888 15.4936C39.8458 14.9175 39.9808 14.3593 39.9448 13.7561C39.8638 12.4507 38.6934 11.3074 37.397 11.2534C35.7406 11.1723 36.3077 13.6301 36.5868 14.5663C36.6588 14.7914 36.7398 15.0165 36.7128 15.2506C36.6498 16.0428 36.0466 16.655 35.6325 17.2852C35.1014 18.0864 34.8583 19.0317 34.7683 19.977C34.7052 20.6341 34.6332 21.3364 34.7683 21.9846C34.9303 22.8038 35.4255 23.551 35.8666 24.2352C36.2627 24.8384 36.8389 25.3696 37.5321 25.5946C37.9552 25.7297 38.4053 25.7387 38.8555 25.7657C40.0978 25.8377 41.4843 26.1078 42.5466 26.819C43.5729 27.5122 44.2571 28.5835 45.2654 29.3037C46.1206 29.9159 47.345 30.096 48.3533 29.7989C49.3076 29.5198 50.0998 28.6825 50.5229 27.8093C50.775 27.2961 51.1711 26.3058 50.766 25.7837C50.73 25.7387 50.2439 26.3959 50.2439 26.5129C50.2619 26.1978 50.0728 26.0448 49.9108 25.7657C49.8207 25.9187 49.7307 26.0808 49.6407 26.2338C49.7037 26.1258 49.3166 25.6937 49.3886 25.4686C49.4426 25.2975 49.5687 25.1625 49.6857 25.0275C49.9198 24.7304 50.0998 24.3973 50.1988 24.0372C50.2619 24.2802 50.3339 24.5233 50.3969 24.7664C50.703 24.6763 50.874 24.3613 51.0091 24.0822C51.0271 24.5233 51.0901 24.9554 51.1891 25.3876C51.5763 24.9914 51.9634 24.5323 52.0264 23.9741C52.0714 23.614 52.0984 23.38 52.1974 23.1279C52.2424 23.0199 52.2965 22.9028 52.3685 22.7588C52.6566 22.2366 53.0167 21.6965 53.1067 21.0843C53.2057 20.3641 52.9267 19.7519 52.7736 19.0587C52.7736 19.0407 52.7736 19.0137 52.7736 18.9777C52.8096 19.1307 52.8726 19.2747 52.9537 19.4098C53.2778 19.9319 53.4128 20.5171 53.3588 21.2013C53.3588 21.2823 53.3318 21.3724 53.2778 21.4894C53.1787 21.7145 53.2237 21.9305 53.4038 22.1106C53.4488 22.1556 53.5028 22.2006 53.5568 22.2456C54.3671 22.8848 54.9973 23.7221 55.4654 24.8114C55.7265 25.3966 55.9696 26.0268 56.2216 26.72C56.5997 27.7733 57.302 28.5475 58.3193 29.0246L58.4723 29.0967C58.7334 29.2227 59.0035 29.3487 59.2735 29.4658C59.7687 29.6908 60.1018 29.9789 60.3088 30.375C60.3989 30.5461 60.5339 30.6991 60.723 30.8342C61.1911 31.1763 61.4072 31.6084 61.3982 32.1576C61.3081 32.0495 61.1731 31.9775 60.9931 31.9775C60.939 31.9775 60.885 31.9775 60.84 31.9955C60.732 31.9145 60.6059 31.8695 60.4619 31.9055C60.1108 31.9955 59.8137 33.2109 59.3906 32.8148C59.2915 32.7247 59.2645 32.5807 59.2825 32.4457C59.3095 32.2206 59.4266 31.9235 59.5256 31.7164C59.7507 31.2843 59.8137 30.7712 59.2555 30.5731C58.9044 30.4471 58.2562 30.4741 58.0582 30.8432M42.2315 16.3219C42.2315 16.4299 42.2675 16.5379 42.3305 16.619C42.4565 16.79 42.6906 16.835 42.9067 16.835C43.4738 16.817 43.6899 16.655 44.149 17.0871C44.3651 17.2852 44.7702 17.5372 44.9863 17.7263C45.2024 17.9243 45.4814 18.0414 45.7605 18.1224C46.0846 18.2124 46.4267 18.1314 46.7328 18.0144C47.1019 17.8703 47.7681 17.6363 47.8311 17.1861C47.9122 16.619 47.0929 16.2228 46.6878 16.0068C46.3907 15.8537 46.0846 15.7187 45.7605 15.6377C45.4364 15.5656 45.0763 15.6287 44.7702 15.5116C44.1761 15.2776 43.96 14.9445 43.2758 15.1425C42.7896 15.2776 42.2765 15.6107 42.2225 16.1508C42.2225 16.2048 42.2225 16.2589 42.2225 16.3219M39.6387 27.9893C39.6117 27.7012 39.3416 27.5662 39.0895 27.7103C38.9455 27.7913 38.8555 27.9263 38.7925 28.0704C38.6034 28.4845 38.6214 28.8986 38.7294 29.3397C38.8375 29.8079 39.0985 30.141 39.5487 30.321C39.5577 30.321 39.5757 30.321 39.6027 30.33C39.6477 30.285 39.6297 30.249 39.6297 30.213C39.6297 29.5018 39.6297 28.7906 39.6387 28.0794C39.6387 28.0524 39.6387 28.0163 39.6387 27.9893Z" fill="#8E908F"/>
<path d="M61.6859 33.967C61.5329 33.6159 61.4609 33.2468 61.4699 32.8597C61.4699 32.6887 61.4519 32.5086 61.4699 32.3376C61.5149 31.6714 61.2718 31.1582 60.7317 30.7711C60.5876 30.6631 60.4526 30.537 60.3716 30.366C60.1285 29.8888 59.7324 29.5917 59.2552 29.3757C58.9401 29.2316 58.625 29.0876 58.3099 28.9345C57.3377 28.4754 56.6625 27.7462 56.3024 26.7289C56.0683 26.0807 55.8162 25.4415 55.5461 24.8113C55.096 23.785 54.4748 22.8757 53.5835 22.1825C53.5385 22.1465 53.4935 22.1015 53.4485 22.0655C53.3225 21.9395 53.2775 21.8044 53.3585 21.6334C53.4125 21.5253 53.4485 21.4083 53.4575 21.2823C53.5115 20.6071 53.3855 19.9679 53.0254 19.3917C52.8813 19.1576 52.8183 18.9056 52.8363 18.6355C52.8543 18.2034 52.8723 17.7712 52.8813 17.3391C52.8813 16.889 52.8543 16.4388 52.6293 16.0337C52.3412 15.5116 52.3322 14.9804 52.5572 14.4402C52.6653 14.1792 52.7643 13.9181 52.8363 13.648C52.9173 13.3239 52.9354 13.0088 52.8543 12.6847C52.7463 12.2616 52.5122 12.0815 52.0711 12.0635C51.81 12.0635 51.5579 12.0995 51.3059 12.1536C50.7117 12.2706 50.1445 12.1986 49.5954 11.9735C48.1009 11.3703 46.4624 10.7671 44.8239 10.5871C44.3288 10.173 43.4105 9.72284 43.2485 9.63281C42.5103 9.19168 41.754 8.85858 40.9528 8.5975C40.1065 8.31842 39.2243 8.12937 38.333 8.00333C29.2763 6.76996 21.498 12.9458 15.0881 18.4824L14.3499 17.1771H12.8104C12.3873 16.2858 11.7121 15.4936 10.9919 14.8454C9.73152 13.711 8.27309 12.8378 6.9497 11.7935C6.6346 11.5414 6.40954 11.2893 6.24749 11.0012C5.90539 10.398 5.96841 9.81287 6.45455 9.31772C7.15676 8.5885 8.29109 8.38144 9.25438 8.5885C10.7578 8.9126 12.9095 11.4243 14.3589 9.5788C14.638 9.21869 14.719 8.80457 14.656 8.39945C14.4129 6.75196 12.6214 5.96872 11.208 5.5366C9.56947 5.04145 7.89498 4.8704 6.21148 5.28452C4.609 5.68064 3.09655 6.58991 2.2503 8.03934C1.61111 9.14667 1.41305 10.5151 1.80017 11.7394C2.18728 12.9818 3.15057 13.8551 4.03283 14.7553C4.591 15.3225 5.13116 15.9167 5.64431 16.5289C5.82436 16.7449 6.01342 16.943 6.19347 17.15H3.36663V27.5931H5.96841V46.7778H3.36663V57.0499H19.1933V46.7778H16.6186V41.6013L23.5506 53.89L30.4827 41.6013V46.7778H27.9079V57.0499H43.7346V46.7778H41.1328V39.2426C41.646 39.2246 42.1231 39.0535 42.5553 38.6934C42.7893 38.5044 42.9784 38.2793 43.0594 37.9822C43.1044 37.8292 43.1945 37.7122 43.3115 37.6131C43.4195 37.5231 43.5186 37.4421 43.6266 37.352C43.7346 37.253 43.8246 37.145 43.8967 37.0189C44.0587 36.6948 43.9507 36.4878 43.5906 36.4518C43.5636 36.4518 43.5636 36.4518 43.5726 36.4158C43.6086 36.3618 43.6806 36.3347 43.7436 36.2897C43.9957 36.1097 44.2388 35.9116 44.4368 35.6685C44.5629 35.5155 44.6709 35.3535 44.7069 35.1464C44.7609 34.8313 44.5989 34.6873 44.2928 34.7683C44.1938 34.7953 44.1037 34.8673 44.0047 34.8223C44.0047 34.7503 44.0677 34.7233 44.1037 34.6873C44.3288 34.4352 44.5088 34.1651 44.6529 33.859C44.7429 33.67 44.8149 33.4719 44.842 33.2558C44.869 33.0398 44.7699 32.9587 44.5629 32.9857C44.3918 33.0128 44.2208 33.0668 44.0587 33.1208C43.8066 33.2018 43.5546 33.2288 43.2935 33.1838C43.1765 33.1658 43.0594 33.1388 42.9604 33.0398C43.1314 32.9677 43.2845 32.9047 43.4285 32.8327C43.6176 32.7337 43.8156 32.6707 44.0317 32.6436C44.0947 32.6436 44.1667 32.6166 44.2298 32.5986C44.4188 32.5266 44.4728 32.4096 44.3918 32.2205C44.3468 32.1125 44.2748 32.0315 44.1938 31.9414C43.6266 31.3473 42.9424 31.1222 42.1321 31.2392C41.808 31.2842 41.3129 31.3833 41.1328 31.0142V28.0433C41.2049 27.7462 41.4029 27.6292 41.9071 27.6021H42.0691C43.1044 27.6562 43.7616 28.7905 44.4908 29.3397C45.166 29.8438 45.9133 30.1319 46.7505 30.2039C47.3357 30.2489 47.9119 30.1859 48.497 30.1229C48.9652 30.0689 49.3793 29.9428 49.6674 29.5287C49.7754 29.3667 49.8744 29.3847 49.9915 29.5467C50.0275 29.6007 50.0635 29.6638 50.0995 29.7178C50.2436 29.9789 50.4146 30.2309 50.5767 30.492C50.9818 31.1582 51.5669 31.6263 52.2602 31.9684C52.3862 32.0315 52.5212 32.0855 52.6563 32.1485C52.9714 32.2835 53.2414 32.4906 53.4035 32.7877C53.7456 33.3909 54.2227 33.85 54.7899 34.2371C55.096 34.4442 55.3931 34.6692 55.6902 34.8943C55.9512 35.0924 56.0863 35.3625 56.1043 35.6956C56.1043 35.8486 56.1313 36.0016 56.1403 36.1457C56.1583 36.5148 56.3024 36.8389 56.5184 37.127C56.9235 37.6491 57.4637 37.9732 58.0939 38.1353C58.6611 38.2793 59.1652 38.0723 59.5073 37.6041C59.5433 37.5501 59.5793 37.4961 59.6243 37.4331C59.6784 37.352 59.7504 37.334 59.8404 37.37C59.8944 37.3971 59.9484 37.4241 60.0025 37.4601C60.1555 37.5591 60.3175 37.5951 60.4976 37.5591C60.9027 37.4961 61.1908 37.28 61.3709 36.9109C61.5419 36.5598 61.5689 36.1997 61.4879 35.8216C61.4429 35.6325 61.4789 35.4795 61.5779 35.3264C61.6589 35.2094 61.722 35.0744 61.767 34.9393C61.875 34.5972 61.839 34.2641 61.704 33.94M9.9836 6.64392C10.0286 6.49088 10.1006 6.34684 10.1817 6.2118C10.2447 6.10376 10.3167 6.04975 10.4067 6.03174C11.0999 6.2298 11.6851 6.40985 12.2523 6.67993C12.4593 6.77896 12.6484 6.87799 12.8194 6.99503C12.8374 7.02204 12.8464 7.05805 12.8555 7.08505C12.9005 7.29212 12.3783 7.71524 12.2793 7.88629C12.0722 8.2464 11.9462 8.66052 11.9552 9.08365C11.9552 9.11066 11.361 8.81357 11.0009 8.61551C10.9109 8.55249 10.8118 8.49847 10.7128 8.44446C10.7128 8.43546 10.6948 8.41745 10.6858 8.40845C10.7578 8.30942 10.8659 8.27341 10.9559 8.21039C11.1539 8.07535 11.343 7.94931 11.505 7.76926C11.7211 7.52619 11.8291 7.25611 11.7211 6.93201C11.6491 6.73395 11.5321 6.68894 11.352 6.80597C11.253 6.86899 11.1629 6.95902 11.0639 7.03104C10.8749 7.17508 10.6678 7.27411 10.4157 7.25611C10.0376 7.2291 9.87557 6.99503 9.9836 6.63492M42.8434 11.2803C44.0857 11.1543 45.3191 11.3883 46.4804 11.8115C46.6245 11.8655 46.7775 11.9285 46.8766 12.0455C46.9756 12.1626 47.0026 12.3606 46.8946 12.4687C46.8045 12.5587 46.6605 12.5587 46.5345 12.5587C45.6702 12.5407 44.7879 12.5857 44.0137 12.9638C43.9237 13.0088 43.6266 13.2069 43.7436 13.3149C43.8066 13.3689 44.0047 13.3419 44.0857 13.3329C44.2568 13.3329 44.4278 13.3149 44.5989 13.2969C44.932 13.2699 45.2651 13.2249 45.5982 13.1979C46.2194 13.1619 46.8856 13.2159 47.3987 13.585C47.4437 13.621 47.4977 13.657 47.5067 13.711C47.5608 13.8731 47.3267 13.9811 47.1466 13.9811C46.1563 14.0261 45.067 13.8551 44.2478 14.4222C44.1848 14.4672 44.1127 14.5393 44.1487 14.6113C44.1758 14.6743 44.2658 14.6833 44.3378 14.6833C45.3461 14.6563 46.3634 14.7193 47.3627 14.8724C47.5247 14.8994 47.7228 14.9894 47.6868 15.1424C47.6418 15.2865 47.4347 15.2775 47.2817 15.2325C47.1376 15.1875 46.9126 15.1875 46.8856 15.3315C46.8766 15.3945 46.9036 15.4575 46.9396 15.5026C47.1466 15.7816 47.5427 15.8357 47.8849 15.8176C48.236 15.7996 48.5961 15.7366 48.9202 15.8537C49.1182 15.9257 49.2893 16.0607 49.4963 16.0787C49.7034 16.0967 49.9465 15.9077 49.8654 15.7186C49.7664 15.4755 49.2983 15.5296 49.2713 15.2775C49.2443 15.0524 49.5774 15.0074 49.7934 15.0434C50.0725 15.0884 50.3516 15.1244 50.6307 15.1515C50.7297 15.1605 50.8467 15.1605 50.9007 15.0884C50.9908 14.9714 50.8737 14.8093 50.7567 14.7283C50.1895 14.3232 49.4243 14.3502 48.7761 14.1071C48.6771 14.0711 48.551 13.9901 48.5781 13.8821C48.5961 13.792 48.7041 13.756 48.7941 13.738C49.3253 13.666 49.8474 13.9001 50.3606 14.0621C50.4056 14.0801 50.4686 14.0891 50.5136 14.0621C50.6307 14.0081 50.5676 13.8371 50.4776 13.738C50.0095 13.2069 49.3613 12.8378 48.6591 12.7207C48.533 12.7027 48.371 12.6577 48.344 12.5317C48.317 12.3966 48.461 12.2886 48.5961 12.2616C49.3163 12.1085 49.9375 12.9368 50.6667 12.8648C50.9548 12.8378 51.2068 12.6667 51.4769 12.5677C51.747 12.4687 52.0891 12.4416 52.2872 12.6577C52.4582 12.8378 52.4492 13.1258 52.4042 13.3689C52.3052 13.8821 52.0981 14.3682 51.891 14.8544C51.702 14.6473 51.783 14.3232 51.891 14.0621C52.0081 13.8101 52.1611 13.54 52.0891 13.2699C52.0621 13.1889 52.0171 13.1078 51.9361 13.0808C51.747 13.0178 51.621 13.2519 51.4769 13.3869C51.3239 13.54 51.0628 13.576 50.8737 13.477C50.9728 14.0981 51.2158 14.6923 51.5669 15.2145C51.846 15.6106 52.1971 15.9977 52.2602 16.4928C52.0171 16.4028 51.747 16.3938 51.5039 16.4568C51.3869 16.4928 51.0898 16.7359 50.9908 16.6999C50.9278 16.6819 50.9007 16.6009 50.9188 16.5379C50.9638 16.3758 51.1438 16.2768 51.2879 16.2048C51.4319 16.1327 51.621 15.9887 51.5129 15.8717C51.4859 15.8447 51.4589 15.8357 51.4229 15.8267C50.9368 15.6646 50.3516 16.0607 50.3336 16.5739C50.2616 16.4838 50.1895 16.3938 50.0815 16.3488C49.9735 16.3038 49.8384 16.3398 49.7934 16.4478C49.7574 16.5379 49.8024 16.6279 49.8474 16.7179C50.1445 17.2761 50.4326 17.8342 50.7297 18.3924C50.8017 18.5275 50.9098 18.6805 51.0538 18.6445C51.1168 18.6265 51.1708 18.5725 51.2158 18.5275C51.3959 18.3384 51.576 18.1403 51.756 17.9513C51.81 17.8973 51.864 17.8342 51.9361 17.8162C52.0981 17.7802 52.2331 17.9423 52.2512 18.1043C52.2692 18.2664 52.2061 18.4194 52.1881 18.5815C52.0891 19.2837 52.7193 19.8598 52.8723 20.5531C53.0704 21.4353 52.4852 22.2816 51.9271 22.9928C51.828 23.1188 51.648 23.2629 51.5219 23.1548C51.4409 23.0828 51.4589 22.9478 51.5039 22.8487C51.621 22.5606 51.855 22.3446 52.0171 22.0835C52.3862 21.4983 52.3502 20.6791 51.9361 20.1299C51.909 20.0939 51.873 20.0579 51.837 20.0309C51.666 19.9499 51.5129 20.211 51.5489 20.4C51.5849 20.5891 51.693 20.7871 51.603 20.9672C51.4859 21.1922 51.1618 21.1652 50.9188 21.1022C50.7387 21.0572 50.5586 21.0122 50.3786 20.9672C50.0995 20.8952 49.8114 20.8321 49.5233 20.8501C49.2353 20.8772 48.9382 21.0032 48.7851 21.2553C48.6321 21.5073 48.6951 21.8764 48.9472 22.0205C49.1992 22.1645 49.5864 21.9485 49.5413 21.6604C49.7754 21.6604 50.0905 21.7414 50.0905 21.9755C50.0905 22.1375 49.9285 22.2726 49.9375 22.4346C49.9465 22.6957 50.3696 22.7947 50.3696 23.0558C50.3696 23.2629 50.1085 23.3439 49.9015 23.3799C48.6681 23.5599 47.4347 23.722 46.2014 23.884C46.0933 23.902 45.9763 23.9111 45.8683 23.875C45.7692 23.83 45.6792 23.713 45.7152 23.614C46.3724 23.65 47.0296 23.578 47.6688 23.4069C47.8398 23.3619 48.0379 23.1728 47.9029 23.0648C47.8488 23.0198 47.7588 23.0288 47.6868 23.0468C46.9396 23.2178 46.1653 23.2449 45.4091 23.1278C45.2741 23.1098 45.121 23.0738 45.031 22.9658C44.941 22.8577 44.968 22.6507 45.112 22.6237C45.175 22.6057 45.2471 22.6417 45.3101 22.6687C46.0753 23.0108 46.9846 23.0198 47.7588 22.7047C47.9119 22.6417 48.0739 22.4706 47.9659 22.3536C47.9029 22.2816 47.7858 22.3086 47.6868 22.3356C46.8495 22.5787 45.8863 22.5787 45.184 22.0655C45.085 21.9935 44.995 21.8945 45.013 21.7774C45.031 21.6694 45.166 21.6064 45.2741 21.6154C45.3821 21.6244 45.4901 21.6874 45.5802 21.7414C46.2194 22.1015 47.0026 22.2005 47.7138 22.0205C47.8398 21.9845 47.9929 21.8855 47.9389 21.7684C47.9029 21.6694 47.7678 21.6694 47.6598 21.6784C46.9756 21.7414 46.2734 21.5614 45.6972 21.1832C45.6612 21.1562 45.6252 21.1292 45.5982 21.0932C45.5352 20.9762 45.6792 20.8321 45.8142 20.8411C45.9493 20.8411 46.0573 20.9402 46.1743 21.0212C46.5975 21.3273 47.1466 21.4443 47.6688 21.3453C47.7678 21.3273 47.9389 21.2463 47.9749 21.1382C48.0649 20.9222 47.7408 20.9942 47.6148 20.9852C47.2187 20.9402 46.8315 20.7331 46.5885 20.418C46.4894 20.292 46.4174 20.1479 46.2824 20.0669C45.9943 19.8779 45.6252 20.0399 45.3191 20.1929C44.5899 20.5531 43.7886 20.8321 42.9694 20.8141C42.1501 20.7961 41.3129 20.418 40.8898 19.7158C40.7457 19.4637 40.6827 19.0856 40.9258 18.9326C41.1869 18.7705 41.502 19.0226 41.736 19.2207C41.9791 19.4187 42.2582 19.5718 42.5553 19.6798C42.7353 19.7428 42.9424 19.7788 43.1224 19.7068C43.3025 19.6348 43.4285 19.4187 43.3475 19.2477C43.3025 19.1576 43.2125 19.1036 43.1314 19.0406C42.9064 18.8876 42.7083 18.7075 42.5373 18.5004C42.4202 18.3564 42.3212 18.1223 42.4742 18.0143C42.6273 17.9063 42.8163 18.0773 42.9334 18.2124C43.2485 18.5725 43.6716 18.8516 44.1307 19.0046C44.2658 19.0496 44.4458 19.0676 44.5359 18.9506C44.6079 18.8515 44.5629 18.6895 44.4728 18.6085C44.3828 18.5185 44.2568 18.4734 44.1397 18.4104C43.9147 18.2844 43.5636 17.6992 44.0407 17.7622C44.4098 17.8162 44.6979 18.2124 45.076 18.3024C45.3191 18.3564 45.6342 18.2664 45.8052 18.5094C45.9133 18.6625 45.7872 18.7435 46.0393 18.6985C46.4174 18.6355 46.7505 18.2034 47.1646 18.4194C47.3357 18.5094 47.5157 18.7255 47.6778 18.6085C47.7588 18.5545 47.7678 18.4464 47.8128 18.3654C47.8939 18.2034 48.0649 18.1043 48.227 18.0323C48.389 17.9603 48.5691 17.8793 48.6771 17.7352C48.7851 17.5912 48.7761 17.3481 48.6141 17.2581C48.488 17.1951 48.317 17.2401 48.218 17.15C48.1369 17.078 48.1369 16.952 48.1189 16.844C48.0559 16.5109 47.7408 16.2948 47.4527 16.1057C46.9306 15.7726 46.3724 15.4215 45.7512 15.4035C45.3731 15.3945 44.977 15.5116 44.5989 15.4305C44.5179 15.4125 44.4728 15.3855 44.4818 15.4936C44.4818 15.5656 44.5359 15.6376 44.5809 15.6826C44.6709 15.7906 44.7969 15.8717 44.932 15.9167C45.166 15.9977 45.4181 15.9977 45.6702 16.0427C46.2644 16.1417 46.8135 16.5199 47.1196 17.042C47.1466 17.078 47.1646 17.132 47.1556 17.1771C47.1376 17.2491 47.0476 17.2671 46.9666 17.2581C46.5795 17.2221 46.2644 16.934 45.9403 16.7179C45.13 16.1778 44.0317 16.0967 43.1494 16.5109C42.9514 16.6009 42.6813 16.7179 42.5283 16.5469C42.4652 16.4748 42.4472 16.3668 42.4382 16.2678C42.4202 15.6106 42.8524 15.0254 43.2935 14.5393C43.3565 14.4672 43.4285 14.3862 43.4105 14.2962C43.3745 14.1251 43.1224 14.1341 42.9604 14.2062C42.3302 14.4763 41.763 14.8994 41.3219 15.4305C41.2229 15.5476 41.0518 15.6916 40.9258 15.5926C40.8538 15.5296 40.8538 15.4125 40.8808 15.3225C40.9978 14.8274 41.3579 14.4312 41.754 14.1161C42.0691 13.8641 42.4022 13.648 42.7083 13.3779C42.7983 13.2969 43.0324 13.1258 42.7893 13.0718C42.6633 13.0448 42.5103 13.0988 42.4022 13.1439C41.79 13.4139 41.2139 13.756 40.6827 14.1522C40.6197 14.1972 40.4937 14.2692 40.4126 14.2422C40.2056 14.1702 40.6917 13.612 40.7727 13.531C41.0698 13.2159 41.4299 12.9818 41.799 12.7657C42.3752 12.4416 42.9694 12.1626 43.5906 11.9375C42.8704 11.6854 42.0781 11.7484 41.3129 11.8115C41.628 11.5144 42.2132 11.3433 42.6453 11.2893C42.6993 11.2893 42.7533 11.2803 42.7983 11.2713M52.0171 17.2401C51.9901 17.3391 51.9541 17.4381 51.891 17.5282C51.855 17.5822 51.81 17.6272 51.765 17.6632C51.756 17.6722 51.63 17.7532 51.63 17.7082C51.63 17.4921 51.63 17.2851 51.5399 17.069C51.4859 16.943 51.3689 16.871 51.5219 16.8169C51.81 16.7089 52.0981 16.871 52.0171 17.2311M51.1168 17.9693C50.9998 17.9693 50.8917 17.9063 50.8107 17.8252C50.7387 17.7442 50.7207 17.6362 50.7207 17.5282C50.7207 17.4561 50.7207 17.3931 50.7297 17.3211C50.7477 17.2401 50.8377 17.15 50.9098 17.2221C50.9548 17.2671 50.9548 17.3391 50.9728 17.3931C50.9908 17.4471 51.0178 17.5011 51.0538 17.5552C51.1078 17.6362 51.1708 17.7082 51.2428 17.7712C51.2609 17.7892 51.2789 17.8072 51.2879 17.8252C51.3329 17.9153 51.1798 17.9693 51.1168 17.9693ZM51.5039 24.7843C51.4409 24.9194 51.2609 25.1714 51.1258 25.2254C51.1258 25.2074 51.1258 25.1984 51.1258 25.1804C51.0538 24.7573 51.0808 24.3162 50.9908 23.893C51.2338 23.9111 51.4769 23.9471 51.711 24.0101C51.846 24.0461 51.648 24.4692 51.5129 24.7753M50.7927 23.839C50.7747 23.9831 50.7387 24.1271 50.6847 24.2712C50.6397 24.3882 50.5316 24.5232 50.4326 24.6133C50.4146 24.6313 50.3786 24.6493 50.3696 24.6313C50.3696 24.6313 50.3606 24.6133 50.3606 24.6043C50.3516 24.5682 50.2255 23.9651 50.2075 23.812C50.4056 23.812 50.6037 23.821 50.8017 23.848M49.8114 25.9727C49.9375 26.1887 50.0185 26.4318 50.0635 26.6749C49.9645 26.6479 49.8564 26.6299 49.7484 26.6209C49.6944 26.6209 49.6314 26.6119 49.5774 26.6029C49.6854 26.4138 49.7214 26.1797 49.8114 25.9727ZM49.5593 24.6763C49.4333 24.4602 49.4243 24.1091 49.4333 23.848C49.4783 23.848 49.5323 23.848 49.5774 23.839C49.7214 23.839 49.8744 23.83 50.0185 23.821C50.0095 23.9291 49.9825 24.0191 49.9465 24.1361C49.9465 24.1631 49.6404 24.8113 49.5593 24.6763ZM46.1113 26.0447C45.9223 25.9186 45.7782 25.7566 45.6162 25.5946C45.4901 25.4775 44.3378 24.3612 45.13 24.3792C45.2111 24.3792 45.2561 24.4062 45.3011 24.4332C45.6432 24.6493 45.9133 24.7213 46.3184 24.6313C46.8315 24.5142 47.6418 24.8203 47.5788 25.4865C47.5788 25.5405 47.5518 25.6126 47.5067 25.6306C47.4167 25.6666 47.3717 25.5405 47.3177 25.3785C46.9396 24.1091 46.2824 26.1437 46.1113 26.0447ZM47.2367 26.6209C47.1376 26.6299 47.0476 26.6479 46.9486 26.6569C46.8766 26.6659 46.4984 26.7109 46.2644 26.7919C46.2644 26.7469 46.2824 26.6929 46.2824 26.6839C46.3454 26.4318 46.4624 26.2067 46.5885 25.9817C46.7055 25.7656 46.8135 25.5405 46.9756 25.3515C47.0296 25.2885 47.1016 25.6396 47.1016 25.6576C47.1376 25.8556 47.1916 26.0627 47.2097 26.2698C47.2097 26.3058 47.2637 26.5668 47.2277 26.6209M47.7318 25.8556C47.8939 26.0627 47.9839 26.3058 47.9839 26.5488C47.7948 26.5578 47.6148 26.5758 47.4257 26.5938C47.5518 26.3598 47.6238 26.0987 47.7318 25.8556ZM47.4257 24.2442C47.4257 24.2442 47.4257 24.1991 47.4167 24.1721C47.4167 24.1721 47.4167 24.1541 47.4167 24.1451C47.7228 24.0821 48.0289 24.0281 48.335 23.9741C48.371 23.9741 48.407 23.9741 48.443 23.9741C48.299 23.9741 48.2089 25.1804 48.1099 25.3155C47.7318 25.1444 47.4797 24.6583 47.4167 24.2442M48.452 25.9006C48.452 25.9006 48.497 25.9637 48.524 26.0267C48.5961 26.1887 48.6861 26.4498 48.7401 26.5398C48.551 26.5398 48.362 26.5398 48.1819 26.5398C48.254 26.4228 48.398 25.9637 48.461 25.9006M48.5961 23.9561C48.5961 23.9561 48.5961 23.9381 48.5961 23.9291C48.8121 23.893 49.0192 23.866 49.2353 23.848C49.2353 24.0641 49.1272 24.3252 49.0372 24.4962C49.0192 24.5412 48.8751 24.8473 48.8121 24.7303C48.8121 24.7213 48.8031 24.7123 48.7941 24.7033C48.6681 24.4602 48.6231 24.2261 48.5961 23.9561ZM49.1002 25.9006C49.1002 25.9006 49.1632 25.9907 49.1902 26.0447C49.2893 26.2067 49.3883 26.4048 49.3883 26.5668C49.2353 26.5578 49.0822 26.5398 48.9292 26.5398C48.9022 26.5398 49.0822 25.9277 49.1002 25.9006ZM45.157 17.7892C44.851 17.6722 44.6169 17.5011 44.4098 17.3031C44.3378 17.2311 44.3468 17.159 44.4188 17.096C44.5899 16.952 44.7879 16.862 45.022 16.844C45.112 16.844 45.157 16.862 45.157 16.961C45.139 17.2311 45.148 17.4921 45.157 17.7802M45.6162 17.9693C45.8322 17.7802 45.9493 17.5192 46.0123 17.2401C46.0123 17.2221 46.0393 17.2131 46.0573 17.2221C46.2284 17.3391 46.3364 17.4831 46.4534 17.6272C46.5254 17.7262 46.4984 17.8162 46.4084 17.8883C46.3094 17.9693 46.1924 18.0143 46.0753 18.0233C45.9403 18.0323 45.7962 18.0323 45.6252 17.9783M39.3233 9.28171C40.2776 9.28171 41.2319 9.5878 41.9161 10.182C41.7 10.2 41.4479 10.254 41.1869 10.308C40.5927 10.434 39.9355 10.5871 39.4674 10.38C38.6031 10.0109 37.8289 9.80386 36.8836 9.71384C36.8476 9.71384 36.8206 9.71384 36.7846 9.71384C37.6218 9.47076 38.423 9.28171 39.3233 9.2727M36.4244 12.3876C36.4335 12.3156 36.4515 12.2436 36.4785 12.1716C36.5775 11.8475 36.7756 11.6314 37.0636 11.5324C37.2707 11.4784 37.5048 11.4784 37.7478 11.5144C37.8019 11.5324 37.8649 11.5594 37.9189 11.5864C38.0989 11.6764 38.252 11.7935 38.396 11.9285C38.6571 12.1806 38.9182 12.4416 39.1703 12.6937C39.3413 12.8648 39.4043 13.0538 39.3413 13.2969C39.2873 13.495 39.1613 13.585 38.9542 13.567C38.7021 13.54 38.4951 13.4229 38.333 13.2339C38.243 13.1258 38.162 13.0088 38.0719 12.8918C37.9639 12.7657 37.8469 12.6487 37.6758 12.6757C37.4778 12.7117 37.3967 12.8648 37.3427 13.0358C37.2977 13.1709 37.2977 13.3149 37.3157 13.4589C37.3697 13.8911 37.5138 14.2962 37.7388 14.6743C37.8379 14.8364 37.9279 14.9984 38.0269 15.1695C38.0629 15.2325 38.117 15.3045 38.0539 15.3765C37.9999 15.4485 37.9189 15.4395 37.8469 15.4305C37.7388 15.4125 37.6308 15.3765 37.5408 15.3315C37.3697 15.2145 37.2077 15.0704 37.0906 14.9714C37.0546 14.9444 37.0276 14.9084 36.9916 14.8814C36.9556 14.8274 36.9106 14.7733 36.8746 14.7193C36.8746 14.7193 36.8746 14.7103 36.8746 14.7013C36.8206 14.6113 36.7756 14.5123 36.7305 14.4132C36.4605 13.765 36.3344 13.0988 36.4425 12.3966M9.88457 15.6106C10.2357 15.7006 10.5688 15.8627 10.8659 16.0967C11.0819 16.2588 11.307 16.4118 11.433 16.6639C11.478 16.7539 11.469 16.8079 11.433 16.8259C11.325 16.889 11.0009 16.7539 10.9109 16.7449C10.5328 16.6999 9.9926 16.6729 9.61449 16.7089C9.01131 16.7809 8.3001 16.97 7.70592 16.7449C7.14776 16.5379 8.21007 15.9707 8.40813 15.8447C8.86727 15.5656 9.35341 15.4575 9.88457 15.5926M7.00371 7.9043C7.06673 7.66123 7.19277 7.44516 7.36382 7.25611C7.56188 7.03104 7.75994 6.81497 7.958 6.59891C8.11104 6.41886 8.22808 6.2208 8.28209 5.98673C8.3001 5.92371 8.32711 5.86069 8.35411 5.79767C8.38112 5.74366 8.40813 5.69864 8.44414 5.67164C8.59719 5.67164 8.75923 5.67164 8.91228 5.68964C8.9933 5.68964 9.07433 5.70765 9.15535 5.71665C9.19136 5.75266 9.20937 5.78867 9.20937 5.83368C9.12834 6.36484 8.95729 6.82398 8.6602 7.2381C8.56118 7.37314 8.45314 7.49918 8.32711 7.61621C8.21907 7.71524 8.10204 7.80527 7.958 7.85028C7.72393 7.88629 7.48085 7.94931 7.24679 8.02133C7.21077 8.03034 7.16576 8.03934 7.12975 8.04834C7.02172 8.07535 6.9677 8.02133 6.99471 7.9133M3.49267 7.44516C3.9248 7.00403 4.44695 6.64392 5.05914 6.37384C5.21218 6.30182 5.37423 6.2388 5.52727 6.18479C5.6083 6.16678 5.68032 6.14878 5.76134 6.13977C5.91439 6.12177 6.05843 6.10376 6.21148 6.13977C6.41854 6.20279 6.50857 6.33783 6.47256 6.54489C6.44555 6.67993 6.39153 6.80597 6.32851 6.92301C6.22948 7.12107 6.12145 7.31012 6.02242 7.50818C5.89638 7.77826 5.81536 8.05734 5.78835 8.37244C5.6083 8.20139 5.45525 8.03934 5.29321 7.8953C4.78005 7.42716 4.19488 7.2471 3.50167 7.45416V7.43616M2.85348 11.6854C2.72744 11.8745 2.63742 11.9375 2.54739 11.8655C2.41235 11.5684 2.32232 11.2713 2.27731 10.9562C2.22329 10.5961 2.21429 10.236 2.2593 9.89389C2.2593 9.86688 2.27731 9.83987 2.29531 9.80386C2.44836 9.43475 2.74545 9.21869 3.12356 9.11966C3.33962 9.06564 3.57369 9.14667 3.55569 9.45276C3.54669 9.5788 3.53768 9.71384 3.53768 9.83987C3.53768 10.0109 3.61871 10.0739 3.78076 10.0379C3.88879 10.0199 3.99682 9.98392 4.10485 9.94791C4.29391 9.88489 4.48296 9.83987 4.67202 9.79486C4.74404 9.77685 4.82507 9.76785 4.89709 9.78586C5.02312 9.81286 5.07714 9.89389 5.05013 10.0199C5.00512 10.245 4.86108 10.398 4.64501 10.4611C4.34792 10.5511 4.05984 10.6681 3.78976 10.8302C3.42065 11.0552 3.09655 11.3163 2.85348 11.6764M4.49197 13.3959C4.20388 13.594 3.84377 13.783 3.66372 13.3509C3.57369 13.1168 3.66372 12.7477 3.78076 12.5407C4.06884 12.0455 4.50097 11.7124 5.04113 11.5144C5.57229 11.3253 6.07644 11.7574 6.13045 12.2166C6.15746 12.4867 6.22948 12.7747 6.18447 12.9818C6.13946 13.1799 5.99541 13.2879 5.6173 13.2249C5.35622 13.1799 5.10415 13.1979 4.85207 13.2429C4.72604 13.2699 4.609 13.3329 4.50097 13.4049M5.89638 15.6196C5.72533 15.4395 5.50927 15.3045 5.36523 15.0884C5.2932 14.9804 5.23019 14.8634 5.23919 14.7283C5.25719 14.4943 5.44625 14.3592 5.68932 14.3862C5.81536 14.4042 5.9414 14.4222 6.06743 14.4492C6.35552 14.4943 6.55358 14.3682 6.6256 14.0891C6.66161 13.9631 6.67962 13.8371 6.67962 13.711C6.67962 13.558 6.70662 13.4049 6.73363 13.2609C6.79665 12.9458 7.03072 12.7928 7.3008 12.8468C7.61589 13.0808 7.93099 13.3059 8.24608 13.522C8.36312 13.603 8.48015 13.693 8.59719 13.774C8.61519 13.8011 8.6332 13.8191 8.6512 13.8461C8.58818 13.9181 8.50716 13.9361 8.42614 13.9631C7.6249 14.2782 6.99471 14.8003 6.54458 15.5386C6.31951 15.9077 6.19347 15.9257 5.88738 15.6106M42.5283 48.0112V55.8795H29.1053V48.0112H31.68V37.154L23.5506 51.5763L15.4212 37.154V48.0112H17.996V55.8795H4.56399V48.0112H7.17476V26.4138H4.57299V18.3744H13.6207L23.5506 35.9746L27.1517 29.5917C27.1517 29.5917 27.1607 29.6187 27.1697 29.6277C27.3498 29.7718 27.5748 29.9698 27.8359 30.1859L23.5506 37.7932L13.0985 19.2657H5.45525V25.5405H8.05703V48.8935H5.45525V54.9883H17.1047V48.8935H14.5299V33.769L23.5506 49.7667L32.4273 34.0211C32.4723 34.0571 32.5263 34.1021 32.5713 34.1381V48.8845H29.9965V54.9793H41.637V48.8845H39.0442V38.8105C39.3323 38.9185 39.6204 39.0085 39.9265 39.0896V48.0022H42.5373L42.5283 48.0112ZM36.5775 35.1464C36.5865 34.9303 36.7485 34.1021 36.9736 34.6602C37.2347 35.3174 37.5138 35.9026 37.8559 36.4878C37.9549 36.6498 38.0449 36.8119 38.153 36.9739C38.216 37.073 38.279 37.199 38.234 37.307C38.0449 37.325 37.8739 37.208 37.7298 37.091C37.3967 36.8299 36.9556 36.5598 36.7305 36.1907C36.5595 35.9026 36.5595 35.4705 36.5685 35.1464M42.1231 38.3693C41.799 38.5224 41.4569 38.6214 41.0968 38.5764C40.8538 38.5494 40.7457 38.4684 40.7367 38.3063C40.7367 38.0993 40.8988 37.9102 41.1058 37.8832C41.2139 37.8742 41.3129 37.8832 41.4209 37.9102C41.736 37.9912 42.0421 38.0903 42.3932 38.1083C42.3122 38.2433 42.2222 38.3153 42.1231 38.3603M41.502 37.5681C41.4479 37.5501 41.3849 37.5231 41.3399 37.4961C41.1328 37.361 41.1058 37.136 41.2859 36.9559C41.4569 36.7849 41.673 36.7039 41.9251 36.7039C42.1411 36.7039 42.3482 36.7579 42.5553 36.8029C42.8344 36.8569 43.1224 36.8929 43.4375 36.9289C42.9604 37.5861 42.2402 37.8202 41.511 37.5771M43.0774 33.5439C43.4555 33.5889 43.8336 33.5889 44.1938 33.4179C44.2568 33.3909 44.3288 33.3459 44.3828 33.3999C44.4458 33.4539 44.4008 33.5259 44.3828 33.5889C44.1667 34.2281 43.4195 34.7863 42.7353 34.8043C42.4832 34.8043 42.3392 34.7143 42.2492 34.4802C42.1501 34.2191 42.1501 33.958 42.2492 33.706C42.3212 33.5079 42.4202 33.4449 42.6363 33.4719C42.7893 33.4899 42.9334 33.5169 43.0864 33.5439M42.1772 31.8784C42.2402 31.8064 42.3212 31.7614 42.4112 31.7524C42.9424 31.7254 43.4285 31.8334 43.8156 32.2295C43.8336 32.2475 43.8517 32.2745 43.8877 32.3376C43.4375 32.4006 43.0594 32.5536 42.6633 32.6797C42.4292 32.7607 42.2582 32.7067 42.1592 32.5536C42.0331 32.3646 42.0421 32.0135 42.1682 31.8694M41.8801 35.7406C42.0061 35.2814 42.2672 35.1104 42.7353 35.1824C43.0594 35.2274 43.3745 35.2904 43.6986 35.2634C43.8517 35.2544 43.9957 35.2274 44.1487 35.1914C44.1938 35.1824 44.2388 35.1554 44.2838 35.1914C44.2838 35.2994 44.2208 35.3895 44.1487 35.4615C43.6266 36.0106 42.9784 36.2807 42.2222 36.2447C41.8981 36.2267 41.79 36.0557 41.8711 35.7406M41.3759 32.4816C41.4299 32.5266 41.4749 32.5896 41.52 32.6436C41.9071 33.2108 41.664 34.0031 41.556 34.6152C41.4029 35.4525 41.1418 36.2897 40.6377 36.9919C40.0345 37.8202 39.2153 37.6041 38.7111 36.8209C37.8919 35.5425 38.4951 34.3361 39.4854 33.3729C38.405 33.0128 37.9009 34.0931 37.4237 33.706C37.1627 33.4989 36.6405 32.7157 36.4515 31.9774C35.4342 32.7157 35.2721 33.958 35.4882 34.1021C34.4979 33.1838 33.9397 31.7614 34.813 30.0419C34.1828 29.8618 32.8414 30.1769 32.8684 31.3383C32.8684 31.6353 32.9584 31.8244 32.9944 32.1035C32.7964 31.8874 30.3026 29.9338 30.3837 29.8708C31.3379 29.0876 32.1392 29.0876 33.0304 29.0336C32.3462 28.6104 31.653 28.1063 31.0679 27.5481C30.1586 26.6749 29.9605 25.0994 31.3109 24.5772C31.1939 24.6223 31.2569 25.5045 31.2839 25.6306C31.383 26.0357 31.653 26.3778 31.9951 26.6119C32.4813 26.945 33.0484 27.062 33.5436 27.3771C34.2278 27.8092 34.795 28.4304 35.1461 29.1596C35.5242 27.2871 33.4086 25.9997 32.4813 24.6763C31.554 23.3529 31.0048 21.5343 31.1579 19.9229C31.1759 19.7338 31.446 18.4104 31.545 18.3924C30.6897 18.5635 30.1586 19.6618 30.0145 20.427C29.9875 20.5531 29.8525 21.3543 29.9425 21.4353C28.8712 20.436 28.241 16.4928 30.7348 12.9818C28.6551 13.675 27.8359 16.1417 27.6739 17.3391C27.2957 16.898 27.2777 16.0517 27.2957 15.5206C25.9003 17.6542 26.3144 21.0662 26.8816 23.4249C27.0167 23.9741 27.1967 24.5592 27.6288 24.9284C27.6468 24.2351 27.9799 23.5509 28.5111 23.1098C28.286 24.6673 28.142 26.6839 29.2493 27.9533C26.3144 26.7919 25.0991 23.4699 24.901 20.1209C24.4059 20.7151 24.1808 22.6507 24.3519 23.893C24.5049 25.0184 24.685 25.7656 25.2971 27.251C24.3069 26.4318 23.5326 25.4685 22.7134 25.0994C22.9565 26.3598 23.2355 27.008 23.4066 28.1243C23.6046 29.4207 23.5506 30.8881 23.1635 32.1575C23.1275 31.4013 22.9114 30.609 22.7134 29.8798C22.3263 28.4484 22.0382 27.107 21.561 25.7026C20.9579 23.9291 20.5077 22.6687 19.8235 21.8764C19.8145 23.0828 19.7155 24.2892 19.6435 25.5045C19.1663 24.2982 18.5451 22.9118 18.3471 22.5336C17.7799 21.4173 17.1317 20.49 15.9794 18.9866C17.2037 19.0046 18.086 19.4097 19.2203 20.5981C19.1753 19.4097 18.8062 18.6445 18.5091 18.2484C20.2286 18.2484 21.561 22.0385 21.9391 23.848C23.2355 21.7954 23.1275 18.0413 22.5423 15.2595C23.7217 15.5926 24.3339 17.105 24.5589 18.2844C24.739 18.1223 24.838 17.8883 24.919 17.6542C25.4772 16.0787 25.6933 14.4943 26.6025 13.0358C27.2867 11.9375 28.322 11.0732 29.4654 10.4971C30.4647 9.99292 31.68 9.51578 33.1385 9.74084C32.7153 9.82187 32.1572 10.101 31.8961 10.254C31.464 10.5061 31.0228 10.8572 30.7708 11.2983C31.0228 11.1363 32.2562 10.9202 32.5623 10.8932C33.4266 10.8302 34.4169 10.7671 35.1731 11.2533C34.2368 11.5414 33.0574 12.5407 32.4183 13.2789C31.581 14.2422 31.1759 15.5386 30.9958 16.7809C31.7791 16.2588 32.5893 15.7456 33.4716 15.4035C34.2728 15.0974 35.1911 14.9084 36.0463 15.0434C35.1461 15.5746 34.3898 16.1958 33.8137 17.069C32.8324 18.6175 32.2562 20.8591 32.9674 22.6327C33.5436 24.0731 34.831 25.1264 35.7402 26.3508C36.1814 26.954 36.5865 27.6202 36.7395 28.3584C36.9466 29.3667 36.7485 30.0869 36.0013 30.7711C36.5415 31.2752 37.7929 30.9872 38.6841 31.0052C38.6031 31.3743 38.414 31.9594 37.6668 32.0855C38.6031 32.8327 39.3593 32.3466 39.9895 32.2205C40.4486 32.1305 41.0068 32.1755 41.3579 32.4996M39.5394 30.438C39.5394 30.438 39.5034 30.438 39.4854 30.429C39.0352 30.2489 38.7832 29.9158 38.6661 29.4477C38.5671 29.0156 38.5491 28.5924 38.7291 28.1873C38.7922 28.0433 38.8822 27.9082 39.0262 27.8272C39.2783 27.6832 39.5484 27.8182 39.5754 28.1063C39.5754 28.1333 39.5754 28.1693 39.5754 28.1963C39.5754 28.9075 39.5754 29.6187 39.5664 30.33C39.5664 30.366 39.5754 30.402 39.5394 30.447M50.2976 27.8722C49.9375 28.1513 49.6764 28.5114 49.3973 28.8535C49.0012 29.3397 48.479 29.5647 47.8668 29.5647C47.2547 29.5647 46.6425 29.5287 46.0393 29.4117C45.4361 29.2946 44.959 28.9976 44.6259 28.4754C44.4998 28.2683 44.3558 28.0703 44.2208 27.8722C43.3565 26.6389 41.4029 26.5938 40.6467 25.3965C40.4216 25.0454 40.1336 24.7393 39.9535 24.3612C39.9355 24.3252 39.9085 24.2982 39.8815 24.2712C39.8275 24.2171 39.7644 24.1991 39.6924 24.2171C39.3413 24.3432 39.8185 25.5495 39.8905 25.7746C39.5934 25.6936 39.2423 25.2524 39.0442 25.0274C38.8012 24.7303 38.5941 24.3972 38.432 24.0551C38.1079 23.3709 37.9279 22.6417 37.8109 21.9035C37.8109 21.8854 37.8109 21.8584 37.8109 21.8404C37.7929 21.7504 37.8109 21.6334 37.6848 21.6244C37.5768 21.6154 37.5408 21.7234 37.5048 21.8044C37.3517 22.1555 37.2617 22.5246 37.2167 22.8937C37.1267 23.632 37.1357 24.3792 37.1987 25.1174C37.1987 25.1444 37.1987 25.1804 37.1987 25.2074C37.1897 25.2074 37.1807 25.2074 37.1717 25.2074C37.1357 25.1894 37.1087 25.1714 37.0726 25.1534C37.0726 25.1534 37.0546 25.1354 37.0456 25.1264C36.1184 24.3162 35.5602 23.2719 35.1641 22.1195C34.921 21.4173 34.948 20.7061 35.002 19.9859C35.02 19.7608 35.047 19.5448 35.0831 19.3197C35.1461 19.0586 35.1911 18.8155 35.2541 18.5995C35.2721 18.5455 35.2901 18.4824 35.3081 18.4284C35.5332 17.7622 35.9203 17.2041 36.3974 16.6909C36.5145 16.5649 36.6405 16.4388 36.7666 16.3218C36.7936 16.2948 36.8206 16.2768 36.8476 16.2588C36.9376 16.2138 37.0006 16.2588 37.0636 16.3758C37.0906 16.4298 37.0997 16.4928 37.1267 16.5469C37.1897 16.7269 37.2617 16.898 37.3607 17.06C37.5498 17.3661 37.8199 17.5102 38.171 17.5011C38.5581 17.4921 38.9182 17.3751 39.2423 17.168C39.4223 17.051 39.4493 16.943 39.3593 16.7449C39.3233 16.6729 39.2873 16.6099 39.2423 16.5469C38.9092 16.1237 38.8462 15.6286 38.8732 15.1064C38.8912 14.8274 39.0082 14.2962 39.2603 14.1071C39.2603 14.1071 39.2783 14.0981 39.2873 14.0891C39.2873 14.3142 39.3053 14.5123 39.3233 14.7013C39.3683 15.1064 39.4584 15.4936 39.6294 15.8627C39.7914 16.2138 40.0255 16.5109 40.3316 16.7449C40.5747 16.934 40.8178 17.132 41.0698 17.3031C41.2859 17.4471 41.4389 17.6362 41.4749 17.9063C41.502 18.0863 41.4479 18.1944 41.2769 18.3204C41.2319 18.2664 41.2409 18.1944 41.2319 18.1313C41.1869 17.8973 41.0248 17.7802 40.7907 17.7982C40.6827 17.8072 40.5837 17.8523 40.4937 17.8973C40.2506 18.0233 40.0435 18.1944 39.8635 18.4104C39.3863 18.9596 39.1433 19.6078 39.0532 20.328C38.9542 21.1472 39.1072 21.9305 39.4223 22.6777C39.4944 22.8397 39.5754 22.9928 39.6834 23.1278C39.7284 23.1818 39.7734 23.2629 39.8635 23.2359C39.9535 23.2088 39.9535 23.1278 39.9625 23.0468C39.9895 22.8487 40.0165 22.6597 40.0435 22.4616C40.0525 22.3806 40.0795 22.3086 40.1155 22.2456C40.1786 22.1465 40.2596 22.1465 40.3316 22.2456C40.3676 22.2906 40.3946 22.3536 40.4036 22.4076C40.4847 22.8307 40.6827 23.2088 40.8988 23.569C40.9888 23.713 41.0698 23.857 41.1599 24.0011C41.1959 24.0551 41.2319 24.1181 41.2769 24.1631C41.4029 24.2982 41.4749 24.2802 41.52 24.1091C41.547 24.0191 41.556 23.9291 41.574 23.839C41.709 23.2178 42.0511 22.7317 42.5553 22.3626C42.8884 22.1195 43.2665 22.0295 43.6716 22.0565C43.9237 22.0745 44.0137 22.2456 43.8787 22.4616C43.7976 22.5877 43.6986 22.6867 43.5996 22.7857C43.3115 23.1008 43.1044 23.4519 43.0414 23.875C42.9874 24.2261 43.0954 24.4962 43.3835 24.7033C43.6176 24.8653 43.8427 25.0544 44.0497 25.2615C44.4188 25.6216 44.6889 26.0447 44.887 26.5218C44.968 26.7289 45.049 26.945 45.166 27.143C45.2651 27.3231 45.3911 27.4851 45.5622 27.6021C45.7782 27.7552 46.0033 27.8002 46.2464 27.7102C46.7145 27.5391 47.2006 27.4671 47.6958 27.4491C48.38 27.4221 49.0552 27.4311 49.7394 27.5211C49.9375 27.5481 50.1265 27.5931 50.3066 27.6832C50.4056 27.7372 50.4146 27.7822 50.3336 27.8542M50.7117 26.8189C50.6937 26.8729 50.6757 26.9269 50.6577 26.972C50.6577 26.972 50.6577 26.99 50.6487 26.99C50.6397 26.99 50.6307 26.99 50.6217 26.99C50.5226 26.8819 50.3876 26.8099 50.2436 26.7649C50.3696 26.6119 50.6127 26.1437 50.6397 26.0897C50.6397 26.0897 50.6397 26.0807 50.6487 26.0807C50.6487 26.0807 50.6577 26.0807 50.6667 26.0807C50.8557 26.2517 50.7657 26.6119 50.7117 26.8189ZM57.1936 36.4968C56.8515 36.4518 56.9776 36.6858 57.0226 37.109C56.3564 36.9559 56.5994 36.0197 56.7345 35.5965C56.9505 34.9483 56.5544 34.5792 56.0413 34.2101C55.6362 33.922 55.096 33.724 54.8979 33.2288C54.6819 32.6977 54.8619 32.1125 55.078 31.6083C54.2407 31.5813 52.8003 31.6534 52.4762 30.591C52.1881 29.6277 53.6916 30.0509 54.1057 30.2489C54.0697 28.9706 52.4942 28.7095 51.5579 28.7815C51.684 28.1603 52.6023 28.0523 53.1154 28.0253C52.5122 27.5031 51.756 27.224 50.9548 27.224C51.0358 26.99 51.3509 25.8916 50.7567 25.6486C50.5316 25.5585 50.3966 26.1077 50.2706 25.6396C50.1805 25.2975 50.7207 25.1084 50.7747 24.8023C50.8287 24.9284 50.8377 25.0994 50.9548 25.4145C50.9998 25.5405 51.1438 25.6036 51.2699 25.5495C51.648 25.3785 51.9811 24.7483 52.1521 24.6133C52.2061 24.5772 52.2692 24.6223 52.2512 24.6853C52.0621 25.2344 51.756 26.3688 52.0891 26.8369C52.3142 25.7116 53.5025 24.4332 54.8799 25.0454C53.9166 25.3875 53.4035 26.0897 53.2054 26.4858C53.3225 26.2517 55.9242 26.4228 54.2587 27.5661C54.7449 27.7102 55.3481 27.9442 55.7802 27.5661C55.8162 27.9713 55.4561 28.3584 55.4201 28.7725C55.3211 29.6908 56.1313 30.528 56.8425 30.9872C56.7435 30.492 56.6895 29.6728 57.2206 29.3937C57.7428 29.1146 58.607 29.4477 58.9581 29.8798C58.643 30.0059 58.391 29.9879 57.9769 30.2849C57.6888 30.492 57.6257 30.8071 57.6798 31.1492C57.7338 31.4913 57.8958 31.7524 57.8328 32.1125C57.7878 32.3916 57.6167 32.6076 57.7338 32.8777C57.8328 33.1118 58.1029 33.0668 57.9408 33.4089C57.7968 33.706 57.4007 33.85 57.2476 34.1831C56.9145 34.9213 57.5177 35.5335 57.7608 36.1817C57.9588 36.7039 57.7698 36.6318 57.3467 36.5328C57.2926 36.5238 57.2386 36.5058 57.2026 36.5058M59.2372 37.4421C59.0842 37.6851 58.8591 37.8202 58.571 37.7932C58.0579 37.7482 57.6528 37.5141 57.4007 37.046C57.3827 37.0099 57.3467 36.9649 57.3737 36.9109C57.4817 36.8839 57.5897 36.9379 57.6978 36.9469C57.9858 36.9469 58.2739 36.9019 58.544 36.8299C58.7421 36.7849 58.9311 36.8029 59.1112 36.9199C59.3183 37.055 59.3633 37.244 59.2282 37.4421M58.2559 32.7337C58.2559 32.7337 58.1659 32.7517 58.1209 32.7607C58.1029 32.7607 58.0759 32.7607 58.0399 32.7517C58.346 32.3376 58.2649 31.8874 58.1929 31.4373C58.1749 31.3473 58.1569 31.2572 58.1479 31.1672C58.1299 30.9781 58.1839 30.8881 58.373 30.8341C58.652 30.7531 58.9221 30.7801 59.1832 30.9331C59.3182 31.0142 59.3903 31.1312 59.3993 31.2842C59.3993 31.3653 59.4083 31.4553 59.3813 31.5273C59.2012 32.1125 58.8501 32.5356 58.2559 32.7337ZM59.4983 32.8327C59.4443 32.8327 59.4173 32.7967 59.3993 32.7517C59.3813 32.7067 59.3723 32.6617 59.3723 32.6346C59.3903 32.4996 59.4083 32.3826 59.4803 32.2835C59.5703 32.1485 59.6513 32.0225 59.7594 31.8964C59.9034 31.7074 60.0295 31.5183 60.1105 31.2932C60.1825 31.0952 60.2725 31.0682 60.4616 31.1582C60.7047 31.2752 60.8667 31.4643 60.9657 31.7164C60.9837 31.7614 60.9927 31.8064 60.9657 31.8424C60.9297 31.8874 60.8847 31.8604 60.8397 31.8514C60.7677 31.8334 60.6957 31.7974 60.6236 31.7794C60.2995 31.6894 60.0565 31.7884 59.9034 32.0855C59.8134 32.2655 59.7324 32.4546 59.6423 32.6436C59.6243 32.6887 59.6063 32.7247 59.5883 32.7697C59.5703 32.8057 59.5433 32.8327 59.5073 32.8327M59.5883 33.5799C59.5613 33.4899 59.6333 33.4449 59.6964 33.3999C59.9484 33.2288 60.0655 32.9947 60.0925 32.6977C60.1015 32.5896 60.1285 32.4726 60.1645 32.3646C60.2455 32.1035 60.4076 32.0315 60.6506 32.1395C60.9117 32.2475 61.0558 32.4546 61.0738 32.7337C61.0918 33.0488 60.9747 33.3098 60.6957 33.4719C60.5696 33.5439 60.4256 33.5709 60.2905 33.6069C60.1375 33.6429 59.9754 33.6609 59.8224 33.6609H59.7954C59.7144 33.6609 59.6153 33.688 59.5883 33.5799ZM60.7947 37.0189C60.5606 37.235 60.2725 37.262 60.0115 37.082C59.8764 36.9919 59.7864 36.8839 59.6784 36.6948C59.7324 36.6768 59.7684 36.6588 59.8044 36.6588C60.1825 36.5778 60.4706 36.3798 60.6777 36.0647C60.7317 35.9746 60.7947 35.8666 60.9207 35.8936C61.0558 35.9206 61.0738 36.0557 61.0918 36.1637C61.1368 36.4968 61.0648 36.7939 60.8127 37.0279M61.2988 34.9663C61.1908 35.3805 60.8847 35.5695 60.4436 35.5245C60.1195 35.4885 59.8584 35.3264 59.6603 35.0654C59.7324 34.9933 59.8044 34.9843 59.8674 34.9663C60.1375 34.8583 60.3716 34.7053 60.5516 34.4622C60.6236 34.3542 60.7137 34.2641 60.8217 34.1921C61.0198 34.0661 61.1638 34.1111 61.2538 34.3271C61.3439 34.5342 61.3619 34.7503 61.3078 34.9663M39.4043 18.0323C38.8192 18.8516 38.234 19.6438 38.144 20.6701C38.144 20.7421 38.135 20.8231 38.108 20.8952C38.0809 20.9672 38.0179 20.9762 37.9639 20.9222C37.7028 20.6701 37.6218 20.1569 37.5858 19.8238C37.3697 19.9679 37.1897 20.274 37.0636 20.499C36.9196 20.7421 36.8206 21.0032 36.7395 21.2643C36.5865 21.7594 36.4515 22.3446 36.4244 22.8577C35.9023 22.2816 35.8123 21.1022 35.8033 20.346C35.8033 19.4637 35.9563 18.5635 36.3344 17.7622C36.3794 17.6542 36.4335 17.5552 36.5145 17.4741C36.6585 17.3121 36.7575 17.3301 36.8566 17.5282C37.0816 17.9693 37.1357 18.4104 37.7478 18.3834C38.153 18.3654 38.5491 18.1493 38.8822 17.9333C38.9812 17.8703 39.0712 17.8072 39.1703 17.7622C39.2603 17.7172 39.3593 17.6902 39.4403 17.7802C39.5214 17.8703 39.4674 17.9693 39.4043 18.0503M48.6231 20.283C48.6861 20.427 48.6231 20.5441 48.47 20.5801C48.317 20.6161 48.1639 20.6071 48.0199 20.5711C47.5788 20.463 47.2097 20.247 46.9846 19.8328C46.9666 19.8058 46.9576 19.7788 46.9666 19.7428C47.0926 19.7428 47.1646 19.8418 47.2457 19.9139C47.3537 19.9949 47.4617 20.0849 47.5878 20.1209C47.7318 20.1659 47.8849 20.1839 48.0379 20.1389C48.1549 20.1029 48.272 20.0939 48.398 20.1209C48.506 20.1389 48.5781 20.2019 48.6141 20.301" fill="#003087"/>
<path d="M46.3457 54.2322C46.3457 53.2779 47.1199 52.5127 48.0652 52.5127C49.0105 52.5127 49.7847 53.2779 49.7847 54.2322C49.7847 55.1865 49.0195 55.9517 48.0652 55.9517C47.1109 55.9517 46.3457 55.1775 46.3457 54.2322ZM46.5798 54.2322C46.5798 55.0424 47.246 55.7176 48.0652 55.7176C48.8845 55.7176 49.5507 55.0424 49.5507 54.2322C49.5507 53.422 48.8845 52.7468 48.0652 52.7468C47.246 52.7468 46.5798 53.404 46.5798 54.2322ZM48.5334 55.2225L48.0202 54.4393H47.6601V55.2225H47.399V53.2509H48.2003C48.5334 53.2509 48.8214 53.485 48.8214 53.8541C48.8214 54.2952 48.4343 54.4393 48.3173 54.4393L48.8484 55.2315H48.5244L48.5334 55.2225ZM47.6691 53.485V54.1962H48.2093C48.3803 54.1962 48.5694 54.0522 48.5694 53.8451C48.5694 53.629 48.3803 53.476 48.2093 53.476H47.6691V53.485Z" fill="white"/>
</svg>
