<svg width="100" height="64" viewBox="0 0 100 64" fill="none" xmlns="http://www.w3.org/2000/svg">
<path d="M87.9072 17.5852V1.47119H63.1457C63.1457 1.47119 47.0455 23.7738 44.9458 26.6816C42.8461 23.7738 26.7459 1.47119 26.7459 1.47119H1.97754V17.5852H8.64967V46.408H1.97754V62.5219H33.4457V46.408H26.3246V25.6318C30.3376 31.1504 44.9389 51.229 44.9389 51.229C44.9389 51.229 59.5471 31.1504 63.5532 25.6318V46.408H56.4321V62.5219H87.9003V46.408H81.2212V17.5852H87.9003H87.9072Z" fill="#FFCF01"/>
<path d="M87.9077 1.47118V17.5851H81.2355V46.4079H87.9077V62.5219H56.4395V46.4079H63.5606V25.6318C59.5476 31.1504 44.9463 51.229 44.9463 51.229C44.9463 51.229 30.345 31.1504 26.332 25.6318V46.4079H33.4531V62.5219H1.97802V46.4079H8.65016V17.5921H1.97802V1.47118H26.7395C26.7395 1.47118 42.8397 23.7738 44.9394 26.6816C47.0391 23.7738 63.1393 1.47118 63.1393 1.47118H87.9007H87.9077ZM44.9463 24.1606C41.2925 19.1047 27.4924 0 27.4924 0H0.506836V19.0632H7.17897V44.9368H0.506836V64H34.9174V44.9368H27.7963V30.1697C33.5498 38.085 44.9394 53.7362 44.9394 53.7362C44.9394 53.7362 56.329 38.085 62.0825 30.1697V44.9368H54.9614V64H89.3788V44.9368H82.7067V19.0632H89.3788V0H62.3933C62.3933 0 48.6001 19.1047 44.9463 24.1675" fill="#0D2345"/>
<path d="M95.498 57.9011C96.0298 57.9011 96.4995 57.9426 96.4995 58.502C96.4995 59.1029 95.6776 58.9993 95.0767 58.9993H94.3929V57.8942H95.498V57.9011ZM95.9607 59.6417C96.5478 59.6209 97.1418 59.3032 97.1418 58.426C97.1418 57.4936 96.4235 57.2519 95.6223 57.2519H93.7574V61.6792H94.3998V59.6348H95.2217L96.3544 61.6792H97.0866L95.9677 59.6348L95.9607 59.6417ZM95.277 63.3783C97.4803 63.3783 99.2277 61.6378 99.2277 59.4414C99.2277 57.2449 97.4803 55.5044 95.277 55.5044C93.0736 55.5044 91.3262 57.2449 91.3262 59.4414C91.3262 61.6378 93.0736 63.3783 95.277 63.3783ZM95.277 56.1398C97.0797 56.1398 98.5854 57.5765 98.5854 59.4414C98.5854 61.3062 97.0797 62.736 95.277 62.736C93.4742 62.736 91.9685 61.2924 91.9685 59.4414C91.9685 57.5903 93.4742 56.1398 95.277 56.1398Z" fill="#002E5E"/>
</svg>
