<svg xmlns="http://www.w3.org/2000/svg" width="158" height="89" viewBox="0 0 158 89">
  <path fill="#2a2623" d="M78.6 0C35.2 0 0 19.93 0 44.5 0 69.08 35.2 89 78.6 89c8.62 0 16.93-.79 24.7-2.24l-.11.31a19.4 19.4 0 004.93-1.3c2.02-.47 4-.99 5.94-1.53l-.04.17c.17-.09.32-.2.47-.29 25.37-7.38 42.73-22.34 42.73-39.6C157.22 19.92 122.02 0 78.6 0z"/>
  <path fill="#2a2623" d="M6.11 44.49c0 14.75 15.42 27.57 38.12 34.11 3.84-.97 7.49-2.14 7.15-2.21-3.1-.72-8.04-1.99-9.9-2.88 1.67-.08 11.55-1.1 14.4-2.06-3.4-.7-16.13-5.05-21.35-7.98 2.3.09 12.73.78 16.46 0l-1.6-.46c-5.96-1.48-31.22-12.48-43.08-21.33-.13.94-.2 1.87-.2 2.81z"/>
  <path fill="#fdb71a" d="M154.72 44.48c0 15.24-14.5 28.6-36.24 36.05a17.71 17.71 0 002.78-4.72c18.08-7.04 29.83-18.44 29.83-31.32 0-18.47-24.22-33.93-56.63-37.8a105.53 105.53 0 00-4.52-2.07c-5.3-2.27-6.5-1.24-7.82 0-.42.4-.74.79-1 1.17l-2.52-.02c-32.64 0-60.24 11.52-69.32 27.35C13.88 37 25.87 46.66 35.4 51.31l-.12-.3c-.35-.34-8.66-8.69-10.9-19.81h.14c.7.87 4.57 7.86 20.95 18.26 1.27.81 14.03 8.5 19.46 9.94l-.65-.72c-.53-.58-8.6-9.92-12.4-17.17 0 0-4.1-6.74-6.98-14.92 0 0 5.47 4.43 5.99 4.6l.06-.28c-.18-.4-4.76-10.85-5.59-16.6a91.67 91.67 0 019.86-1.54s1.11 9.1 8.38 13.44c0 1.12.4 12.4 3.49 16.59-.09-1.57-.94-7.18 3.87-13.1l.25.23c-.64 2.45-2.37 12.4 0 20.61.62 2.2 4.97 13.03 9.08 15.8-.47-2.6-6.32-14.7-.15-27.48.03.43.14 1.42.38 2.82.7 3.98 2.62 11.47 8.06 19.95l.29.42s-4.94-2.74-7.54-7.95c0 0 0 4.52 1.1 6.98 0 0-1.64-1.09-2.6-3.14 0 0 1.92 10.2 2.88 12.8 0 0-9.5-5.17-15.76-21.02 0 0-.55 1.23-.14 4.37 0 0-6.56-4.46-9.03-8.62 1.07 1.87 7.71 13.28 11.99 17.17 0 0-17.9-4.3-25.02-8.81 0 0 .82 1.5 2.88 3.42 0 0-9.18-1.23-13.43-2.6 0 0 11.38 5.6 22.62 9.03 0 0-5.07 1.51-10 2.2 0 0 6.3 3.15 14.25 5.34 0 0-3.15 2.2-9.59 3.43 0 0 1.09.8 4.11 1.63l-1.54.68a2.88 2.88 0 00-.27.12 35.73 35.73 0 01-4.23 1.54l-2.42.8.2.04c2.84.78 8.46 1.94 13.67 2.63h.01a134.62 134.62 0 0026.52.86l.12.59c1.24 0 2.89-.08 4.36-.19-.12.56-.77 1.9-1.23 2.93-3.96.35-8.02.53-12.17.53-42.04 0-76.13-18.95-76.13-42.32 0-23.36 34.08-42.31 76.12-42.31 42.05 0 76.13 18.95 76.11 42.3zM49.39 63.01c-5.97-1.47-31.22-12.48-43.1-21.33-.12.93-.19 1.87-.19 2.81 0 14.76 15.42 27.58 38.12 34.11 3.83-.96 7.5-2.14 7.16-2.21-3.1-.72-8.06-1.99-9.9-2.88 1.66-.08 11.54-1.1 14.39-2.06-3.4-.7-16.13-5.06-21.34-7.98 2.3.08 12.72.78 16.45 0z"/>
  <path fill="#fdb71a" d="M123.66 33.59l.36.08.43.38c.72-.4 1.12-1.18 1.12-1.18l4.37-.1.78 1.33c.1-.13.23-.24.3-.34.64-.66 1.36-.85 1.65-.98-.34-.65-1.1-1.55-3-2.96l-1.05-.77-1.45-.99.13.05a.25.25 0 01-.05-.04c.12.08-3.96-1.32-4.9-1.54a28.6 28.6 0 01-3.2-.99c-3.28-1.66-2.85-3.21-2.85-3.21s2.09-.3 3.05.72c.21.22.72 1.34.72 1.34l.55.15c.2-1.7-.02-2.44-.19-3.1-.34-1.26-5.99-4.82-7.14-5.66a17.8 17.8 0 00-6.64-3.16c-4.03-.8-15.5-2.42-19.29-2.63-3.8-.2-5.8-.1-6.95.1a3.33 3.33 0 01-.36.07c-2.51.44-5.94 1.23-7.34 1.62 1.75.1 4.68-.1 7.35-.35 2.8-.26 5.34-.59 5.93-.7l7.17 2.53c.63.23 2.32-.53 2.32-.53 1.1.43 5.33 2.51 6.83 3.27.3.15.68.08.91-.05.6-.32.75-.4 1.43-.82 1.06.53 7.42 5 7.42 5l-.67.19c-6.85-2-11.92-3.29-13.18-3.4l-.38-.34 1.85-.26c-4-.85-11.69-1.58-13.18-1.58l-.5-.4c1.13-.24 4.51-.34 4.51-.34-1.9-.52-5.27-.84-8.33-.84-.68 0-1.4 0-2.12-.02-6.27-.15-13.59-.88-16.31-1.45-2.31-.48-2.74-.52-3.07-.6-.36-.07-.57-.13-1.1-.27-1.51-.04-1.7.78-1.7.85-.22 1.77 2.38 4.13 4.73 5.37 3.6 2.17 8.42 3.33 9.59 3.59 1.11.23 2.05.3 2.92.38 1.84.18 3.68.69 5.03 1.1.75.22 1.35.41 1.7.5-.24-.21-1.15-1.33-1.72-2.01a86.68 86.68 0 01-.44-.55h.02c-1-1.3-1.03-2.1-1.03-2.1 5.34 2.05 12.25 2.2 12.25 2.2 5.07.27 9.04 2.6 9.04 2.6a64.37 64.37 0 007 3.5c-.08-.02.41.15 1.48.35v-.01c.6.04 1.08.16 1.5.22l.3.03c2.59.15 3.47.93 3.47.93l-1.14.87c3.45-.25 5.48.97 5.48.97l-1.23.96c3-.1 5.42 1.7 6.82 3.02z"/>
  <g>
    <path fill="#fff" d="M79.7 20.07l.44.55v-.36l.34.12.01.02-.01-.01.12.04c1.78.54 3.75.8 5.57 1.35 3.32.97 7.3-.24 10.46 1.04 3 1.28 6.23 2.51 9.49 3.38.28.04.57.05.85.07-1.54-.67-5-2.25-7-3.5 0 0-3.97-2.33-9.04-2.6 0 0-6.9-.15-12.25-2.2 0 0 .02.8 1.03 2.1zM87.38 7.17l9.7 2.03h.03l-.21-.3c-1.46-.25-7.05-2.25-8.54-2.77-1.78-.63-2.85-.75-3.53-.63-1.44.34-1.68 2.84-1.76 3.87h.33s.13-3.03 3.98-2.2z"/>
    <path fill="#fff" d="M127.25 51.82a10 10 0 01-1.85-.97c-1.19.59-2.7.94-4.02 1.11-6.2.86-11.11 1.51-14.63 5.37-1.02 1.11-1.9 3.51-1.83 5.64-.58-.53-.87-.81-1.4-1.18-1.42-.9-3.03-1.77-4.86-1.54.74.55 1.4 1.33 1.46 1.79-.67-.4-1.29-.6-2.12-.93-2.16-.66-4.81.01-6.5 1.16 0 0-.86-4.32 1.25-8.02 1.96-3.44 6.13-4.5 9.96-4.44 2.54.13 4.74.85 6.55 1.42 1.4.45 2.35.61 3.38.78 3.73.25 7.94-.64 9.62-1.73 2.85-1.86 5-4.5 4.88-8.08a5.46 5.46 0 00-2.85-5.2c-.9-.32-1.78-.62-2.74-.78-1.03-2.24-2.23-2.42-2.23-2.42v-.42l2.12.02c.87.02 1.44.04 2.22.17-1.4-1.32-3.81-3.11-6.82-3.02l1.23-.96s-2.03-1.21-5.48-.97l1.14-.87s-.88-.78-3.47-.93l-.3-.03c-.43-.06-.92-.18-1.5-.22-.22.4-.62.7-.92 1.05-.2.18-.31.18-.67.19-1.63.02-4.04.23-5.39.08.57-.7.73-1.2.73-1.2l-2-.55s-1.5 1.7-3.46 2c-.52-.12-.75-.45-1-.89-.2-.33-.34-.82-.34-.82.33-.27 1.38-.83 1.55-1.12l-2.03-.25c-.13-.76-.07-.99-.07-.99-.59-.18-.95-.28-1.58-.44 0 0-.07.13-.1.3-.04.18-.2 1.45.52 3.6a9.6 9.6 0 01-2.29-.63c-1.5-.52-2.76-1.27-4.14-1.89-1.02-.26-2.99-.88-2.99-.88s-.09-.1-.3.06c1.07 1.47 2.4 2.85 3.7 4.26a35.12 35.12 0 0011.47 2.38c4.82.56 9.75.5 14.44 1.93-1.29.54-1.87.8-3 1.7-5.86.06-12.58.18-18.47 1.12a23.8 23.8 0 00-4.24 1c8.6.12 17.36.97 25.72 2.23 0 0 4.1.8 5.95 1.32l-.08.19c-4.95-.44-9.92-.92-14.83-.8-3.73.04-7.62.15-11.11.7l.03.05c7.15.56 14.26 1.68 20.96 3.44 1.7.57 3.5 1 5.14 1.74-.07.08-.2.17-.28.26-4.9-1.5-10.33-1.62-15.52-1.89-2.11.03-4.17-.16-6.23.22 0 0 12.22 2.28 17.3 5a.81.81 0 01-.17.2c-2.02-.62-3.8-.9-6.08-1.39-5.66-1.24-13.39-1.03-17.1 3.88-1.1 1.5-3.07 4.8-2.67 10.26 0 0-4.93-2.74-7.54-7.94 0 0 0 4.52 1.1 6.98 0 0-1.66-1.1-2.6-3.15 0 0 1.92 10.2 2.88 12.81 0 0-9.5-5.18-15.77-21.03 0 0-.54 1.23-.14 4.38 0 0-6.56-4.46-9.02-8.63 1.08 1.87 7.71 13.27 11.98 17.18 0 0-17.89-4.29-25.02-8.82a15 15 0 002.88 3.43s-9.18-1.23-13.42-2.6c0 0 11.38 5.6 22.62 9.03 0 0-5.08 1.52-10.01 2.2 0 0 6.3 3.14 14.26 5.34 0 0-3.16 2.18-9.6 3.42 0 0 1.1.81 4.12 1.64l-1.55.67-.26.13a35.16 35.16 0 01-4.23 1.53l-2.43.8a.98.98 0 00.2.05c2.83.78 8.46 1.94 13.68 2.62h.01c5.48-2.34 12.97-5.1 19.17-5.77l1.67-.15c-3.12-1.78-5.83-2.41-8.31-3.07-.51-.16-.7-.17-1.27-.33.73-.08.9-.1 1.62-.12 1.73.03 3.6.3 5.31.68 1.1.32 2.18.7 3.22 1.16 1.84.8 3.53 1.83 4.89 3.25a8.3 8.3 0 011.46 2.6c.21.69.32.98.46 1.58 0 0 2.69-.15 4.38-.46-.14.95-.66 2.39-1.18 3.44 2.08-.41 4.3-.93 6.15-1.62 0 0-.7 1.61-1.22 2.54 2.14-.54 5.5-1.61 8.2-3.08a21.7 21.7 0 01-.96 2.74c3.64-.98 9.15-4.3 10.54-5.57.07.7.04 1.01-.07 1.9.72-.6.45-.37.87-.7a18.1 18.1 0 003.95-5.07c.6-1.27 1.12-2.4 1.35-3.62l-2.84-.22c1.37-1.78 2.07-3.98 1.66-5.77a23.28 23.28 0 01-6.95 4.96c-.62.18-2.17.53-3.33.28-.3-.08-.68-.14-.9-.39.63-.62 1.19-1.35 1.69-2.07.9-1.32 1.56-3.05.81-4.6-.42.42-.48.57-.77.81-2.66 2.61-6.02 5.85-10.26 4.78-1.84-.92-4.33-2.4-6.5-.94l-.35-.41c-.54-1.19-1-2.57-1.2-3.9l.27-.15c2.45-1 4.92-.52 6.6.11 2.22.61 3.3 4.02 6.03 3.16a8.52 8.52 0 003.81-2.79c-1.18-.72-1.5-2.55-1.44-3.56.06-.84.35-1.8.67-2.37 1.18-2.13 3.27-4.59 6.15-4.7.15 1.82-.34 3.8-.8 5.56-.03.2-.3.62-.13.53a13.78 13.78 0 003.89-3.3c.4-.47.49-.66.86-1.27.68-1.26.73-1.69 1.02-2.54a9.45 9.45 0 015.3.07c.47.4.55 1.15.54 1.68a8.55 8.55 0 01-1.15 3.32c-.15.22-.9 1.36-1.07 1.58a9.59 9.59 0 003.24-1.97c1.27-1.13 3.07-3.47 2.82-5.81a5.26 5.26 0 01-1.7-.62z"/>
    <path fill="#fff" d="M131.47 40.41l-.19-.36s3-1.12 3.88-1.82c-.06-1.13-.26-2.23-.42-3.44-.26-1.76-.74-2.88-1.27-3.39-1.73-1.48-3.96-2.43-6.16-3.27l-.14-.05c.53.35 1.01.67 1.45.99l1.06.76c1.9 1.42 2.66 2.31 3 2.96.2-.08.68-.23.68-.23s.18.25.22.52c0 .05-1.1 1.35-1.57 2.93-.62.4-2.56 1.57-3.43 3.47-.53 1.47-1 6.53-.82 8.66.04 1.3.78 3.52 2.46 4.18a8.1 8.1 0 001.99-1.95c.29-.4.56-.74.8-1.44-.46-.03-1.85-.09-2.61-.2-.07-.11-.08-.17-.19-.35.47-.05.73-.08 1.12-.14a6.33 6.33 0 002.12-.6c.28-.4.87-1.8.95-2.92l-2.93.01-.21-.48s2.4-.47 3.39-.79c.15-1.04.44-2.34.37-3.46-1.07.27-3.55.41-3.55.41zM61.16 18.43c2.69 2 6.56 3.56 13.3 4.9 0 0-2.11-2.48-2.25-2.7-1.19-.25-6-1.41-9.6-3.58-2.34-1.25-4.94-3.6-4.72-5.38 0-.07.19-.88 1.7-.85-.32-.08-1.85-.45-2.57.19-.58.53-.38 1.72.07 2.66.22.45 1.4 2.75 4.07 4.76z"/>
  </g>
  <g>
    <path fill="#2a2623" d="M145.14 81.57v-3.3h-.02l-1.34 3.31h-.36l-1.3-3.32h-.02v3.32h-.6v-3.91h.98l1.13 2.76 1.16-2.76h.96v3.9zm-5.62-3.3v3.31h-.6v-3.32h-1.27v-.59h3.16v.6z"/>
  </g>
</svg>
