<?xml version="1.0" encoding="UTF-8" standalone="no"?>
<svg
   width="111.89261"
   height="95"
   viewBox="0 0 111.89261 95"
   fill="none"
   version="1.1"
   id="svg2"
   sodipodi:docname="ORE.svg"
   inkscape:version="1.4 (86a8ad7, 2024-10-11)"
   xmlns:inkscape="http://www.inkscape.org/namespaces/inkscape"
   xmlns:sodipodi="http://sodipodi.sourceforge.net/DTD/sodipodi-0.dtd"
   xmlns="http://www.w3.org/2000/svg"
   xmlns:svg="http://www.w3.org/2000/svg">
  <defs
     id="defs2" />
  <sodipodi:namedview
     id="namedview2"
     pagecolor="#ffffff"
     bordercolor="#000000"
     borderopacity="0.25"
     inkscape:showpageshadow="2"
     inkscape:pageopacity="0.0"
     inkscape:pagecheckerboard="0"
     inkscape:deskcolor="#d1d1d1"
     inkscape:zoom="3.671875"
     inkscape:cx="24.238298"
     inkscape:cy="60.323404"
     inkscape:window-width="1644"
     inkscape:window-height="1211"
     inkscape:window-x="52"
     inkscape:window-y="52"
     inkscape:window-maximized="0"
     inkscape:current-layer="svg2" />
  <path
     d="M 55.941407,0 C 34.48223,0.0098644 19.083759,6.5459699 10.824219,14.580078 c -0.0111,0.01038 -0.02217,0.0208 -0.0332,0.03125 C 0.2677514,24.970576 0,38.014885 0,47.625 c 0,9.656422 0.3904769,22.513726 10.789063,32.759766 0.01233,0.01241 0.0247,0.02478 0.03711,0.03711 8.258765,8.027227 23.654931,14.563369 45.113281,14.578125 h 0.0098 c 21.463426,-0.0098 36.863164,-6.543326 45.121097,-14.582031 0.0104,-0.0097 0.0209,-0.0195 0.0312,-0.0293 10.52698,-10.362886 10.79101,-23.407304 10.79101,-33.019531 0,-9.660848 -0.39195,-22.515042 -10.79101,-32.75586 l -0.004,0.0098 c -0.008,-0.01435 -0.0156,-0.02867 -0.0234,-0.04297 C 92.813752,6.5449662 77.412642,0.0098661 55.949257,2.1e-6 Z"
     style="fill:#f9f94f"
     id="path4" />
  <path
     d="m 95.706366,20.097266 c -6.0655,-5.9 -19.9808,-12.3909095 -39.7619,-12.4000004 -19.7765,0.00909 -33.6872,6.5000004 -39.75275,12.4000004 -8.3991095,8.2682 -8.4944504,17.9682 -8.4944504,27.5273 0,9.5591 0.181602,19.0863 8.4944504,27.2772 6.06555,5.8955 19.97625,12.3864 39.75275,12.4 19.7811,-0.009 33.6964,-6.5 39.7573,-12.4 8.403704,-8.2727 8.494504,-17.9681 8.494504,-27.5318 0,-9.5636 -0.1816,-19.0863 -8.494504,-27.2727 m -21.0885,54.6591 c -3.7229,3.7636 -9.9791,6.9818 -18.6052,6.9818 -8.6261,0 -14.8823,-3.2182 -18.6006,-6.9818 -4.7399,-4.8273 -6.0883,-7.5091 -6.0883,-27.0909 0,-19.5818 1.3484,-22.2637 6.0883,-27.0909 3.7183,-3.75457 9.979,-6.97275 18.6006,-6.97275 8.6216,0 14.8823,3.21363 18.6052,6.97275 4.7352,4.8272 6.0882,7.5136 6.0882,27.0909 0,19.5773 -1.353,22.2636 -6.0882,27.0909 z"
     fill="#008842"
     id="path1" />
  <g
     inkscape:groupmode="layer"
     id="layer1"
     inkscape:label="Layer 1"
     transform="translate(7.6972656,7.6972656)" />
</svg>
