<svg version="1.1" id="Layer_1" xmlns="http://www.w3.org/2000/svg" x="0" y="0" viewBox="0 0 200 135" xml:space="preserve"><style>.st3{fill:#003057}</style><path d="M78.116 85.85c.125.095.511-1.38.609 14.768.078 12.472 21.729 24.384 23.366 25.193 1.679-.797 23.154-12.232 23.069-25.516-.051-9.223.053-10.636.17-12.788l-.011-2.099c-1.836-.818-12.504-8.96-23.406-15.317C90.329 77.299 78.64 85.63 78.116 85.85" fill="#cf3339"/><path d="M98.89 86.73c-.931 0-3.751 1.533-6.35 5.227-.015.015-.655.738-.655 2.913l.015 6.808c.416 6.649 6.9 11.142 8.956 11.142h2.447c2.125 0 6.195-4.777 6.195-5.877v-6.637l-.009-.386c0-.901 0-3.005-1.542-3.005h-7.858l-.054.085c-.059.117-.078.153 2.36 3.734l.121.178.14-.167c.29-.344.691-.81 2.854-.833l-.004 7.482c0 1.266-.872 2.375-1.866 2.375-1.889 0-7.446-2.071-7.69-8.409v-5.799c0-4.48.218-5.439 2.513-5.439h5.173c.252 0 1.289.149 1.715.893l.136.235 2.888-4.535-9.485.015z" fill="#fff"/><path d="M182.232 39.696l.043.025-.043-.025zm-64.653 4.707c-2.835 2.432-6.586 5.954-9.603 8.78l-2.199 2.061c-.753.67-2.277 2.01-4.041 3.556-2.057-1.947-5.307-5.027-5.33-5.046a139.315 139.315 0 00-11.655-10.371V27.466c4.906 6.847 15.071 21.04 15.071 21.04.011.017 2.025 2.786 2.025 2.786l2.036-2.786 15.067-21.04c0 4.099 0 10.368.004 15.76l-1.375 1.177zM83.905 88.44c2.604-1.014 8.087-3.852 17.927-11.711.108.091.369.297.369.297 9.563 7.642 14.899 10.415 17.452 11.418 0 3.696-.004 12.582-.004 13.049 0 10.421-14.161 16.382-17.836 17.755-3.685-1.368-17.908-7.332-17.908-17.755V88.44zM26.279 42.221c3.956-1.893 9.009-2.752 15.504-2.752 17.98 0 30.034 11.015 36.298 16.328.379.335 6.543 5.854 13.174 11.995-8.068 6.363-15.285 10.54-19.032 10.983-.004.002-2.156.257-2.156.257v24.598c-.011.695.04 5.697 3.829 11.821 3.49 5.648 11.024 13.351 27.051 17.952l.286.081c.613.174 1.075.038 1.482-.091 15.947-4.601 23.444-12.298 26.922-17.946 3.763-6.111 3.821-11.119 3.81-11.823V79.032l-2.15-.256c-3.715-.441-10.773-4.535-18.924-10.954a431.936 431.936 0 007.663-6.893c.907 2.97 2.563 6.344 5.583 9.107l-.042-.038c6.52 6.289 18.254 13.79 37.12 13.79 13.43 0 24.727-3.681 34.548-11.255L200 70.409 182.989 59.54c.31 4.76-2.653 6.113-2.653 6.113l-.019.008c-5.345 2.763-11.015 4.05-17.851 4.05-12.698 0-20.559-4.887-25.989-9.147-1.93-1.489-2.746-3.252-2.873-5.218 0 0-.004-.059-.004-.091v-5.483l1.247-.937c5.352-4.02 14.041-9.366 27.619-9.366 6.836 0 12.506 1.289 17.847 4.052 0 0 2.987 1.238 2.676 6.119L200 38.774l-2.754-2.122c-9.821-7.576-21.118-11.259-34.548-11.259-10.848 0-20.137 2.411-29.106 7.567l-.009-11.643v-.061l-.011-.749s-.456-11.225 5.197-15.864l3.651-3.189-31.701-.021 2.046 3.643c0 .006.575 1.086.575 2.597 0 1.249-.392 2.458-1.172 3.592.008-.004-6.969 10.074-10.317 14.916L91.527 11.258c-.768-1.126-1.164-2.336-1.164-3.585 0-1.512.575-2.593.583-2.602l2.033-3.636-31.726.006 3.6 3.18C70.79 9.358 70.12 21.24 70.12 21.24v12.066c-9.363-5.318-18.082-7.911-28.573-7.911-12.173 0-22.147 3.06-30.482 9.342a2.78 2.78 0 00-.354.242c.008-.004-.255.208-.263.216a33.074 33.074 0 00-1.889 1.582c-4.853 4.338-5.682 7.113-5.822 7.856l-.011.064-.093.488.151.545c1.628 5.861 8.346 10.133 19.984 12.699 5.504 1.219 12.154 2.042 18.722 2.326l.223.011c4.694.248 9.081.46 13.339 1.206 2.178.38 3.397.67 4.491 1.005 0 0 2.578.85.138 2.544-8.997 5.744-20.469 5.456-20.469 5.456h-.051l-.051.002c-.41.021-10.132.426-19.51-5.962 0 0-3.863-2.328-2.477-6.567L0 69.395s2.144 2.105 2.175 2.133c1.368 1.416 13.74 13.511 36.806 13.525h.038c16.797-.293 26.268-5.207 32.063-9.274 5.93-4.16 8.795-8.56 9.23-9.351.023-.032.732-1.092.732-1.092l-.655-1.329-.144-.314c-.74-1.605-2.459-5.371-8.004-8.829-9.906-6.705-28.262-7.137-28.262-7.137-1.298-.053-6.628-.288-11.397-.861-2.864-.346-4.764-.621-6.272-1.001-5.771-1.237-.031-3.644-.031-3.644m156.004 27.242a.246.246 0 00-.04.019l.04-.019z" fill="#bec1c1"/><path class="st3" d="M127.065 68.461c6.259 6.034 17.456 13.188 35.634 13.188 12.934 0 23.809-3.535 33.244-10.811l.343-.261-11.67-7.449-.093.424c-.587 2.693-3.197 3.997-3.223 4.01-5.663 2.926-11.647 4.287-18.833 4.287-13.352 0-21.61-5.133-27.31-9.603-1.618-1.251-3.492-3.444-3.689-6.84l-.004-.112-.004-17.976-.017-15.989c0-.021-.011-.318-.011-.823 0-2.886.343-12.582 4.794-16.333l.628-.534-22.479-.059.255.452c.051.1.85 1.558.85 3.64 0 1.399-.363 3.074-1.546 4.802l-12.082 17.467c-.477-.693-12.081-17.467-12.081-17.467-1.187-1.73-1.548-3.403-1.548-4.802 0-2.082.797-3.539.854-3.64l.252-.45-22.48.057.632.534c5.226 4.408 4.783 17.015 4.775 17.143v13.209c2.474 1.552 6.395 4.116 10.354 7.114 0-3.94.008-19.331.008-20.83 1.033 1.446 18.939 26.453 18.939 26.453 0 .002.293.401.293.401l.291-.399c.004-.002 15.796-22.06 18.945-26.455l.011 32.962s-.327 8.931 5.968 14.69M38.981 82.913C15.73 82.903 3.82 70.147 3.687 70.018l-.271-.265 11.643-7.434.078.449c.375 2.309 3.214 3.99 3.257 4.018 10.099 6.878 20.686 6.337 20.819 6.329a44.894 44.894 0 0020.605-4.987c2.561-1.444 4.894-3.513 4.514-4.565-1.202-3.325-13.485-4.449-22.505-4.934-1.416-.076-33.257-.797-36.98-13.47l-.023-.07.015-.068c.019-.096.509-2.511 5.154-6.662.52-.473 1.094-.948 1.796-1.501l.273-.223s.089-.068.119-.068c7.656-5.825 17.215-9.033 29.364-9.033 10.958 0 20.054 2.939 29.795 8.982.114.066 11.659 6.859 23.58 18.779l5.278 4.995a875.567 875.567 0 01-7.256 6.149c-6.868-6.369-13.4-12.204-13.46-12.258-6.45-5.466-18.915-16.848-37.701-16.848-8.604 0-14.456 1.476-18.803 4.289l-.193.102c-.454.301-.85.591-1.175.859-.683.604-1.145 1.247-1.374 1.908a1.123 1.123 0 00-.015.163c0 .305.14.583.361.882 2.792 3.745 23.149 4.323 23.362 4.33 30.622 1.59 33.372 12.703 34.525 15.082l.112.225-.1.144c0-.002-8.032 17.045-39.5 17.596"/><path class="st3" d="M195.942 38.343c-9.433-7.273-20.308-10.809-33.242-10.809-10.881 0-20.228 2.557-29.141 7.924v11.67c5.666-4.258 14.823-9.798 28.906-9.798 7.19 0 13.174 1.365 18.828 4.289.032.017 2.642 1.317 3.231 4.01l.093.424 11.67-7.446-.345-.264zM131.308 103.641V80.932l-.267-.03c-4.919-.589-13.277-6.077-20.296-11.64-2.288 1.93-5.275 4.459-7.209 6.092 11.611 9.283 17.001 11.327 18.258 11.532-.004.521-.008 14.609-.008 14.609 0 12.698-17.548 19.193-19.973 20.028-2.432-.835-20.047-7.328-20.047-20.028 0 0 .004-12.599-.008-14.613 1.313-.227 7.15-2.371 20.217-13.016.004 0 .036-.025.036-.025.023-.017 7.294-6.179 7.294-6.179a415.728 415.728 0 0010.114-9.073c-.388-1.711-.452-3.804-.452-3.804V46.03c-3.515 3.017-8.398 7.669-11.753 10.797 0-.004-11.509 10.163-13.375 11.64-7.478 6.041-16.265 11.829-21.366 12.434l-.267.03v22.715c-.004.191-.078 4.877 3.509 10.68 3.293 5.33 10.449 12.607 25.823 17.022.011 0 .274.076.274.076.015.008.295-.081.295-.081 15.296-4.41 22.424-11.687 25.705-17.016 3.574-5.803 3.504-10.489 3.496-10.686"/></svg>