<?xml version="1.0" encoding="UTF-8" standalone="no"?>
<svg
   fill="#ffffff"
   viewBox="0 0 213.46679 177.86719"
   version="1.1"
   id="svg2"
   sodipodi:docname="UK.svg"
   width="213.4668"
   height="177.86719"
   inkscape:version="1.4 (86a8ad7, 2024-10-11)"
   xmlns:inkscape="http://www.inkscape.org/namespaces/inkscape"
   xmlns:sodipodi="http://sodipodi.sourceforge.net/DTD/sodipodi-0.dtd"
   xmlns="http://www.w3.org/2000/svg"
   xmlns:svg="http://www.w3.org/2000/svg">
  <defs
     id="defs2" />
  <sodipodi:namedview
     id="namedview2"
     pagecolor="#ffffff"
     bordercolor="#000000"
     borderopacity="0.25"
     inkscape:showpageshadow="2"
     inkscape:pageopacity="0.0"
     inkscape:pagecheckerboard="0"
     inkscape:deskcolor="#d1d1d1"
     inkscape:zoom="2.5964077"
     inkscape:cx="32.352392"
     inkscape:cy="60.275587"
     inkscape:window-width="1862"
     inkscape:window-height="1211"
     inkscape:window-x="52"
     inkscape:window-y="52"
     inkscape:window-maximized="0"
     inkscape:current-layer="svg2" />
  <g
     id="g4"
     style="fill:#242093;fill-opacity:1"
     transform="translate(8.9335938,8.9335938)">
    <path
       id="path4"
       style="fill:#242093;fill-opacity:1"
       class="st0"
       sodipodi:type="inkscape:offset"
       inkscape:radius="7.0481958"
       inkscape:original="M 7.0996094 7.0996094 L 7.0996094 21.300781 L 17.800781 21.300781 L 17.800781 78.199219 L 32 92.5 L 56.900391 92.5 L 56.900391 78.199219 L 46.199219 78.199219 L 46.199219 21.300781 L 56.900391 21.300781 L 56.900391 7.0996094 L 7.0996094 7.0996094 z M 92.5 7.0996094 L 92.5 21.300781 L 103.19922 21.300781 L 103.19922 78.199219 L 92.5 78.199219 L 92.5 92.400391 L 117.40039 92.400391 L 131.59961 78.199219 L 131.59961 21.300781 L 142.30078 21.300781 L 142.30078 7.0996094 L 92.5 7.0996094 z M 49.800781 60.5 L 49.800781 74.699219 L 60.5 74.699219 L 60.5 138.69922 L 49.800781 138.69922 L 49.800781 152.90039 L 99.599609 152.90039 L 99.599609 138.69922 L 88.900391 138.69922 L 88.900391 117.40039 L 119.09961 117.40039 L 140.40039 138.69922 L 135.09961 138.69922 L 135.09961 152.90039 L 188.40039 152.90039 L 188.40039 138.69922 L 176 138.69922 L 143.09961 105.80078 L 174.19922 74.699219 L 188.40039 74.699219 L 188.40039 60.5 L 135.09961 60.5 L 135.09961 74.699219 L 140.40039 74.699219 L 119.09961 96 L 88.900391 96 L 88.900391 74.699219 L 99.599609 74.699219 L 99.599609 60.5 L 49.800781 60.5 z "
       d="M 7.0996094,0.05078125 A 7.0489007,7.0489007 0 0 0 0.05078125,7.0996094 V 21.300781 a 7.0489007,7.0489007 0 0 0 7.04882815,7.048828 h 3.6523436 v 49.84961 a 7.0489007,7.0489007 0 0 0 2.046875,4.966797 L 26.998047,97.466797 A 7.0489007,7.0489007 0 0 0 32,99.548828 h 21.451172 v 32.101562 h -3.650391 a 7.0489007,7.0489007 0 0 0 -7.048828,7.04883 v 14.20117 a 7.0489007,7.0489007 0 0 0 7.048828,7.04883 h 49.798828 a 7.0489007,7.0489007 0 0 0 7.048831,-7.04883 v -14.20117 a 7.0489007,7.0489007 0 0 0 -7.048831,-7.04883 h -3.65039 v -7.20117 h 20.230471 l 12.56836,12.5664 a 7.0489007,7.0489007 0 0 0 -0.69727,1.6836 v 14.20117 a 7.0489007,7.0489007 0 0 0 7.04883,7.04883 h 53.30078 a 7.0489007,7.0489007 0 0 0 7.04883,-7.04883 v -14.20117 a 7.0489007,7.0489007 0 0 0 -7.04883,-7.04883 h -9.48047 l -25.85351,-25.84961 24.05273,-24.052733 h 11.28125 a 7.0489007,7.0489007 0 0 0 7.04883,-7.048828 V 60.5 a 7.0489007,7.0489007 0 0 0 -7.04883,-7.048828 H 138.64844 V 28.349609 h 3.65234 a 7.0489007,7.0489007 0 0 0 7.04883,-7.048828 V 7.0996094 A 7.0489007,7.0489007 0 0 0 142.30078,0.05078125 H 92.5 A 7.0489007,7.0489007 0 0 0 85.451172,7.0996094 V 21.300781 A 7.0489007,7.0489007 0 0 0 92.5,28.349609 h 3.650391 V 53.451172 H 53.248047 V 28.349609 h 3.652344 a 7.0489007,7.0489007 0 0 0 7.048828,-7.048828 V 7.0996094 A 7.0489007,7.0489007 0 0 0 56.900391,0.05078125 Z" />
    <path
       id="path3"
       style="fill:#242093;fill-opacity:1"
       class="st0"
       sodipodi:type="inkscape:offset"
       inkscape:radius="8.9334297"
       inkscape:original="M 0 0 L 0 28.400391 L 10.699219 28.400391 L 10.699219 81.699219 L 28.5 99.5 L 53.400391 99.5 L 53.400391 131.5 L 42.699219 131.5 L 42.699219 160 L 106.69922 160 L 106.69922 131.59961 L 96 131.59961 L 96 124.5 L 115.59961 124.5 L 128 137 L 128 160 L 195.59961 160 L 195.59961 131.59961 L 179.59961 131.59961 L 153.80078 105.80078 L 177.80078 81.800781 L 195.59961 81.800781 L 195.59961 53.300781 L 138.69922 53.300781 L 138.69922 28.400391 L 149.40039 28.400391 L 149.40039 0 L 85.400391 0 L 85.400391 28.400391 L 96 28.400391 L 96 53.300781 L 53.300781 53.300781 L 53.300781 28.400391 L 64 28.400391 L 64 0 L 0 0 z M 3.5996094 3.5996094 L 60.5 3.5996094 L 60.5 24.900391 L 49.800781 24.900391 L 49.800781 56.900391 L 99.599609 56.900391 L 99.599609 24.900391 L 88.900391 24.900391 L 88.900391 3.5996094 L 145.80078 3.5996094 L 145.80078 24.900391 L 135.09961 24.900391 L 135.09961 56.900391 L 192 56.900391 L 192 78.199219 L 176 78.199219 L 148.40039 105.80078 L 177.69922 135.09961 L 192 135.09961 L 192 156.5 L 131.59961 156.5 L 131.59961 135.19922 L 117.40039 121 L 92.5 121 L 92.5 135.19922 L 103.19922 135.19922 L 103.19922 156.5 L 46.199219 156.5 L 46.199219 135.19922 L 56.900391 135.19922 L 56.900391 96 L 30.199219 96 L 14.199219 80 L 14.199219 24.900391 L 3.5996094 24.900391 L 3.5996094 3.5996094 z "
       d="M 0,-8.9335938 A 8.9343231,8.9343231 0 0 0 -8.9335938,0 V 28.400391 A 8.9343231,8.9343231 0 0 0 0,37.333984 h 1.765625 v 44.365235 a 8.9343231,8.9343231 0 0 0 2.6171875,6.316406 L 22.183594,105.81641 A 8.9343231,8.9343231 0 0 0 28.5,108.43359 h 15.966797 v 14.13282 H 42.699219 A 8.9343231,8.9343231 0 0 0 33.765625,131.5 V 160 a 8.9343231,8.9343231 0 0 0 8.933594,8.93359 H 106.69922 A 8.9343231,8.9343231 0 0 0 115.63281,160 v -22.78125 l 3.4336,3.46094 V 160 A 8.9343231,8.9343231 0 0 0 128,168.93359 h 67.59961 A 8.9343231,8.9343231 0 0 0 204.5332,160 v -28.40039 a 8.9343231,8.9343231 0 0 0 -8.93359,-8.93359 h -12.29883 l -16.86719,-16.86524 15.06836,-15.066405 h 14.09766 a 8.9343231,8.9343231 0 0 0 8.93359,-8.933594 v -28.5 a 8.9343231,8.9343231 0 0 0 -8.93359,-8.933594 h -47.9668 v -7.033203 h 1.76758 a 8.9343231,8.9343231 0 0 0 8.93359,-8.933593 V 0 a 8.9343231,8.9343231 0 0 0 -8.93359,-8.9335938 H 85.400391 A 8.9343231,8.9343231 0 0 0 76.466797,0 v 28.400391 a 8.9343231,8.9343231 0 0 0 8.933594,8.933593 h 1.666015 v 7.033203 H 62.234375 V 37.333984 H 64 a 8.9343231,8.9343231 0 0 0 8.933594,-8.933593 V 0 A 8.9343231,8.9343231 0 0 0 64,-8.9335938 Z M 12.533203,12.533203 h 39.033203 v 3.433594 h -1.765625 a 8.9343231,8.9343231 0 0 0 -8.933594,8.933594 v 32 a 8.9343231,8.9343231 0 0 0 8.933594,8.933593 h 49.798828 a 8.9343231,8.9343231 0 0 0 8.933591,-8.933593 v -32 a 8.9343231,8.9343231 0 0 0 -8.933591,-8.933594 h -1.765625 v -3.433594 h 39.033206 v 3.433594 h -1.76758 a 8.9343231,8.9343231 0 0 0 -8.93359,8.933594 v 32 a 8.9343231,8.9343231 0 0 0 8.93359,8.933593 h 47.9668 v 3.431641 H 176 a 8.9343231,8.9343231 0 0 0 -6.31641,2.617187 l -27.59961,27.601563 a 8.9343231,8.9343231 0 0 0 0,12.632815 l 29.29883,29.29883 a 8.9343231,8.9343231 0 0 0 6.31641,2.61718 h 5.36719 v 3.53321 H 140.5332 v -12.36719 a 8.9343231,8.9343231 0 0 0 -2.61718,-6.31641 L 123.7168,114.68359 a 8.9343231,8.9343231 0 0 0 -6.31641,-2.61718 H 92.5 A 8.9343231,8.9343231 0 0 0 83.566406,121 v 14.19922 A 8.9343231,8.9343231 0 0 0 92.5,144.13281 h 1.765625 v 3.4336 H 55.132812 v -3.4336 h 1.767579 a 8.9343231,8.9343231 0 0 0 8.933593,-8.93359 V 96 a 8.9343231,8.9343231 0 0 0 -8.933593,-8.933594 h -23 L 23.132812,76.298828 V 24.900391 a 8.9343231,8.9343231 0 0 0 -8.933593,-8.933594 h -1.666016 z" />
  </g>
  <g
     id="g2"
     style="fill:#242093;fill-opacity:1"
     transform="translate(8.9335938,8.9335938)">
    <path
       class="st0"
       d="M 7.1,7.1 V 21.3 H 17.8 V 78.2 L 32,92.5 H 56.9 V 78.2 H 46.2 V 21.3 H 56.9 V 7.1 Z m 85.4,0 v 14.2 h 10.7 V 78.2 H 92.5 v 14.2 h 24.9 L 131.6,78.2 V 21.3 h 10.7 V 7.1 Z M 49.8,60.5 v 14.2 h 10.7 v 64 H 49.8 v 14.2 H 99.6 V 138.7 H 88.9 v -21.3 h 30.2 l 21.3,21.3 h -5.3 v 14.2 h 53.3 V 138.7 H 176 l -32.9,-32.9 31.1,-31.1 h 14.2 V 60.5 h -53.3 v 14.2 h 5.3 L 119.1,96 H 88.9 V 74.7 H 99.6 V 60.5 Z"
       id="path2"
       style="fill:#ffffff;fill-opacity:1" />
    <path
       class="st0"
       d="m 179.6,131.6 -25.8,-25.8 24,-24 h 17.8 V 53.3 H 138.7 V 28.4 h 10.7 V 0 h -64 v 0 28.4 0 H 96 V 53.3 H 53.3 V 28.4 H 64 v 0 V 0 0 H 0 v 0 28.4 h 10.7 v 53.3 0 0 l 17.8,17.8 h 24.9 v 32 H 42.7 V 160 h 64 V 131.6 H 96 v -7.1 h 19.6 L 128,137 v 23 h 67.6 v -28.4 0 z m 12.4,24.9 h -60.4 v -21.3 0 L 117.4,121 H 92.5 v 14.2 h 10.7 v 21.3 h -57 V 135.2 H 56.9 V 96 H 30.2 l -16,-16 v -55.1 0 H 3.6 V 3.6 H 60.5 V 24.9 H 49.8 v 32 h 49.8 v -32 H 88.9 V 3.6 h 56.9 v 21.3 h -10.7 v 32 H 192 v 21.3 h -16 l -27.6,27.6 v 0 l 29.3,29.3 H 192 Z"
       id="path1"
       style="fill:#ffffff;fill-opacity:1" />
  </g>
</svg>
