<?xml version="1.0" encoding="UTF-8" standalone="no"?>
<svg
   viewBox="0 0 63.600135 54.215872"
   version="1.1"
   id="svg8"
   sodipodi:docname="OAK.svg"
   width="63.600136"
   height="54.21587"
   inkscape:version="1.4 (86a8ad7, 2024-10-11)"
   xmlns:inkscape="http://www.inkscape.org/namespaces/inkscape"
   xmlns:sodipodi="http://sodipodi.sourceforge.net/DTD/sodipodi-0.dtd"
   xmlns="http://www.w3.org/2000/svg"
   xmlns:svg="http://www.w3.org/2000/svg"
   xmlns:rdf="http://www.w3.org/1999/02/22-rdf-syntax-ns#"
   xmlns:cc="http://creativecommons.org/ns#"
   xmlns:dc="http://purl.org/dc/elements/1.1/">
  <defs
     id="defs8" />
  <sodipodi:namedview
     id="namedview8"
     pagecolor="#ffffff"
     bordercolor="#000000"
     borderopacity="0.25"
     inkscape:showpageshadow="2"
     inkscape:pageopacity="0.0"
     inkscape:pagecheckerboard="0"
     inkscape:deskcolor="#d1d1d1"
     inkscape:zoom="5.7485325"
     inkscape:cx="27.050382"
     inkscape:cy="42.271658"
     inkscape:window-width="1656"
     inkscape:window-height="1210"
     inkscape:window-x="243"
     inkscape:window-y="12"
     inkscape:window-maximized="0"
     inkscape:current-layer="svg8" />
  <title
     id="title1">Oakland Athletics cap logo</title>
  <g
     id="A_x27_s_x5F_Primary-AthleticGold_00000026150455216311056090000008874802451775783098_"
     transform="matrix(0.35292206,0,0,0.35679971,2.5406727,1.4687394)">
	<g
   id="g2">
		
		
		<g
   id="g11">
  <path
     id="path1-0"
     style="fill:#ffb819"
     class="st0"
     sodipodi:type="inkscape:offset"
     inkscape:radius="7.3013377"
     inkscape:original="M 60.980469 3.2363281 C 49.94043 2.4980469 39.025 9.2253906 35 26.900391 C 39.5 20.400391 47.800391 14.9 55.400391 19.5 C 62.000391 23.4 62.000391 27.8 59.400391 35.5 L 57.400391 41.400391 C 49.500391 33.100391 32.800391 34.8 30.900391 53.5 C 36.100391 48.8 54.799219 49.199219 49.199219 65.699219 L 32.400391 115 C 18.400391 115.1 4.3996094 122.19922 0.099609375 139.69922 C 3.9996094 133.49922 32.699609 121.19961 58.599609 140.09961 L 75 120 C 73.9 118.9 64.899219 116.99961 58.199219 123.59961 C 54.699219 120.59961 50.099609 118.30078 45.099609 116.80078 L 53.699219 91.400391 L 85.599609 91.400391 L 96.800781 125 C 101.20078 138.4 111.5 146.00039 118 135.90039 C 118 135.90039 135.80039 109.29922 137.90039 106.19922 C 139.90039 102.99922 135.69922 102.5 135.19922 103 C 117.99922 121.8 112.40039 114.49961 109.40039 105.59961 L 81.300781 21 C 78.700781 13.2 73.899219 6.6 65.699219 4 C 64.136719 3.6 62.557617 3.3417969 60.980469 3.2363281 z M 69.800781 43.900391 L 81.099609 77.699219 L 58.300781 77.699219 L 69.800781 43.900391 z "
     d="m 61.466797,-4.0488281 c -7.153015,-0.478344 -14.670376,1.5683433 -20.75,6.5761719 C 34.637172,7.5351723 30.166104,15.244093 27.880859,25.279297 a 7.3020679,7.3020679 0 0 0 5.845703,8.207031 c -5.318063,3.994086 -9.224011,10.753779 -10.089843,19.275391 a 7.3020679,7.3020679 0 0 0 12.160156,6.154297 c -0.35305,0.319102 0.686467,-0.388431 2.044922,-0.595704 1.358455,-0.207272 2.980125,-0.07446 3.904297,0.240235 0.924171,0.314699 0.965411,0.466044 1.050781,0.652344 0.08524,0.186007 0.483965,1.196034 -0.509766,4.130859 L 27.03125,108.11719 c -14.795244,1.92179 -29.4975273,11.42839 -34.0214844,29.83984 a 7.3020679,7.3020679 0 0 0 13.2695313,5.62891 c -0.5946738,0.94538 1.1735087,-1.11482 4.0957031,-2.50196 2.922194,-1.38713 7.023867,-2.72368 11.710937,-3.36328 9.374141,-1.27918 20.905541,0.0289 32.208985,8.27735 a 7.3020679,7.3020679 0 0 0 9.960937,-1.28321 L 80.65625,124.61523 a 7.3020679,7.3020679 0 0 0 -0.494141,-9.77734 c -1.526063,-1.52606 -2.371047,-1.71591 -3.236328,-2.05859 -0.86528,-0.34269 -1.690968,-0.57186 -2.583984,-0.75782 -1.786032,-0.37191 -3.821442,-0.54598 -6.121094,-0.39453 -3.040503,0.20024 -6.589157,1.14598 -10.027344,3.05078 -1.270363,-0.77685 -2.609894,-1.42852 -3.964843,-2.07031 l 4.707031,-13.906248 h 21.402344 l 9.52539,28.576168 c 0.0024,0.007 0.0054,0.0141 0.0078,0.0215 l 0.0039,0.01 c 2.599579,7.90114 6.662095,14.50331 13.04102,18.25 3.19383,1.87592 7.36804,2.90341 11.45703,1.85743 4.08898,-1.04599 7.44218,-3.95116 9.76758,-7.56446 0.13055,-0.19509 17.84456,-26.66312 19.80468,-29.55664 a 7.3020679,7.3020679 0 0 0 0.14649,-0.22656 c 1.1541,-1.84657 2.1122,-4.60509 1.39062,-7.53516 -0.72158,-2.930061 -2.89858,-4.872659 -4.54687,-5.755856 -1.6483,-0.883198 -3.00093,-1.142367 -4.37696,-1.226563 -0.68801,-0.0421 -1.37165,-0.03933 -2.2832,0.121094 -0.91155,0.160423 -2.15351,0.08124 -4.23828,2.166016 a 7.3020679,7.3020679 0 0 0 -0.22461,0.234375 c -4.00798,4.380814 -7.19054,7.010284 -9.27539,8.279294 -1.93541,1.17805 -2.42911,1.02047 -2.30273,1.03516 -0.0394,-0.0563 0.001,-0.0184 -0.0879,-0.13867 -0.462,-0.62419 -1.19826,-2.11701 -1.82421,-3.97071 L 88.230469,18.699219 a 7.3020679,7.3020679 0 0 0 -0.0039,-0.0078 C 85.164508,9.5052426 78.716883,0.46877729 67.90625,-2.9589844 A 7.3020679,7.3020679 0 0 0 67.509766,-3.0722656 C 65.533617,-3.5781597 63.511784,-3.9120734 61.466797,-4.0488281 Z M 49.433594,25.003906 c 0.688454,-0.0043 1.340641,0.230798 2.185547,0.742188 a 7.3020679,7.3020679 0 0 0 0.06641,0.03906 c 2.264647,1.338201 1.939687,1.387716 2,1.695313 0.04057,0.206916 -0.130452,1.407711 -0.509766,3.050781 -3.595565,-1.160962 -7.414581,-1.324652 -11.21875,-0.541016 1.540019,-1.861111 3.422857,-3.550694 5.074219,-4.292968 0.989923,-0.444963 1.71389,-0.689025 2.402344,-0.69336 z m 20.30664,41.740235 1.220703,3.654296 h -2.46289 z" />
  <path
     id="polygon1"
     style="fill:#ffb819"
     class="st0"
     sodipodi:type="inkscape:offset"
     inkscape:radius="6.0482616"
     inkscape:original="M 105.09961 33.599609 L 105.09961 44 L 108.5 44 L 105.5 52.099609 L 108.40039 52.099609 L 115.30078 43.199219 L 115.30078 33.599609 L 105.09961 33.599609 z "
     d="m 105.09961,27.550781 a 6.0488665,6.0488665 0 0 0 -6.048829,6.048828 V 44 a 6.0488665,6.0488665 0 0 0 1.583989,3.822266 l -0.806645,2.175781 A 6.0488665,6.0488665 0 0 0 105.5,58.148437 h 2.90039 a 6.0488665,6.0488665 0 0 0 4.7793,-2.34375 l 6.90039,-8.90039 a 6.0488665,6.0488665 0 0 0 1.26953,-3.705078 v -9.59961 a 6.0488665,6.0488665 0 0 0 -6.04883,-6.048828 z" />
  <path
     id="path2-9"
     style="fill:#ffb819"
     class="st0"
     sodipodi:type="inkscape:offset"
     inkscape:radius="6.4626145"
     inkscape:original="M 147.16211 34.900391 C 140.84961 34.575391 134.55039 36.800391 130.90039 41.900391 C 120.90039 56.000391 132.29922 63.600781 145.19922 66.800781 C 150.49922 68.100781 157.20039 71.200781 153.90039 76.300781 C 151.10039 80.700781 140.10039 78.599609 131.90039 71.099609 L 126.30078 78.699219 C 131.30078 84.499219 150.89961 96.700391 163.09961 81.900391 C 173.29961 69.600391 160.29961 58.699609 152.09961 57.099609 C 143.89961 55.499609 137.09922 53.800391 139.19922 47.900391 C 140.89922 42.900391 152.99922 43.399219 157.19922 49.699219 L 163.5 43.199219 C 159.8 38.099219 153.47461 35.225391 147.16211 34.900391 z "
     d="m 147.49414,28.447266 c -8.04556,-0.414227 -16.6693,2.453161 -21.84961,9.691406 a 6.4632608,6.4632608 0 0 0 -0.0156,0.02344 c -2.99365,4.221037 -4.76827,8.485166 -4.98243,12.806641 -0.21415,4.321475 1.34272,8.438874 3.7461,11.478516 1.17588,1.487177 2.50856,2.763894 3.9414,3.888671 a 6.4632608,6.4632608 0 0 0 -1.63671,0.929688 l -5.59961,7.599609 a 6.4632608,6.4632608 0 0 0 0.30859,8.052735 c 3.7633,4.365431 10.29333,8.993853 18.89062,11.341797 8.5929,2.346742 20.04268,1.13569 27.77735,-8.234375 l 0.004,-0.0059 c 6.55505,-7.909675 5.97094,-17.910097 1.78516,-24.136719 -2.20966,-3.287014 -4.98407,-5.821679 -8.00586,-7.703125 l 6.2832,-6.482421 a 6.4632608,6.4632608 0 0 0 0.58985,-8.292969 C 163.65226,32.404601 155.53892,28.861452 147.49414,28.447266 Z" />
</g>

	</g>

</g>
  <path
     fill="#003831"
     d="m 50.388621,38.386095 c -6.2,6.7 -8.1,4.1 -9.2,0.9 l -10,-30.2000001 c -0.9,-2.8 -2.6,-5.2 -5.6,-6.1 -4.5,-1.2 -9.3,0.9 -11,8.1000001 1.6,-2.3000001 4.6,-4.3000001 7.3,-2.6000001 2.3,1.4 2.3,2.9000001 1.4,5.7000001 l -0.7,2.1 c -2.8,-3 -8.8,-2.4 -9.5,4.3 1.8,-1.7 8.5,-1.5 6.5,4.4 l -6,17.6 c -4.9999999,0 -9.9999999,2.6 -11.4999999,8.8 1.4,-2.2 11.5999999,-6.6 20.8999999,0.1 l 5.9,-7.2 c -0.4,-0.4 -3.6,-1.1 -6,1.3 -1.3,-1.1 -2.9,-1.9 -4.7,-2.4 l 3.1,-9.1 h 11.4 l 4,12 c 1.6,4.8 5.2,7.5 7.6,3.9 0,0 6.3,-9.5 7.1,-10.6 0.7,-1 -0.8,-1.1 -1,-1 z m -23.3,-21.1 4,12.1 h -8.1 z"
     id="path4" />
  <path
     fill="#003831"
     d="m 39.788621,20.186095 h 1.1 l 2.4,-3.2 v -3.4 h -3.6 v 3.7 h 1.2 z"
     id="path6" />
  <path
     fill="#003831"
     d="m 56.488621,21.986095 c -2.9,-0.6 -5.3,-1.2 -4.6,-3.3 0.6,-1.8 4.9,-1.6 6.4,0.6 l 2.3,-2.3 c -2.6,-3.6 -9,-4.1 -11.6,-0.5 -3.6,5 0.5,7.7 5.1,8.9 1.9,0.5 4.3,1.6 3.1,3.4 -1,1.6 -4.9,0.8 -7.9,-1.9 l -2,2.7 c 1.8,2.1 8.8,6.4 13.1,1.1 3.7,-4.2 -1,-8.1 -3.9,-8.7 z"
     id="path8"
     sodipodi:nodetypes="ssccccccccs" />
  <path
     fill="none"
     d="m 29.588621,28.286095 -2.5,-7.7 -2.6,7.7 z"
     id="path1" />
  <path
     fill="none"
     d="m 31.088621,29.386095 -4,-12.1 -4.1,12.1 z m -1.5,-1.1 h -5.2 l 2.6,-7.7 z"
     id="path2" />
  <path
     fill="none"
     d="m 50.688621,37.286095 c -0.4,0 -0.8,0.1 -1,0.4 -3.1,3.4 -4.7,3.9 -5.4,3.9 -0.6,0 -1.3,-0.3 -2.1,-2.6 l -10,-30.2000001 c -1.2,-3.5 -3.3,-5.8 -6.3,-6.8 -0.9,-0.2 -1.7,-0.3 -2.6,-0.3 -4.7,0 -8.4,3.5 -9.7,9.3000001 -0.1,0.5 0.1,1 0.6,1.2 0.5,0.2 1,0.1 1.3,-0.4 0.9,-1.3 2.6,-2.8000001 4.3,-2.8000001 0.5,0 1.1,0.1 1.6,0.4 1.7,1.0000001 1.8,1.8000001 0.9,4.5000001 l -0.2,0.7 c -1,-0.6 -2.2,-1 -3.5,-1 -2.7,0 -6,1.8 -6.6,6.9 0,0.4 0.2,0.9 0.6,1.1 0.4,0.2 0.9,0.1 1.2,-0.2 0.3,-0.3 1.2,-0.6 2.3,-0.6 1.1,0 2.1,0.4 2.5,1 0.6,0.8 0.3,2 0,2.9 l -5.8,16.9 c -5.9999999,0.3 -10.3999999,3.9 -11.7999999,9.6 -0.1,0.5 0.1,1 0.6,1.2 0.5,0.2 1,0 1.3,-0.4 0.6,-1 4.4,-3 9.0999999,-3 3.7,0 7.2,1.1 10.3,3.4 0.5,0.3 1.1,0.2 1.4,-0.2 l 5.9,-7.2 c 0.3,-0.4 0.3,-1 -0.1,-1.4 -0.5,-0.5 -1.7,-0.7 -2.6,-0.7 -0.9,0 -2.6,0.2 -4.2,1.4 -1,-0.7 -2.1,-1.3 -3.3,-1.7 l 2.5,-7.4 h 9.9 l 3.8,11.3 c 1.3,3.8 3.6,6.3 6,6.3 0.9,0 2.3,-0.4 3.4,-2.1 0,0 6.3,-9.5 7.1,-10.6 0.6,-0.9 0.4,-1.5 0.2,-1.9 -0.2,-0.6 -1,-0.9 -1.6,-0.9 z m 0.7,2.2 c -0.8,1.1 -7.1,10.6 -7.1,10.6 -2.3,3.6 -6,0.9 -7.6,-3.9 l -4,-12 h -11.4 l -3.1,9.1 c 1.8,0.5 3.4,1.4 4.7,2.4 2.4,-2.3 5.6,-1.7 6,-1.3 l -5.8,7.2 c -9.3,-6.7 -19.4999999,-2.4 -20.8999999,-0.1 1.5,-6.3 6.6,-8.8 11.4999999,-8.8 l 6,-17.6 c 2,-5.9 -4.7,-6 -6.5,-4.4 0.7,-6.7 6.7,-7.3 9.5,-4.3 l 0.7,-2.1 c 0.9,-2.8 0.9,-4.3000001 -1.4,-5.7000001 -2.7,-1.6 -5.7,0.3 -7.3,2.6000001 1.7,-7.2000001 6.5,-9.3000001 11,-8.1000001 2.9,0.9 4.6,3.3 5.6,6.1 l 10,30.2000001 c 1.1,3.2 3.1,5.8 9.2,-0.9 0.1,-0.2 1.6,-0.1 0.9,1 z"
     id="path3" />
  <path
     fill="none"
     d="m 41.388621,21.286095 3,-3.9 v -4.8 h -5.7 v 5.8 h 0.8 l -1.1,2.9 z m -1.7,-7.7 h 3.6 v 3.4 l -2.5,3.2 h -1 l 1.1,-2.9 h -1.2 z"
     id="path5" />
  <path
     fill="none"
     d="m 62.488621,25.786095 c -0.9,-2.6 -3.7,-4.4 -5.8,-4.8 -1.2,-0.2 -3.5,-0.7 -3.8,-1.4 0,0 -0.1,-0.2 0,-0.6 0.1,-0.2 0.6,-0.5 1.5,-0.5 1,0 2.4,0.4 3.1,1.4 l 0.7,1.1 3.8,-3.9 -0.5,-0.7 c -1.5,-2.1 -4.2,-3.4 -7.1,-3.4 -2.6,0 -4.9,1.1 -6.2,3 -1.5,2.1 -1.9,4 -1.3,5.8 1,2.7 4.3,4.1 7,4.7 1.6,0.4 2.5,1 2.6,1.3 0,0 0.1,0.2 -0.1,0.5 -0.5,0.7 -3.7,0.3 -6.3,-2.1 l -1,-0.7 -3.2,4.3 0.5,0.6 c 1.4,1.7 5.1,4 8.7,4 2.4,0 4.5,-1 6,-2.9 2,-2.2 1.9,-4.3 1.4,-5.7 z m -2.1,5.1 c -4.3,5.3 -11.3,0.9 -13.1,-1.1 l 2,-2.7 c 2.9,2.7 6.8,3.4 7.9,1.9 1.2,-1.8 -1.2,-2.9 -3.1,-3.4 -4.6,-1.2 -8.7,-3.9 -5.1,-8.9 2.6,-3.7 9,-3.2 11.6,0.5 l -2.3,2.3 c -1.5,-2.3 -5.8,-2.4 -6.4,-0.6 -0.7,2.1 1.7,2.7 4.6,3.3 2.9,0.4 7.6,4.3 3.9,8.7 z"
     id="path7" />
  <metadata
     id="metadata11">
    <rdf:RDF>
      <cc:Work
         rdf:about="">
        <dc:title>Oakland Athletics cap logo</dc:title>
      </cc:Work>
    </rdf:RDF>
  </metadata>
</svg>
