<?xml version="1.0" encoding="UTF-8" standalone="no"?>
<svg
   viewBox="0 0 193.36155 270.11301"
   version="1.1"
   id="svg1"
   sodipodi:docname="DET_5.svg"
   width="193.36156"
   height="270.11301"
   inkscape:version="1.4 (86a8ad7, 2024-10-11)"
   xmlns:inkscape="http://www.inkscape.org/namespaces/inkscape"
   xmlns:sodipodi="http://sodipodi.sourceforge.net/DTD/sodipodi-0.dtd"
   xmlns="http://www.w3.org/2000/svg"
   xmlns:svg="http://www.w3.org/2000/svg"
   xmlns:rdf="http://www.w3.org/1999/02/22-rdf-syntax-ns#"
   xmlns:cc="http://creativecommons.org/ns#"
   xmlns:dc="http://purl.org/dc/elements/1.1/">
  <defs
     id="defs1" />
  <sodipodi:namedview
     id="namedview1"
     pagecolor="#ffffff"
     bordercolor="#000000"
     borderopacity="0.25"
     inkscape:showpageshadow="2"
     inkscape:pageopacity="0.0"
     inkscape:pagecheckerboard="0"
     inkscape:deskcolor="#d1d1d1"
     inkscape:zoom="3.3819227"
     inkscape:cx="51.006488"
     inkscape:cy="148.87981"
     inkscape:window-width="3440"
     inkscape:window-height="1377"
     inkscape:window-x="-8"
     inkscape:window-y="-8"
     inkscape:window-maximized="1"
     inkscape:current-layer="svg1" />
  <title
     id="title1">Detroit Tigers light logo</title>
  <g
     fill="#FFF"
     id="g4"
     style="fill:#ff0000"
     transform="translate(12.402783,12.407893)">
    <path
       id="path4"
       style="fill:#ffffff"
       sodipodi:type="inkscape:offset"
       inkscape:radius="8.0327549"
       inkscape:original="M 1.1425781 -4.3691406 C 0.15064072 -4.4112736 -1.326404 -4.1819741 -2.546875 -3.1386719 C -3.767346 -2.0953696 -4.2689521 -0.56293132 -4.3535156 0.51953125 C -4.5226426 2.6844564 -3.9017109 4.0075592 -3.0917969 5.7734375 A 4.3752043 4.3752043 0 0 0 -3.0878906 5.78125 C 6.3982707 26.360653 24.904644 39.787379 45.921875 46.853516 C 41.915349 50.438122 38.254244 53.903647 35.376953 57.625 C 31.750801 62.314895 29.251747 67.689902 27.976562 74.128906 C 22.54051 75.099924 17.307518 77.28472 12.765625 80.175781 C 7.2799929 83.667563 2.7449206 88.014801 0.26757812 92.974609 C -1.0324303 95.575113 -1.772561 97.822838 -1.6503906 100.24219 C -1.5281813 102.66231 0.13810187 105.32743 2.28125 106.33398 C 6.5675463 108.3471 10.137973 106.62216 13.214844 104.50586 L 13.203125 104.51562 C 16.705225 102.1244 21.929936 100.71827 26.945312 100.32031 L 26.945312 103.14844 C 15.29192 105.39968 5.1942062 113.25889 0.86914062 121.91797 C -0.43114989 124.51904 -1.1714481 126.76781 -1.0488281 129.1875 C -0.92616914 131.60796 0.73806618 134.27375 2.8828125 135.28125 C 7.1723051 137.29625 10.752717 135.56609 13.832031 133.43164 L 13.804688 133.45117 C 17.480528 130.94433 22.279809 129.26912 26.947266 128.73047 L 26.947266 157.58594 C 26.947266 169.27215 21.651349 174.21665 17.925781 177.66992 L 17.949219 177.65039 C 16.545343 178.93404 15.463648 180.3896 14.900391 182.16797 C 14.337133 183.94634 14.421142 186.25254 15.658203 188.05859 C 16.447721 189.21126 17.58845 189.87962 18.785156 190.34375 C 7.9905539 199.00652 1.8765671 211.02378 -1.1992188 221.76562 C -2.7642097 227.23118 -3.5547751 232.3798 -3.7421875 236.74219 C -3.9294517 241.10113 -3.7655514 244.47994 -2.3144531 247.53906 C -2.0350325 248.12277 -0.13392294 249.67138 -0.1328125 249.67188 C -0.13170005 249.67237 3.4204222 249.67252 3.421875 249.67188 C 3.4233278 249.67123 4.4949533 249.00846 4.7265625 248.7793 C 4.9581717 248.55014 5.0806104 248.38877 5.1757812 248.25977 C 5.5564648 247.74376 5.5677541 247.63272 5.6308594 247.50195 C 5.7570699 247.24042 5.8000093 247.12305 5.8632812 246.9668 C 5.9898252 246.65429 6.1292734 246.28981 6.3183594 245.81445 C 6.6965314 244.86375 7.2513436 243.50644 8.0136719 241.84766 C 9.5383285 238.53009 11.890656 234.02632 15.189453 229.44141 C 21.786477 220.27236 31.906349 210.95946 47.105469 209.15625 C 65.218593 207.022 87.845833 212.44754 107.23438 229.23242 A 4.3752043 4.3752043 0 0 0 113.84961 228.17578 C 125.633 208.52739 145.49233 197.25921 169.31641 193.19922 A 4.3752043 4.3752043 0 0 0 171.87109 186.00195 C 163.69016 176.67385 162.4768 174.52976 162.21094 164.33789 L 162.21094 66.792969 C 162.7487 59.235089 163.67943 58.592767 169.56445 53.087891 A 4.3752043 4.3752043 0 0 0 168.11523 45.796875 C 156.35855 41.376815 140.96984 26.097415 133.10938 10.335938 A 4.3752043 4.3752043 0 0 0 127.19531 8.3984375 C 86.575581 29.27201 42.317841 29.220248 8.5683594 -0.53320312 A 4.3752043 4.3752043 0 0 0 8.5605469 -0.54101562 C 7.5145815 -1.4581734 6.4343379 -2.2749704 5.3007812 -2.9472656 C 4.1672246 -3.6195609 3.1275523 -4.2848279 1.1425781 -4.3691406 z M 117.74805 47.636719 L 126.5918 56.466797 L 126.5918 80.408203 C 115.42314 83.027437 100.65499 82.879138 90.59375 80.109375 L 90.59375 79.726562 C 90.59375 70.035544 91.67133 58.85066 97.904297 51.962891 C 104.74594 51.110254 111.39635 49.666866 117.74805 47.636719 z M 69.857422 52.132812 C 71.474679 52.309451 73.093642 52.460796 74.714844 52.574219 C 72.372822 54.935166 70.215061 57.400278 68.333984 60.019531 C 66.891407 59.616791 65.431355 59.161411 64.017578 58.871094 C 65.747309 56.393859 67.683008 54.130349 69.857422 52.132812 z M 60.025391 75.107422 C 60.61344 75.167824 61.106094 75.369255 61.673828 75.466797 C 61.287028 77.591615 61.028102 79.802347 61.042969 82.179688 L 60.966797 140.20508 C 59.563795 140.30548 58.219125 140.32777 56.59375 140.29883 L 56.59375 79.726562 C 56.59375 78.28197 56.778101 76.724462 57.050781 75.126953 C 58.045725 75.123027 59.0663 75.008907 60.025391 75.107422 z M 126.5918 99.490234 L 126.5918 117.25195 C 115.03586 114.80095 101.64285 114.62511 90.59375 117.23828 L 90.59375 99.503906 C 101.63771 102.10397 115.03187 101.94015 126.5918 99.490234 z M 108.13672 134.21289 C 114.60357 134.15314 121.00617 134.9785 126.5957 136.31445 L 126.5957 172.15625 C 118.85573 174.95809 110.59085 179.92144 102.86328 186.25977 C 93.922987 182.11588 85.054251 179.2766 76.449219 177.77734 C 84.487456 169.64752 90.595703 158.21979 90.595703 144.17773 L 90.595703 136.62305 C 95.625712 135.21374 101.6887 134.27247 108.13672 134.21289 z M 55.005859 157.5957 C 57.034686 157.73308 58.964023 157.76699 60.957031 157.69141 C 60.92496 168.601 56.290082 173.54752 52.636719 176.96289 C 49.422654 177.31763 46.286533 177.85725 43.240234 178.60352 C 48.586348 173.12228 52.855084 166.09373 55.005859 157.5957 z "
       d="m 1.484375,-12.394531 c -2.5643033,-0.10892 -6.0382322,0.404857 -9.25,3.1503904 -3.347272,2.8613677 -4.364887,6.1840842 -4.595703,9.13867185 -0.307819,3.94026635 1.173559,7.49473785 1.96875,9.22851565 a 8.0335582,8.0335582 0 0 0 0.0098,0.021484 c 0.0016,0.0035 0.0042,0.00627 0.0059,0.00977 8.7277224,18.9265471 24.263378,32.1865741 42.076172,40.5449221 -0.893472,1.002853 -1.847448,1.937865 -2.677735,3.011718 -3.340785,4.320815 -5.910789,9.267026 -7.611328,14.75 -4.65857,1.386222 -9.024594,3.434378 -12.957031,5.9375 -6.3416023,4.036635 -11.9810562,9.199243 -15.3710937,15.986329 -1.5822276,3.165378 -2.973045,6.960772 -2.7558594,11.261714 0.2613158,5.17486 2.5097355,9.24748 6.9667968,11.96094 -1.358493,1.82947 -2.6094857,3.71886 -3.6093749,5.72071 -1.5827088,3.16634 -2.9719314,6.96328 -2.7539063,11.26562 0.2934458,5.79064 2.9042964,10.31296 8.53710938,12.95898 3.72402552,1.74937 7.94885382,1.97734 11.26562512,1.16016 3.268791,-0.80536 5.689272,-2.31526 7.580078,-3.62109 a 8.0335582,8.0335582 0 0 0 0.01758,-0.004 c 0.157674,-0.10753 0.414327,-0.18193 0.583984,-0.28711 v 17.78516 c 0,9.25937 -2.743868,10.75883 -6.449218,14.19336 a 8.0335582,8.0335582 0 0 0 -0.01758,0.0351 c -2.089895,1.93147 -4.1433122,4.57543 -5.2050785,7.92774 -0.9762951,3.08245 -1.0643667,6.63008 0.3632812,10.10351 -8.59908744,9.10816 -13.7292092,19.93681 -16.5273437,29.70899 -1.735415,6.06074 -2.628346,11.78238 -2.845703,16.84179 -0.203531,4.73759 -0.137,9.6691 2.1953124,14.58594 a 8.0335582,8.0335582 0 0 0 0.011719,0.0254 c 1.0042922,2.09797 1.4621176,2.20609 1.9023438,2.66602 0.4402262,0.45992 0.8157272,0.80466 1.1601562,1.11523 0.344429,0.31058 0.6483062,0.57279 0.8789063,0.76758 0.1153,0.0974 0.213134,0.17872 0.2851562,0.23828 0.036011,0.0298 0.065524,0.0543 0.089844,0.0742 0.01216,0.01 0.021515,0.0178 0.033203,0.0273 8.571e-4,7e-4 0.00305,0.001 0.00391,0.002 a 8.0335582,8.0335582 0 0 0 1.8359374,1.125 c 0,0 3.19176178,0.68158 3.20507818,0.68164 0.0133164,6e-5 0.0190837,-2e-5 0.0253906,0 0.0126139,3e-5 0.0245446,-2e-5 0.0390625,0 0.02903591,3e-5 0.06781195,-3e-5 0.1171875,0 0.0987511,5e-5 0.23923212,-4e-5 0.40625,0 0.33403576,7e-5 0.7780549,-1e-5 1.2226562,0 0.4446014,10e-6 0.8883773,7e-5 1.2226563,0 0.1671395,-4e-5 0.3070259,6e-5 0.40625,0 0.049612,-3e-5 0.089195,4e-5 0.1191406,0 0.00998,-1e-5 0.018429,2e-5 0.027344,0 a 8.0335582,8.0335582 0 0 0 3.2832031,-0.70117 c 0,0 0.9011149,-0.47255 0.9140625,-0.48047 0.012948,-0.008 0.01641,-0.0125 0.021484,-0.0156 0.010148,-0.006 0.017591,-0.009 0.025391,-0.0137 0.0156,-0.01 0.033794,-0.0221 0.054687,-0.0352 0.041786,-0.026 0.096148,-0.0599 0.1621094,-0.10156 0.1319225,-0.0832 0.3059447,-0.19337 0.5058594,-0.32422 0.3998292,-0.26169 0.2236322,0.20496 1.9902342,-1.54297 0.565703,-0.55972 1.114453,-1.25867 1.263672,-1.46093 0.662007,-0.89734 1.769355,-3.16405 1.224609,-2.03516 v -0.002 c 0.224687,-0.46587 0.430818,-0.9788 0.44336,-1.00977 0.171521,-0.42358 0.305413,-0.77386 0.474609,-1.19922 0.351393,-0.88337 0.843734,-2.09028 1.529297,-3.58203 1.367425,-2.97544 3.496859,-7.03825 6.396484,-11.06836 5.827215,-8.09911 13.940406,-15.52458 26.335938,-16.99804 15.769777,-1.85814 36.23366,2.84858 53.931638,18.16992 5.45308,4.72077 15.05054,3.18847 18.76172,-2.9961 a 8.0335582,8.0335582 0 0 0 0,-0.002 c 10.43265,-17.39607 27.8013,-27.41877 49.92774,-31.18945 4.32538,-0.73732 8.13969,-3.94507 9.60742,-8.08008 1.46773,-4.13501 0.53124,-9.03074 -2.36133,-12.33008 a 8.0335582,8.0335582 0 0 0 -0.002,-0.002 c -4.01911,-4.58268 -5.81454,-6.97953 -6.53125,-8.54883 -0.7127,-1.56049 -1.00854,-3.23824 -1.13477,-7.96875 V 67.21875 c 0.23811,-3.152357 0.47876,-3.828714 0.5957,-4.03125 0.12114,-0.209799 1.22993,-1.442141 4.21289,-4.232422 h -0.002 c 3.06635,-2.867678 4.5138,-7.36464 3.69531,-11.482422 -0.81848,-4.117782 -3.87475,-7.71827 -7.80468,-9.195312 -8.21015,-3.086701 -23.72744,-17.655508 -30.64454,-31.5253909 a 8.0335582,8.0335582 0 0 0 0,-0.00391 C 137.37374,0.89219436 129.34489,-1.7371426 123.52344,1.2539062 85.018248,21.040864 45.020707,20.894211 13.880859,-6.5585937 a 8.0335582,8.0335582 0 0 0 -0.02344,-0.021484 C 12.527633,-7.7461073 11.06141,-8.8691852 9.3984375,-9.8554688 8.4111309,-10.441025 5.140479,-12.239237 1.484375,-12.394531 Z m 113.859375,68.980468 3.21484,3.210938 v 13.755859 c -6.45054,0.759637 -13.5966,0.733944 -19.650387,-0.05664 0.489927,-5.742573 1.760537,-10.829185 3.791017,-14.210938 4.29613,-0.67251 8.50893,-1.577746 12.64453,-2.699219 z m -7.13281,85.660153 c 3.51642,-0.0325 6.98847,0.30663 10.35156,0.79297 v 23.80274 c -5.76641,2.64073 -11.47216,6.15156 -16.98633,10.30078 -3.742813,-1.56088 -7.485247,-3.09126 -11.214842,-4.22656 4.95814,-8.03525 8.267578,-17.71934 8.267578,-28.73829 v -1.0332 c 3.010914,-0.50027 6.196924,-0.86716 9.582034,-0.89844 z" />
    <path
       d="M 157.836,164.452 V 66.587 c 0.583,-8.34 2.687,-11.033 8.74,-16.695 C 153.056,44.809 137.533,29.007 129.196,12.29 87.402,33.767 40.86,33.767 5.675,2.748 2.167,-0.328 -1.8,-1.902 0.884,3.95 10.836,25.54 31.48,38.97 54.67,44.933 41.323,56.497 33.457,63.333 31.7,77.983 20.296,78.823 8.05,87.186 4.182,94.93 c -4.42,8.84 2.124,9.02 6.554,5.973 5.662,-3.866 13.73,-5.36 20.585,-5.07 v 11.084 c -11.424,0.85 -22.668,9.21 -26.537,16.956 -4.42,8.84 2.126,9.033 6.555,5.963 5.66,-3.86 13.128,-5.963 19.983,-5.66 v 33.41 c 0,13.14 -6.55,19.704 -10.422,23.293 -3.9,3.566 -1.744,7.302 3.87,5.058 11.803,-4.7 24.072,-15.913 26.855,-32.953 4.493,0.592 9.903,0.662 13.712,0.032 v 4.57 c 0,13.138 -6.554,19.703 -10.444,23.292 -0.06,0.047 -0.1,0.097 -0.147,0.177 -12.54,1.092 -23.784,5.32 -32.722,12.267 C 1.638,209.21 -1.51,239.044 1.638,245.67 c 0.198,0.42 11.484,-36.89 44.956,-40.858 19.384,-2.284 43.196,3.534 63.503,21.114 12.525,-20.885 33.723,-32.82 58.486,-37.04 -8.358,-9.53 -10.466,-13.7 -10.746,-24.434 z m -26.87,-109.8 v 29.324 c -13.378,4.028 -32.698,3.9 -44.747,-0.43 v -3.82 c 0,-10.36 0.884,-23.53 9.42,-31.82 8.16,-0.9 16.078,-2.583 23.393,-5.17 l 11.934,11.917 z M 86.22,93.7 c 12.047,4.3 31.368,4.46 44.747,0.42 v 28.503 c -13.38,-4.038 -32.7,-3.898 -44.748,0.43 V 93.7 Z M 85.418,48.55 c -6.273,5.484 -11.665,10.584 -15.27,16.486 -4.77,-1.552 -9.16,-2.505 -13.43,-2.746 2.773,-5.532 6.713,-10.712 11.466,-14.7 5.72,0.73 11.503,1.042 17.234,0.96 z m -33.2,95.98 V 79.727 c 0,-2.853 0.45,-5.873 1.27,-8.928 4.723,-0.532 9.42,-0.042 13.45,1.374 -0.96,3.047 -1.543,6.302 -1.52,9.98 l -0.082,61.997 c -3.347,0.722 -8.51,0.82 -13.12,0.38 z m 51.303,46.785 C 90.56,184.928 77.803,181.6 65.88,180.9 76.582,173.713 86.22,161.024 86.22,144.177 v -10.973 c 12.05,-4.34 31.37,-4.49 44.75,-0.442 v 42.425 c -8.348,2.405 -18.49,8.378 -27.447,16.126 z"
       id="path3"
       style="fill:#ff0000"
       sodipodi:nodetypes="cccccccccccccccsccccsccccccccccccsccccccccccccccccsccccccccsccccc" />
  </g>
  <g
     fill="#FFF"
     id="g1"
     style="fill:#002255"
     transform="translate(12.402783,12.407893)">
    <path
       d="M 157.836,164.452 V 66.587 c 0.583,-8.34 2.687,-11.033 8.74,-16.695 C 153.056,44.809 137.533,29.007 129.196,12.29 87.402,33.767 40.86,33.767 5.675,2.748 2.167,-0.328 -1.8,-1.902 0.884,3.95 10.836,25.54 31.48,38.97 54.67,44.933 41.323,56.497 33.457,63.333 31.7,77.983 20.296,78.823 8.05,87.186 4.182,94.93 c -4.42,8.84 2.124,9.02 6.554,5.973 5.662,-3.866 13.73,-5.36 20.585,-5.07 v 11.084 c -11.424,0.85 -22.668,9.21 -26.537,16.956 -4.42,8.84 2.126,9.033 6.555,5.963 5.66,-3.86 13.128,-5.963 19.983,-5.66 v 33.41 c 0,13.14 -6.55,19.704 -10.422,23.293 -3.9,3.566 -1.744,7.302 3.87,5.058 11.803,-4.7 24.072,-15.913 26.855,-32.953 4.493,0.592 9.903,0.662 13.712,0.032 v 4.57 c 0,13.138 -6.554,19.703 -10.444,23.292 -0.06,0.047 -0.1,0.097 -0.147,0.177 -12.54,1.092 -23.784,5.32 -32.722,12.267 C 1.638,209.21 -1.51,239.044 1.638,245.67 c 0.198,0.42 11.484,-36.89 44.956,-40.858 19.384,-2.284 43.196,3.534 63.503,21.114 12.525,-20.885 33.723,-32.82 58.486,-37.04 -8.358,-9.53 -10.466,-13.7 -10.746,-24.434 z m -26.87,-109.8 v 29.324 c -13.378,4.028 -32.698,3.9 -44.747,-0.43 v -3.82 c 0,-10.36 0.884,-23.53 9.42,-31.82 8.16,-0.9 16.078,-2.583 23.393,-5.17 l 11.934,11.917 z M 86.22,93.7 c 12.047,4.3 31.368,4.46 44.747,0.42 v 28.503 c -13.38,-4.038 -32.7,-3.898 -44.748,0.43 V 93.7 Z M 85.418,48.55 c -6.273,5.484 -11.665,10.584 -15.27,16.486 -4.77,-1.552 -9.16,-2.505 -13.43,-2.746 2.773,-5.532 6.713,-10.712 11.466,-14.7 5.72,0.73 11.503,1.042 17.234,0.96 z m -33.2,95.98 V 79.727 c 0,-2.853 0.45,-5.873 1.27,-8.928 4.723,-0.532 9.42,-0.042 13.45,1.374 -0.96,3.047 -1.543,6.302 -1.52,9.98 l -0.082,61.997 c -3.347,0.722 -8.51,0.82 -13.12,0.38 z m 51.303,46.785 C 90.56,184.928 77.803,181.6 65.88,180.9 76.582,173.713 86.22,161.024 86.22,144.177 v -10.973 c 12.05,-4.34 31.37,-4.49 44.75,-0.442 v 42.425 c -8.348,2.405 -18.49,8.378 -27.447,16.126 z"
       id="path1"
       style="fill:#002255"
       sodipodi:nodetypes="cccccccccccccccsccccsccccccccccccsccccccccccccccccsccccccccsccccc" />
    <path
       d="M 157.836,164.452 V 66.587 c 0.583,-8.34 2.687,-11.033 8.74,-16.695 C 153.056,44.809 137.533,29.007 129.196,12.29 87.402,33.767 40.86,33.767 5.675,2.748 2.167,-0.328 -1.8,-1.902 0.884,3.95 10.836,25.54 31.48,38.97 54.67,44.933 41.323,56.497 33.457,63.333 31.7,77.983 20.296,78.823 8.05,87.186 4.182,94.93 c -4.42,8.84 2.124,9.02 6.554,5.973 5.662,-3.866 13.73,-5.36 20.585,-5.07 v 11.084 c -11.424,0.85 -22.668,9.21 -26.537,16.956 -4.42,8.84 2.126,9.033 6.555,5.963 5.66,-3.86 13.128,-5.963 19.983,-5.66 v 33.41 c 0,13.14 -6.55,19.704 -10.422,23.293 -3.9,3.566 -1.744,7.302 3.87,5.058 11.803,-4.7 24.072,-15.913 26.855,-32.953 4.493,0.592 9.903,0.662 13.712,0.032 v 4.57 c 0,13.138 -6.554,19.703 -10.444,23.292 -0.06,0.047 -0.1,0.097 -0.147,0.177 -12.54,1.092 -23.784,5.32 -32.722,12.267 C 1.638,209.21 -1.51,239.044 1.638,245.67 c 0.198,0.42 11.484,-36.89 44.956,-40.858 19.384,-2.284 43.196,3.534 63.503,21.114 12.525,-20.885 33.723,-32.82 58.486,-37.04 -8.358,-9.53 -10.466,-13.7 -10.746,-24.434 z m -26.87,-109.8 v 29.324 c -13.378,4.028 -32.698,3.9 -44.747,-0.43 v -3.82 c 0,-10.36 0.884,-23.53 9.42,-31.82 8.16,-0.9 16.078,-2.583 23.393,-5.17 l 11.934,11.917 z M 86.22,93.7 c 12.047,4.3 31.368,4.46 44.747,0.42 v 28.503 c -13.38,-4.038 -32.7,-3.898 -44.748,0.43 V 93.7 Z M 85.418,48.55 c -6.273,5.484 -11.665,10.584 -15.27,16.486 -4.77,-1.552 -9.16,-2.505 -13.43,-2.746 2.773,-5.532 6.713,-10.712 11.466,-14.7 5.72,0.73 11.503,1.042 17.234,0.96 z m -33.2,95.98 V 79.727 c 0,-2.853 0.45,-5.873 1.27,-8.928 4.723,-0.532 9.42,-0.042 13.45,1.374 -0.96,3.047 -1.543,6.302 -1.52,9.98 l -0.082,61.997 c -3.347,0.722 -8.51,0.82 -13.12,0.38 z m 51.303,46.785 C 90.56,184.928 77.803,181.6 65.88,180.9 76.582,173.713 86.22,161.024 86.22,144.177 v -10.973 c 12.05,-4.34 31.37,-4.49 44.75,-0.442 v 42.425 c -8.348,2.405 -18.49,8.378 -27.447,16.126 z"
       id="path2"
       style="fill:#002255"
       sodipodi:nodetypes="cccccccccccccccsccccsccccccccccccsccccccccccccccccsccccccccsccccc" />
  </g>
  <metadata
     id="metadata4">
    <rdf:RDF>
      <cc:Work
         rdf:about="">
        <dc:title>Detroit Tigers light logo</dc:title>
      </cc:Work>
    </rdf:RDF>
  </metadata>
</svg>
