<?xml version="1.0" encoding="UTF-8" standalone="no"?>
<svg
   viewBox="0 0 142.942 142.93401"
   version="1.1"
   id="svg13"
   sodipodi:docname="HOU.svg"
   width="142.942"
   height="142.93401"
   inkscape:version="1.4 (86a8ad7, 2024-10-11)"
   xmlns:inkscape="http://www.inkscape.org/namespaces/inkscape"
   xmlns:sodipodi="http://sodipodi.sourceforge.net/DTD/sodipodi-0.dtd"
   xmlns:xlink="http://www.w3.org/1999/xlink"
   xmlns="http://www.w3.org/2000/svg"
   xmlns:svg="http://www.w3.org/2000/svg"
   xmlns:rdf="http://www.w3.org/1999/02/22-rdf-syntax-ns#"
   xmlns:cc="http://creativecommons.org/ns#"
   xmlns:dc="http://purl.org/dc/elements/1.1/">
  <sodipodi:namedview
     id="namedview13"
     pagecolor="#ffffff"
     bordercolor="#000000"
     borderopacity="0.25"
     inkscape:showpageshadow="2"
     inkscape:pageopacity="0.0"
     inkscape:pagecheckerboard="0"
     inkscape:deskcolor="#d1d1d1"
     inkscape:zoom="3.5571036"
     inkscape:cx="49.900149"
     inkscape:cy="87.571247"
     inkscape:window-width="1643"
     inkscape:window-height="1211"
     inkscape:window-x="1207"
     inkscape:window-y="37"
     inkscape:window-maximized="0"
     inkscape:current-layer="svg13" />
  <title
     id="title1">Houston Astros primary dark logo</title>
  <defs
     id="defs1">
    <path
       id="a"
       d="M 0,0 H 233.108 V 233.575 H 0 Z" />
  </defs>
  <clipPath
     id="b">
    <use
       xlink:href="#a"
       overflow="visible"
       id="use1" />
  </clipPath>
  <path
     d="m 223.538,116.788 c 0,-6.47 -0.573,-12.8 -1.684,-18.946 1.11,6.146 1.684,12.487 1.684,18.957 v -0.012 z"
     clip-path="url(#b)"
     fill="#ffffff"
     id="path1"
     transform="translate(-45.074,-45.315)" />
  <path
     d="M 154.228,94.817 H 179.45 C 170.492,69.165 146.295,50.692 117.715,50.199 l 10.766,33.16 h 25.748 V 94.816 Z M 78.88,155.184 v -11.447 l 9.038,-3.24 -2.097,0.73 2.098,-0.73 V 122.152 L 52.999,96.768 c -1.99,6.34 -3.068,13.035 -3.068,20.03 0,21.746 10.428,41.035 26.558,53.2 l 4.8,-14.814 h -2.41 z m 0,-71.824 h 25.742 L 115.404,50.2 C 86.818,50.68 62.621,69.165 53.652,94.817 H 78.88 Z m 42.6,63.198 -4.93,-3.593 -4.934,3.593 v 8.626 H 99.76 L 77.93,171.04 c 10.878,7.79 24.213,12.37 38.62,12.37 14.41,0 27.738,-4.59 38.632,-12.37 L 133.346,155.184 H 121.48 Z M 180.11,96.8 145.212,122.174 v 18.324 l 9.017,3.24 v 11.447 h -2.415 L 156.632,170 c 16.12,-12.166 26.552,-31.465 26.552,-53.2 0,-6.986 -1.084,-13.69 -3.073,-20"
     clip-path="url(#b)"
     fill="#002d62"
     id="path6"
     transform="translate(-45.074,-45.315)" />
  <path
     d="m 116.55,188.238 c -39.467,0 -71.475,-31.97 -71.475,-71.44 0,-39.48 32.008,-71.482 71.476,-71.482 39.476,0 71.473,32.002 71.473,71.483 0,39.467 -31.997,71.438 -71.472,71.438"
     clip-path="url(#b)"
     fill="#002d62"
     id="path7"
     transform="translate(-45.074,-45.315)" />
  <path
     d="m 116.546,45.316 c -39.475,0 -71.472,32.002 -71.472,71.483 0,39.467 31.997,71.45 71.472,71.45 39.485,0 71.47,-31.983 71.47,-71.45 0,-39.48 -31.985,-71.484 -71.47,-71.484 M 156.632,170 151.815,155.185 h -18.468 l 21.842,15.857 c -10.9,7.788 -24.23,12.37 -38.643,12.37 -14.398,0 -27.738,-4.582 -38.622,-12.37 L 99.767,155.185 H 88.282 L 75.585,172.758 76.481,170 c -16.124,-12.166 -26.55,-31.454 -26.55,-53.2 0,-6.986 1.07,-13.7 3.067,-20.02 l 34.92,25.393 v -4.42 L 61.253,98.357 50.267,94.817 h 3.385 c 8.97,-25.653 33.166,-44.137 61.752,-44.62 l 1.143,-3.55 v 65.29 H 130.52 V 98.046 l -9.038,-3.23 V 83.36 h 7.006 L 117.706,50.2 c 28.59,0.492 52.783,18.966 61.736,44.617 h 3.406 l -10.975,3.55 h -26.66 v 23.786 l 34.9,-25.352 c 1.99,6.31 3.067,13.015 3.067,20 0,21.734 -10.43,41.034 -26.548,53.2"
     clip-path="url(#b)"
     fill="#eb6e1f"
     id="path8"
     transform="translate(-45.074,-45.315)" />
  <path
     clip-path="url(#b)"
     fill="#eb6e1f"
     d="m 130.52,140.497 v -13.893 h -21.597 l -6.335,8.776 v 5.117 l 9.022,3.24 v 2.82 l 4.94,-3.592 4.93,3.593 v -2.82"
     id="path9"
     transform="translate(-45.074,-45.315)" />
  <path
     clip-path="url(#b)"
     fill="#f4911e"
     d="m 145.21,98.045 v 0.322 h 26.662 l 10.974,-3.55 H 154.235 M 111.616,83.36 v 11.457 l -9.028,3.228 v 13.883 h 13.963 V 46.646 l -1.146,3.552 -10.783,33.16 m -2.034,52.022 6.33,-8.765 h -6.33 m -16.768,14.623 2.098,-0.74 -2.098,0.73 M 76.487,170 l -0.906,2.757 12.708,-17.573 h -6.99 M 78.88,94.817 H 50.26 l 10.98,3.54 26.676,19.397 v -19.71"
     id="path10"
     transform="translate(-45.074,-45.315)" />
  <path
     clip-path="url(#b)"
     fill="#ffffff"
     d="m 78.88,143.737 v 11.447 l 2.9,-2.93 h 26.92 v -6.49 l 2.918,-2.027 -9.028,-3.24 -2.918,2.038 v -18.85 h 33.768 l -2.92,2.92 v 13.892 l -9.03,3.24 v 11.447 l 2.916,-2.93 h 26.912 v -6.49 l 2.912,-2.027 -9.022,-3.24 -2.923,2.038 v -46.55 l 9.033,-3.24 v -6.47 l 2.912,-2.916 h -32.742 v 11.457 l 2.916,-2.07 9.034,3.238 -2.92,2.06 v 13.883 h -27.93 l -2.918,2.918 v -18.86 l 9.028,-3.24 v -6.47 l 2.918,-2.917 H 78.88 v 11.457 l 2.9,-2.07 9.044,3.238 -2.906,2.06 v 42.452"
     id="path11"
     transform="translate(-45.074,-45.315)" />
  <path
     clip-path="url(#b)"
     fill="#e7e9ea"
     d="M 154.228,94.817 V 83.36 l -2.912,2.927 v 6.46 l -9.033,3.238 v 46.55 l 2.928,-2.038 V 98.045 m 9.017,45.692 -2.912,2.028 v 6.49 h -26.912 l -2.923,2.93 h 32.748 m -51.641,-28.57 h 27.93 l 2.92,-2.93 H 99.67 v 18.86 l 2.918,-2.048 v -5.117 m 9.028,11.178 v -2.82 l -2.912,2.027 v 6.49 H 81.78 l -2.906,2.93 h 32.742 m -20.792,-59.2 -9.043,-3.24 -2.896,2.072 9.034,3.228 m 36.485,-5.299 -2.923,2.07 9.034,3.23 2.924,-2.06 M 111.616,94.817 V 83.36 l -2.912,2.927 v 6.46 l -9.034,3.238 v 18.86 l 2.918,-2.906 V 98.044"
     id="path12"
     transform="translate(-45.074,-45.315)" />
  <metadata
     id="metadata13">
    <rdf:RDF>
      <cc:Work
         rdf:about="">
        <dc:title>Houston Astros primary dark logo</dc:title>
      </cc:Work>
    </rdf:RDF>
  </metadata>
</svg>
