<?xml version="1.0" encoding="UTF-8" standalone="no"?>
<svg
   viewBox="0 0 144.18554 200.35159"
   version="1.1"
   id="svg2"
   sodipodi:docname="LAD_6.svg"
   width="144.18555"
   height="200.35159"
   inkscape:version="1.4 (86a8ad7, 2024-10-11)"
   xmlns:inkscape="http://www.inkscape.org/namespaces/inkscape"
   xmlns:sodipodi="http://sodipodi.sourceforge.net/DTD/sodipodi-0.dtd"
   xmlns="http://www.w3.org/2000/svg"
   xmlns:svg="http://www.w3.org/2000/svg"
   xmlns:rdf="http://www.w3.org/1999/02/22-rdf-syntax-ns#"
   xmlns:cc="http://creativecommons.org/ns#"
   xmlns:dc="http://purl.org/dc/elements/1.1/">
  <defs
     id="defs2" />
  <sodipodi:namedview
     id="namedview2"
     pagecolor="#ffffff"
     bordercolor="#000000"
     borderopacity="0.25"
     inkscape:showpageshadow="2"
     inkscape:pageopacity="0.0"
     inkscape:pagecheckerboard="0"
     inkscape:deskcolor="#d1d1d1"
     inkscape:zoom="4.4751182"
     inkscape:cx="38.546468"
     inkscape:cy="102.23194"
     inkscape:window-width="3440"
     inkscape:window-height="1377"
     inkscape:window-x="-8"
     inkscape:window-y="-8"
     inkscape:window-maximized="1"
     inkscape:current-layer="svg2" />
  <title
     id="title1">Los Angeles Dodgers hat dark logo</title>
  <g
     fill="#005a9c"
     id="g2"
     transform="translate(7.3457032,7.345716)">
    <path
       id="path2"
       style="fill:#ffffff"
       sodipodi:type="inkscape:offset"
       inkscape:radius="0"
       inkscape:original="M 46.314453 -7.3457031 L 0.703125 -7.2285156 C -3.1364204 -7.2185011 -6.6238683 -3.7243239 -6.625 0.11523438 A 3.9651224 3.9651224 0 0 0 -6.625 0.1171875 L -6.625 17.996094 A 3.9651224 3.9651224 0 0 0 -6.625 17.998047 C -6.6238533 21.843254 -3.1264569 25.340651 0.71875 25.341797 A 3.9651224 3.9651224 0 0 0 0.72070312 25.341797 L 6.5878906 25.341797 L 6.5878906 115.17383 L 0 115.17383 A 3.9651224 3.9651224 0 0 0 -0.001953125 115.17383 C -3.8471608 115.17497 -7.3445575 118.67237 -7.3457031 122.51758 A 3.9651224 3.9651224 0 0 0 -7.3457031 122.51953 L -7.3457031 140.68164 A 3.9651224 3.9651224 0 0 0 -7.3457031 140.68359 C -7.3445575 144.5288 -3.8471608 148.0262 -0.001953125 148.02734 A 3.9651224 3.9651224 0 0 0 0 148.02734 L 24.800781 148.02734 C 23.823159 152.11132 22.898806 155.97729 22.128906 159.21094 L 14.0625 159.21094 A 3.9651224 3.9651224 0 0 0 14.060547 159.21094 C 10.215339 159.21208 6.7179425 162.70948 6.7167969 166.55469 A 3.9651224 3.9651224 0 0 0 6.7167969 166.55664 L 6.7167969 185.66016 A 3.9651224 3.9651224 0 0 0 6.7167969 185.66211 C 6.7179399 189.51156 10.22477 193.01138 14.074219 193.00586 A 3.9651224 3.9651224 0 0 0 14.076172 193.00586 L 61.433594 192.91016 C 65.274556 192.90236 68.764488 189.40738 68.765625 185.56641 A 3.9651224 3.9651224 0 0 0 68.765625 185.56445 L 68.765625 166.55664 A 3.9651224 3.9651224 0 0 0 68.765625 166.55469 C 68.764479 162.70948 65.267082 159.21208 61.421875 159.21094 A 3.9651224 3.9651224 0 0 0 61.419922 159.21094 L 57.294922 159.21094 C 57.60743 157.83874 57.823298 156.88088 58.265625 154.94922 C 59.014128 151.68048 59.401909 149.97542 59.845703 148.02734 L 80.804688 148.02734 C 81.531589 151.18919 82.420602 155.07404 83.365234 159.21094 L 79.240234 159.21094 A 3.9651224 3.9651224 0 0 0 79.238281 159.21094 C 75.393074 159.21208 71.895677 162.70948 71.894531 166.55469 A 3.9651224 3.9651224 0 0 0 71.894531 166.55664 L 71.894531 185.56445 A 3.9651224 3.9651224 0 0 0 71.894531 185.56641 C 71.895668 189.40738 75.385601 192.90236 79.226562 192.91016 L 126.58008 193.00586 C 130.43236 193.01361 133.9425 189.50854 133.94141 185.65625 L 133.92969 166.55273 A 3.9651224 3.9651224 0 0 0 133.92969 166.55078 C 133.92633 162.70699 130.42973 159.21208 126.58594 159.21094 A 3.9651224 3.9651224 0 0 0 126.58398 159.21094 L 118.53516 159.21094 C 117.76216 155.96121 116.84125 152.0997 115.86914 148.02734 L 129.49414 148.02734 A 3.9651224 3.9651224 0 0 0 129.49609 148.02734 C 133.3413 148.0262 136.8387 144.5288 136.83984 140.68359 A 3.9651224 3.9651224 0 0 0 136.83984 140.68164 L 136.83984 102.61719 A 3.9651224 3.9651224 0 0 0 136.83984 102.61523 C 136.8387 98.770025 133.3413 95.27263 129.49609 95.271484 A 3.9651224 3.9651224 0 0 0 129.49414 95.271484 L 110.42578 95.271484 A 3.9651224 3.9651224 0 0 0 110.42383 95.271484 C 107.82912 95.272257 105.48655 96.923065 104.17578 99.140625 C 99.001639 77.499411 90.871094 43.503906 90.871094 43.503906 A 3.9651224 3.9651224 0 0 0 90.871094 43.501953 C 90.108835 40.321105 86.997469 37.866888 83.726562 37.867188 L 56.910156 37.867188 C 53.638134 37.867341 50.526254 40.323475 49.765625 43.505859 A 3.9651224 3.9651224 0 0 0 49.765625 43.507812 C 49.765625 43.507812 44.45544 65.753176 39.652344 85.873047 L 39.652344 25.341797 L 46.332031 25.341797 A 3.9651224 3.9651224 0 0 0 46.333984 25.341797 C 50.179192 25.340651 53.676588 21.843254 53.677734 17.998047 A 3.9651224 3.9651224 0 0 0 53.677734 17.996094 L 53.677734 0 A 3.9651224 3.9651224 0 0 0 53.677734 -0.001953125 C 53.676594 -3.8528225 50.167268 -7.3534512 46.316406 -7.3457031 A 3.9651224 3.9651224 0 0 0 46.314453 -7.3457031 z M 70.322266 102.23633 C 71.316564 106.5783 72.434725 111.46489 73.082031 114.29297 L 67.556641 114.29297 C 68.215699 111.42894 69.329081 106.56949 70.322266 102.23633 z "
       d="M 46.314453,-7.3457031 0.703125,-7.2285156 c -3.8395454,0.010014 -7.3269933,3.5041917 -7.328125,7.34374998 a 3.9651224,3.9651224 0 0 0 0,0.001953 V 17.996094 a 3.9651224,3.9651224 0 0 0 0,0.002 c 0.00115,3.845207 3.4985431,7.342604 7.34375,7.34375 a 3.9651224,3.9651224 0 0 0 0.001953,0 H 6.5878906 V 115.17383 H 0 a 3.9651224,3.9651224 0 0 0 -0.00195313,0 c -3.84520767,0.001 -7.34260437,3.49854 -7.34374997,7.34375 a 3.9651224,3.9651224 0 0 0 0,0.002 v 18.16211 a 3.9651224,3.9651224 0 0 0 0,0.002 c 0.00115,3.84521 3.4985423,7.34261 7.34374997,7.34375 A 3.9651224,3.9651224 0 0 0 0,148.02734 h 24.800781 c -0.977622,4.08398 -1.901975,7.94995 -2.671875,11.1836 H 14.0625 a 3.9651224,3.9651224 0 0 0 -0.002,0 c -3.845208,0.001 -7.3426045,3.49854 -7.3437501,7.34375 a 3.9651224,3.9651224 0 0 0 0,0.002 v 19.10352 a 3.9651224,3.9651224 0 0 0 0,0.002 c 0.00114,3.84945 3.5079731,7.34927 7.3574221,7.34375 a 3.9651224,3.9651224 0 0 0 0.002,0 l 47.357422,-0.0957 c 3.840962,-0.008 7.330894,-3.50278 7.332031,-7.34375 a 3.9651224,3.9651224 0 0 0 0,-0.002 v -19.00781 a 3.9651224,3.9651224 0 0 0 0,-0.002 c -0.0011,-3.84521 -3.498543,-7.34261 -7.34375,-7.34375 a 3.9651224,3.9651224 0 0 0 -0.002,0 h -4.125 c 0.312508,-1.3722 0.528376,-2.33006 0.970703,-4.26172 0.748503,-3.26874 1.136284,-4.9738 1.580078,-6.92188 h 20.958985 c 0.726901,3.16185 1.615914,7.0467 2.560546,11.1836 h -4.125 a 3.9651224,3.9651224 0 0 0 -0.002,0 c -3.845207,0.001 -7.342604,3.49854 -7.34375,7.34375 a 3.9651224,3.9651224 0 0 0 0,0.002 v 19.00781 a 3.9651224,3.9651224 0 0 0 0,0.002 c 0.0011,3.84097 3.49107,7.33595 7.332031,7.34375 l 47.353518,0.0957 c 3.85228,0.008 7.36242,-3.49732 7.36133,-7.34961 l -0.0117,-19.10352 a 3.9651224,3.9651224 0 0 0 0,-0.002 c -0.003,-3.84379 -3.49996,-7.3387 -7.34375,-7.33984 a 3.9651224,3.9651224 0 0 0 -0.002,0 h -8.04882 c -0.773,-3.24973 -1.69391,-7.11124 -2.66602,-11.1836 h 13.625 a 3.9651224,3.9651224 0 0 0 0.002,0 c 3.84521,-0.001 7.34261,-3.49854 7.34375,-7.34375 a 3.9651224,3.9651224 0 0 0 0,-0.002 v -38.06445 a 3.9651224,3.9651224 0 0 0 0,-0.002 c -0.001,-3.845205 -3.49854,-7.3426 -7.34375,-7.343746 a 3.9651224,3.9651224 0 0 0 -0.002,0 h -19.06836 a 3.9651224,3.9651224 0 0 0 -0.002,0 c -2.59471,7.73e-4 -4.93728,1.651581 -6.24805,3.869141 C 99.001639,77.499411 90.871094,43.503906 90.871094,43.503906 a 3.9651224,3.9651224 0 0 0 0,-0.002 C 90.108835,40.321105 86.997469,37.866888 83.726562,37.867188 H 56.910156 c -3.272022,1.53e-4 -6.383902,2.456287 -7.144531,5.638671 a 3.9651224,3.9651224 0 0 0 0,0.002 c 0,0 -5.310185,22.245364 -10.113281,42.365235 v -60.53125 h 6.679687 a 3.9651224,3.9651224 0 0 0 0.002,0 c 3.845208,-0.0011 7.342604,-3.498543 7.34375,-7.34375 a 3.9651224,3.9651224 0 0 0 0,-0.002 V 0 a 3.9651224,3.9651224 0 0 0 0,-0.00195313 C 53.676594,-3.8528225 50.167268,-7.3534512 46.316406,-7.3457031 a 3.9651224,3.9651224 0 0 0 -0.002,0 z M 70.322266,102.23633 c 0.994298,4.34197 2.112459,9.22856 2.759765,12.05664 h -5.52539 c 0.659058,-2.86403 1.77244,-7.72348 2.765625,-12.05664 z" />
    <path
       d="m 110.426,102.617 v 19.01 l -8.422,0.01 C 101.616,119.987 83.726,45.213 83.726,45.213 H 56.91 c 0,0 -17.856,74.775 -18.244,76.425 h -6.36 V 17.996 H 46.333 V 0 L 0.72,0.118 V 17.996 H 13.933 V 122.52 H 0 v 18.162 h 34.108 c -0.566,2.355 -5.842,24.39 -6.183,25.875 H 14.063 v 19.103 l 47.356,-0.095 V 166.557 H 48.086 c 0.507,-2.344 5.572,-24.357 5.9,-25.875 H 86.66 c 0.364,1.518 5.404,23.53 5.923,25.875 H 79.24 v 19.008 l 47.356,0.095 -0.012,-19.103 h -13.85 c -0.34,-1.485 -5.618,-23.52 -6.17,-25.875 h 22.93 v -38.065 z m -52.09,19.02 c 0.563,-2.378 10.622,-46.25 11.988,-52.292 1.39,6.042 11.435,49.913 11.978,52.293 H 58.335 Z"
       id="path1"
       sodipodi:nodetypes="cccccccccccccccccccccccccccccccccccccccc" />
  </g>
  <metadata
     id="metadata2">
    <rdf:RDF>
      <cc:Work
         rdf:about="">
        <dc:title>Los Angeles Dodgers hat dark logo</dc:title>
      </cc:Work>
    </rdf:RDF>
  </metadata>
</svg>
