<?xml version="1.0" encoding="UTF-8" standalone="no"?>
<!-- Generator: Adobe Illustrator 21.1.0, SVG Export Plug-In . SVG Version: 6.00 Build 0)  -->

<svg
   version="1.1"
   id="Layer_1"
   x="0px"
   y="0px"
   width="324.22983"
   height="368.92166"
   viewBox="0 0 324.22983 368.92166"
   xml:space="preserve"
   sodipodi:docname="NYY.svg"
   inkscape:version="1.4 (86a8ad7, 2024-10-11)"
   xmlns:inkscape="http://www.inkscape.org/namespaces/inkscape"
   xmlns:sodipodi="http://sodipodi.sourceforge.net/DTD/sodipodi-0.dtd"
   xmlns="http://www.w3.org/2000/svg"
   xmlns:svg="http://www.w3.org/2000/svg"><defs
   id="defs1" /><sodipodi:namedview
   id="namedview1"
   pagecolor="#ffffff"
   bordercolor="#000000"
   borderopacity="0.25"
   inkscape:showpageshadow="2"
   inkscape:pageopacity="0.0"
   inkscape:pagecheckerboard="0"
   inkscape:deskcolor="#d1d1d1"
   inkscape:zoom="2.3978368"
   inkscape:cx="255.85561"
   inkscape:cy="211.23206"
   inkscape:window-width="3440"
   inkscape:window-height="1377"
   inkscape:window-x="-8"
   inkscape:window-y="-8"
   inkscape:window-maximized="1"
   inkscape:current-layer="Layer_1" />
<style
   type="text/css"
   id="style1">
	.st0{fill:#FFFFFF;stroke:#FFFFFF;}
</style>

<g
   id="g2"
   style="fill:#162d50"
   transform="translate(47.536493,39.636281)">
	<path
   id="path2"
   style="fill:#162d50"
   class="st0"
   sodipodi:type="inkscape:offset"
   inkscape:radius="11.561041"
   inkscape:original="M 204.40039 1.1992188 C 204.80039 15.399219 170.69922 109.19922 151.19922 146.19922 C 125.69922 99.299219 101.09922 21.800391 94.199219 1.9003906 C 87.599219 9.6003906 64.200391 32.400781 52.900391 43.800781 C 76.000391 67.400781 120.39961 143.30039 124.09961 168.90039 C 61.899609 112.80039 61.099609 100 34.099609 63 C 30.399609 65.8 5.2003906 93.100391 0.40039062 92.900391 C 11.600391 109.80039 38.600391 128.10039 37.900391 197.40039 C 37.600391 235.40039 17.199219 275.99961 5.6992188 294.09961 C 5.0992187 295.09961 36.4 332.40078 39.5 336.80078 C 77 273.50078 76.2 189.59961 71 162.59961 C 75.3 167.19961 124.69922 211.99961 134.69922 221.59961 L 135.5 301.90039 C 135.3 309.70039 132.69922 334.6 124.19922 346 C 149.49922 345.3 154.39922 345.30078 179.69922 345.30078 C 168.19922 332.80078 167.6 306.30039 167 303.40039 L 164.69922 252.90039 C 176.79922 263.80039 245.59922 325.9 263.69922 342.5 C 275.09922 329 281.09922 329.70078 289.19922 319.80078 C 271.19922 293.50078 260 264.3 261.5 197.5 C 262.5 151 287.8 106.50039 300.5 89.400391 C 288.2 76.900391 276.49922 67.199609 272.69922 63.099609 C 248.69922 88.699609 214.19922 159.80039 230.69922 266.40039 C 222.39922 258.60039 177.30039 216.3 163.90039 206 C 163.90039 206 160.29961 199 164.59961 187.5 C 179.59961 147.7 220.90039 63.099609 244.90039 44.599609 C 232.60039 33.899609 215.50039 11.499219 204.40039 1.1992188 z "
   d="M 204.00391,-10.353516 A 11.562197,11.562197 0 0 0 192.84375,1.5253906 c -0.0201,-0.71494779 -0.23138,2.2250888 -1.07422,5.8378906 -0.84284,3.6128018 -2.1607,8.3980648 -3.83594,13.9257808 -3.35046,11.055434 -8.12942,25.12024 -13.52929,39.890625 C 167.06613,81.25193 158.56618,102.44936 150.95117,119.64453 130.25962,74.817687 111.25916,15.810174 105.12305,-1.8867187 A 11.562197,11.562197 0 0 0 85.421875,-5.6230469 C 80.269746,0.38776999 56.181137,24.068729 44.689453,35.662109 a 11.562197,11.562197 0 0 0 -0.05078,16.22461 c 9.806269,10.018526 26.960642,34.866921 41.115234,59.478511 1.599574,2.7813 3.004311,5.56561 4.527344,8.36915 C 68.45269,95.814609 62.547575,82.370751 43.439453,56.185547 A 11.562197,11.562197 0 0 0 27.123047,53.78125 c -3.098304,2.344663 -4.352953,3.93495 -7.339844,6.914062 -2.986891,2.979113 -6.592897,6.606325 -10.1757811,10.085938 -3.582884,3.479613 -7.1762869,6.829329 -9.83007815,9.037109 -1.11094395,0.924233 -1.87880735,1.469581 -2.42382815,1.845703 0.5343834,-0.196211 1.3260536,-0.406173 3.52734378,-0.314453 a 11.562197,11.562197 0 0 0 -10.11718748,17.9375 c 6.9017074,10.414181 15.4525612,17.956721 22.6132811,31.589841 7.16072,13.63313 13.297623,33.26773 12.962891,66.40625 a 11.562197,11.562197 0 0 0 0,0.0254 c -0.267849,33.92752 -19.7759385,73.87291 -30.3984377,90.5918 a 11.562197,11.562197 0 0 0 -0.15625,0.25195 c -2.4550185,4.0917 -1.7154442,6.70755 -1.46875,8.07422 0.2466941,1.36668 0.5324813,2.00462 0.7480468,2.52149 0.431131,1.03374 0.7067201,1.46005 0.9609375,1.88476 0.5084348,0.84943 0.9286819,1.44206 1.4257813,2.13672 0.9941987,1.38932 2.23503588,3.01051 3.734375,4.92774 2.9986782,3.83444 6.9726755,8.75426 11.0585941,13.77539 4.085918,5.02112 8.273689,10.13129 11.613281,14.23632 3.339591,4.10504 6.262613,7.85107 6.191406,7.75 a 11.562197,11.562197 0 0 0 19.398438,-0.76562 C 69.357289,309.08524 78.7712,270.83818 82.742187,237.45312 c 2.022156,-17.00074 2.64233,-32.56283 2.386719,-45.86132 2.692663,2.47576 4.933574,4.55118 7.765625,7.15039 12.676869,11.63464 24.324769,22.34773 30.292969,27.96289 l 0.74805,74.98828 c -0.0817,2.97341 -0.73897,10.84201 -2.30664,18.62305 -1.57711,7.82781 -4.52054,15.85406 -6.69727,18.77343 a 11.562197,11.562197 0 0 0 9.58789,18.4668 c 25.25851,-0.69885 29.87945,-0.69531 55.17969,-0.69531 a 11.562197,11.562197 0 0 0 8.50781,-19.38867 c -3.06158,-3.32781 -6.12058,-11.34044 -7.5957,-18.92774 -0.73756,-3.79365 -1.19188,-7.42887 -1.49219,-10.32422 -0.24585,-2.37033 -0.22025,-3.47624 -0.58789,-5.74414 l -1.02148,-22.38867 c 24.58883,22.19283 64.1697,57.90358 78.375,70.93164 a 11.562197,11.562197 0 0 0 16.64648,-1.06055 c 4.99133,-5.91078 8.01256,-8.05186 11.77539,-10.67968 3.76283,-2.62782 8.81927,-6.02195 13.83984,-12.15821 a 11.562197,11.562197 0 0 0 0.59375,-13.84961 C 281.73058,288.4185 271.58928,263.19298 273.05859,197.75977 a 11.562197,11.562197 0 0 0 0,-0.0117 c 0.91329,-42.46795 25.36487,-86.16231 36.72266,-101.455081 A 11.562197,11.562197 0 0 0 308.74023,81.291016 C 295.96669,68.309774 283.11506,57.330506 281.17773,55.240234 a 11.562197,11.562197 0 0 0 -16.91211,-0.04687 c -24.804,26.457605 -55.10911,89.144991 -48.44726,181.595701 -3.62051,-3.35546 -4.88052,-4.58066 -8.78906,-8.16797 -12.62398,-11.58641 -24.78484,-22.5129 -32.90235,-29.09179 -0.15556,-1.54557 -0.15266,-4.08297 1.29688,-7.9668 7.21994,-19.154 21.20303,-50.09352 36.14648,-78.05078 14.94699,-27.963876 32.59785,-53.750437 40.38867,-59.755861 a 11.562197,11.562197 0 0 0 0.5293,-17.878906 C 242.21329,26.938544 225.15035,4.6825183 212.26367,-7.2753906 a 11.562197,11.562197 0 0 0 -8.25976,-3.0781254 z"
   transform="translate(-35.86566,-28.775936)" />
</g><g
   id="g1"
   style="fill:#ffffff"
   transform="translate(11.749579,10.087642)">
	<path
   class="st0"
   d="m 0.4,92.9 c 4.8,0.2 30,-27.1 33.7,-29.9 27,37 27.8,49.8 90,105.9 C 120.4,143.3 76,67.4 52.9,43.8 64.2,32.4 87.6,9.6 94.2,1.9 c 6.9,19.9 31.5,97.4 57,144.3 v 0 c 19.5,-37 53.6,-130.8 53.2,-145 11.1,10.3 28.2,32.7 40.5,43.4 -24,18.5 -65.3,103.1 -80.3,142.9 -4.3,11.5 -0.7,18.5 -0.7,18.5 13.4,10.3 58.5,52.6 66.8,60.4 -16.5,-106.6 18,-177.7 42,-203.3 3.8,4.1 15.5,13.8 27.8,26.3 -12.7,17.1 -38,61.6 -39,108.1 -1.5,66.8 9.7,96 27.7,122.3 -8.1,9.9 -14.1,9.2 -25.5,22.7 -18.1,-16.6 -86.9,-78.7 -99,-89.6 v 0 l 2.3,50.5 c 0.6,2.9 1.2,29.4 12.7,41.9 -25.3,0 -30.2,0 -55.5,0.7 8.5,-11.4 11.1,-36.3 11.3,-44.1 l -0.8,-80.3 C 124.7,212 75.3,167.2 71,162.6 v 0 c 5.2,27 6,110.9 -31.5,174.2 C 36.4,332.4 5.1,295.1 5.7,294.1 17.2,276 37.6,235.4 37.9,197.4 38.6,128.1 11.6,109.8 0.4,92.9"
   id="path1"
   style="fill:#ffffff" />
</g></svg>
