<?xml version="1.0" encoding="UTF-8" standalone="no"?>
<!-- Generator: Adobe Illustrator 21.1.0, SVG Export Plug-In . SVG Version: 6.00 Build 0)  -->

<svg
   version="1.1"
   id="svg2"
   x="0px"
   y="0px"
   width="337.69089"
   height="459.59097"
   viewBox="0 0 337.69089 459.59099"
   xml:space="preserve"
   sodipodi:docname="PIT.svg"
   inkscape:version="1.4 (86a8ad7, 2024-10-11)"
   xmlns:inkscape="http://www.inkscape.org/namespaces/inkscape"
   xmlns:sodipodi="http://sodipodi.sourceforge.net/DTD/sodipodi-0.dtd"
   xmlns="http://www.w3.org/2000/svg"
   xmlns:svg="http://www.w3.org/2000/svg"><defs
   id="defs1" /><sodipodi:namedview
   id="namedview1"
   pagecolor="#ffffff"
   bordercolor="#000000"
   borderopacity="0.25"
   inkscape:showpageshadow="2"
   inkscape:pageopacity="0.0"
   inkscape:pagecheckerboard="0"
   inkscape:deskcolor="#d1d1d1"
   inkscape:zoom="1.3928402"
   inkscape:cx="183.07914"
   inkscape:cy="227.95148"
   inkscape:window-width="1147"
   inkscape:window-height="1211"
   inkscape:window-x="1435"
   inkscape:window-y="88"
   inkscape:window-maximized="0"
   inkscape:current-layer="svg2" />
<style
   type="text/css"
   id="style1">
	.st0{fill:#FDB827;}
</style>
<g
   id="g2"
   style="fill:#000000"
   transform="translate(18.845855,18.844866)">
	<path
   id="path1"
   style="fill:#000000"
   class="st0"
   sodipodi:type="inkscape:offset"
   inkscape:radius="18.845528"
   inkscape:original="M 225.80078 0 C 211.00078 14.4 196.59922 17.800781 173.69922 17.800781 L 20.800781 17.599609 L 0 69.599609 C 12.6 74.999609 20.800781 87.000781 20.800781 101.30078 L 20.800781 339.69922 C 20.800781 353.99922 12.6 365.90039 0 371.40039 L 20.800781 421.90039 L 79.199219 421.90039 L 100 371.40039 C 87.4 366.20039 79.199219 353.79922 79.199219 339.69922 L 79.199219 245.69922 L 173.69922 245.80078 C 196.59922 245.80078 211.00078 251.40078 225.80078 265.80078 C 235.40078 236.20078 264.4 213.99922 300 205.19922 C 286.5 181.99922 281.19922 161.5 281.19922 140 C 281.19922 118.5 284.19922 95.2 297.69922 72 C 262.09922 63.2 234.70078 29.7 225.80078 0 z M 79.5 67.800781 L 200.5 67.800781 C 219.7 67.800781 231.69922 79.900391 231.69922 95.900391 L 231.69922 168 C 231.69922 184.8 222.2 194 200.5 194 L 79.5 194 L 79.5 67.800781 z "
   d="m 230.53516,-18.240234 a 18.847412,18.847412 0 0 0 -17.87696,4.732421 C 201.18026,-2.340087 194.73497,-1.0461487 173.72461,-1.0449219 L 20.826172,-1.2460937 A 18.847412,18.847412 0 0 0 3.3027344,10.599609 l -20.8007814,52 a 18.847412,18.847412 0 0 0 10.0742189,24.322266 c 6.029024,2.583867 9.3789062,7.283945 9.3789062,14.378905 v 238.39844 c 0,7.09496 -3.2816374,11.71788 -9.4941406,14.42969 a 18.847412,18.847412 0 0 0 -9.8867185,24.44921 l 20.800781,50.5 a 18.847412,18.847412 0 0 0 17.425781,11.66797 H 79.199219 A 18.847412,18.847412 0 0 0 96.625,429.07812 l 20.80078,-50.5 a 18.847412,18.847412 0 0 0 -10.23633,-24.59765 c -5.49869,-2.2693 -9.144528,-7.48849 -9.144528,-14.28125 v -75.13477 l 75.634768,0.082 a 18.847412,18.847412 0 0 0 0.0195,0 c 19.82766,0 26.78823,2.8203 38.95898,14.66211 a 18.847412,18.847412 0 0 0 31.06836,-7.69336 c 7.01725,-21.63651 30.04873,-40.52091 60.79492,-48.12109 A 18.847412,18.847412 0 0 0 316.28906,195.7207 C 304.13758,174.83815 300.04492,158.40245 300.04492,140 c 0,-19.74693 2.59162,-39.0133 13.94336,-58.521484 A 18.847412,18.847412 0 0 0 302.2207,53.705078 C 275.25022,47.038217 250.81924,17.835022 243.85352,-5.4101562 A 18.847412,18.847412 0 0 0 230.53516,-18.240234 Z M 98.345703,86.646484 H 200.5 c 5.64126,0 8.42543,1.571104 9.96094,3 1.5355,1.428897 2.39258,2.964982 2.39258,6.253907 V 168 c 0,4.84806 -0.60887,4.75588 -0.94532,5.04687 -0.33644,0.291 -3.22147,2.10743 -11.4082,2.10743 H 98.345703 Z" />
</g><g
   id="g1"
   transform="translate(18.845855,18.844866)">
	<path
   id="path14"
   class="st0"
   d="m 281.2,140 c 0,-21.5 3,-44.8 16.5,-68 C 262.1,63.2 234.7,29.7 225.8,0 211,14.4 196.6,17.8 173.7,17.8 L 20.8,17.6 0,69.6 C 12.6,75 20.8,87 20.8,101.3 v 238.4 c 0,14.3 -8.2,26.2 -20.8,31.7 l 20.8,50.5 H 79.2 L 100,371.4 C 87.4,366.2 79.2,353.8 79.2,339.7 v -94 l 94.5,0.1 c 22.9,0 37.3,5.6 52.1,20 C 235.4,236.2 264.4,214 300,205.2 286.5,182 281.2,161.5 281.2,140 m -80.7,54 H 79.5 V 67.8 h 121 c 19.2,0 31.2,12.1 31.2,28.1 V 168 c 0,16.8 -9.5,26 -31.2,26" />
</g>
</svg>
