<?xml version="1.0" encoding="UTF-8" standalone="no"?>
<svg
   viewBox="0 0 424.1875 520.85156"
   version="1.1"
   id="svg1"
   sodipodi:docname="SD.svg"
   width="424.1875"
   height="520.85156"
   inkscape:version="1.4 (86a8ad7, 2024-10-11)"
   xmlns:inkscape="http://www.inkscape.org/namespaces/inkscape"
   xmlns:sodipodi="http://sodipodi.sourceforge.net/DTD/sodipodi-0.dtd"
   xmlns="http://www.w3.org/2000/svg"
   xmlns:svg="http://www.w3.org/2000/svg">
  <defs
     id="defs1" />
  <sodipodi:namedview
     id="namedview1"
     pagecolor="#ffffff"
     bordercolor="#000000"
     borderopacity="0.25"
     inkscape:showpageshadow="2"
     inkscape:pageopacity="0.0"
     inkscape:pagecheckerboard="0"
     inkscape:deskcolor="#d1d1d1"
     inkscape:zoom="1.2239583"
     inkscape:cx="202.62128"
     inkscape:cy="248.78298"
     inkscape:window-width="1147"
     inkscape:window-height="1211"
     inkscape:window-x="1470"
     inkscape:window-y="69"
     inkscape:window-maximized="0"
     inkscape:current-layer="svg1" />
  <g
     fill="#ffc427"
     id="g2"
     style="fill:#28170b"
     transform="translate(20.425781,20.425781)">
    <path
       id="path2"
       style="fill:#28170b"
       sodipodi:type="inkscape:offset"
       inkscape:radius="20.425531"
       inkscape:original="M 52.884766 0 C 23.676766 0 4.7369516e-15 23.678719 0 52.886719 L 0 162.79883 C 0 192.00683 23.676766 215.68359 52.884766 215.68359 L 198.37695 215.68359 C 208.23895 215.68359 216.23437 223.67997 216.23438 233.54297 L 216.23438 328.76953 C 216.23438 338.58453 208.20367 346.61523 198.38867 346.61523 L 159.67188 346.61523 L 159.67188 234.71094 L 109.31836 234.71094 L 109.31836 346.61523 L 65.359375 346.61523 C 55.502375 346.61523 47.513672 338.62553 47.513672 328.76953 L 47.513672 319.26172 C 47.513672 287.62972 56.015625 280.32031 56.015625 280.32031 L 3.140625 280.31836 L 3.140625 334.28125 C 3.140625 363.48425 26.816531 387.16016 56.019531 387.16016 L 109.31641 387.16016 L 109.31641 431.58984 C 109.31641 463.30784 97.710938 479.99805 97.710938 479.99805 L 291.90234 480 C 329.99234 480 360.87109 449.12125 360.87109 411.03125 L 360.87109 171.14258 C 360.87109 133.03958 329.98191 102.1513 291.87891 102.1543 L 97.712891 102.16992 C 97.712891 102.16992 109.31836 118.86108 109.31836 150.58008 L 109.31836 175.13281 L 68.220703 175.13281 C 58.356703 175.13281 50.361328 167.13644 50.361328 157.27344 L 50.361328 57.439453 C 50.361328 47.617453 58.398703 39.580078 68.220703 39.580078 L 201.47656 39.582031 C 211.72756 39.719031 218.46836 49.900641 217.06836 60.056641 C 215.71236 69.890641 210.57812 75.779297 210.57812 75.779297 L 263.45312 75.779297 L 263.45312 52.886719 C 263.45212 23.678719 239.77541 4.7369516e-15 210.56641 0 L 52.884766 0 z M 159.67188 142.92578 L 283.28711 142.92578 C 298.32611 142.92578 310.51758 155.11625 310.51758 170.15625 L 310.51758 411.99219 C 310.51758 427.03419 298.32225 439.22852 283.28125 439.22852 L 159.67188 439.22852 L 159.67188 387.1582 L 213.71875 387.1582 C 242.92175 387.1582 266.5957 363.48525 266.5957 334.28125 L 266.5957 228.01953 C 266.5957 198.81153 242.91894 175.13281 213.71094 175.13281 L 159.67188 175.13281 L 159.67188 142.92578 z M 367.81055 462.34961 L 367.81055 480 L 371.71875 480 L 371.71875 470.20312 L 375.23828 478.92383 L 375.90625 478.92383 L 379.42773 470.20312 L 379.42773 480 L 383.33594 480 L 383.33594 462.34961 L 379.42773 462.34961 L 375.57227 472.11328 L 371.71875 462.34961 L 367.81055 462.34961 z M 353.94336 462.35742 L 353.94336 465.55078 L 358.22461 465.55078 L 358.22461 480 L 362.13281 480 L 362.13281 465.55078 L 366.17383 465.55078 L 366.17383 462.35742 L 353.94336 462.35742 z "
       d="m 52.884766,-20.425781 c -40.247223,0 -73.310547,33.066188 -73.310547,73.3125 V 162.79883 c 0,40.24631 33.064237,73.31055 73.310547,73.31054 h 36.007812 v 90.08008 H 67.939453 v -6.92773 c 0,-13.98603 1.911389,-21.33475 2.996094,-24.28516 0.542352,-1.4752 0.866787,-1.86664 0.675781,-1.58398 -0.191006,0.28265 -2.279297,2.41601 -2.279297,2.41601 A 20.427574,20.427574 0 0 0 56.015625,259.89453 l -52.875,-0.002 a 20.427574,20.427574 0 0 0 -20.425781,20.42578 v 53.96289 c 0,40.2428 33.061884,73.30469 73.304687,73.30469 h 32.871094 v 24.0039 c 0,13.3678 -2.418725,23.07786 -4.615234,29.23828 -2.19651,6.16043 -3.333985,7.50977 -3.333985,7.50977 a 20.427574,20.427574 0 0 0 16.769531,32.08594 l 194.191403,0.002 c 17.48779,0 33.80354,-5.17553 47.62891,-13.96289 a 20.427574,20.427574 0 0 0 18.69336,13.96289 h 3.9082 a 20.427574,20.427574 0 0 0 2.83985,-0.76172 20.427574,20.427574 0 0 0 2.83789,0.76172 h 3.9082 a 20.427574,20.427574 0 0 0 3.85547,-1.0332 20.427574,20.427574 0 0 0 3.85351,1.0332 h 3.90821 A 20.427574,20.427574 0 0 0 403.76172,480 v -17.65039 a 20.427574,20.427574 0 0 0 -20.42578,-20.42578 h -3.90821 a 20.427574,20.427574 0 0 0 -3.85546,1.1875 20.427574,20.427574 0 0 0 -0.33399,-0.10352 c 3.85533,-9.95432 6.05859,-20.71167 6.05859,-31.97656 V 171.14258 c 10e-6,-49.14199 -40.27738,-89.417934 -89.41992,-89.414064 h -9.59375 a 20.427574,20.427574 0 0 0 1.59571,-5.949219 V 52.886719 c -0.001,-40.245908 -33.06466,-73.3125 -73.3125,-73.3125 z m 17.902343,80.43164 125.347661,0.002 c -0.48557,1.480673 -0.95313,2.347657 -0.95313,2.347657 a 20.427574,20.427574 0 0 0 -3.54883,19.380859 l -93.921873,0.0078 A 20.427574,20.427574 0 0 0 80.943359,113.83008 c 0,0 1.135461,1.34889 3.332032,7.50976 2.19657,6.16088 4.617187,15.87186 4.617187,29.24024 v 4.12695 H 70.787109 Z M 248.02539,163.35156 h 35.26172 c 4.00117,0 6.80469,2.80269 6.80469,6.80469 v 241.83594 c 0,4.00197 -2.8094,6.81054 -6.81055,6.81054 H 180.09766 v -11.21875 h 33.62109 c 40.24142,0 73.30273,-33.06022 73.30273,-73.30273 V 228.01953 c 0,-27.87496 -15.87315,-52.28243 -38.99609,-64.66797 z m -67.92773,72.75781 h 15.71093 v 90.08008 h -15.71093 z" />
  </g>
  <g
     fill="#ffc427"
     id="g1"
     transform="translate(20.425781,20.425781)">
    <path
       d="M 291.879,102.155 97.712,102.17 c 0,0 11.606,16.691 11.606,48.41 v 24.553 H 68.22 c -9.864,0 -17.859,-7.996 -17.859,-17.859 V 57.44 c 0,-9.822 8.037,-17.859 17.859,-17.859 l 133.257,0.002 c 10.251,0.137 16.992,10.317 15.592,20.473 -1.356,9.834 -6.491,15.723 -6.491,15.723 l 52.876,0.001 V 52.886 C 263.453,23.678 239.776,0 210.567,0 H 52.885 C 23.677,0 0,23.678 0,52.886 v 109.912 c 0,29.208 23.677,52.885 52.885,52.885 h 145.491 c 9.862,0 17.859,7.996 17.859,17.859 v 95.228 c 0,9.815 -8.031,17.846 -17.846,17.846 H 159.672 V 234.71 H 109.318 V 346.615 H 65.36 c -9.857,0 -17.846,-7.99 -17.846,-17.846 v -9.507 c 0,-31.632 8.502,-38.942 8.502,-38.942 L 3.141,280.319 v 53.963 c 0,29.203 23.675,52.878 52.878,52.878 h 53.298 v 44.429 c 0,31.718 -11.606,48.41 -11.606,48.41 L 291.903,480 c 38.09,0 68.968,-30.878 68.968,-68.968 v -239.89 c 0,-38.103 -30.889,-68.99 -68.992,-68.987 z m 18.638,309.838 c 0,15.042 -12.194,27.236 -27.235,27.236 h -123.61 v -52.07 h 54.047 c 29.203,0 52.877,-23.674 52.877,-52.878 V 228.019 c 0,-29.208 -23.678,-52.886 -52.886,-52.886 h -54.038 v -32.208 h 123.615 c 15.039,0 27.231,12.192 27.231,27.232 z m 55.657,50.364 v 3.194 h -4.041 V 480 h -3.908 v -14.449 h -4.282 v -3.194 z m 13.254,-0.007 -3.855,9.763 -3.855,-9.763 H 367.81 V 480 h 3.908 v -9.796 l 3.521,8.72 h 0.668 l 3.521,-8.72 V 480 h 3.908 v -17.65 z"
       id="path1" />
  </g>
</svg>
