<?xml version="1.0" encoding="UTF-8" standalone="no"?>
<svg
   viewBox="0 0 265.67456 265.36483"
   version="1.1"
   id="svg1"
   sodipodi:docname="WSH.svg"
   width="265.67456"
   height="265.36484"
   inkscape:version="1.4 (86a8ad7, 2024-10-11)"
   xmlns:inkscape="http://www.inkscape.org/namespaces/inkscape"
   xmlns:sodipodi="http://sodipodi.sourceforge.net/DTD/sodipodi-0.dtd"
   xmlns="http://www.w3.org/2000/svg"
   xmlns:svg="http://www.w3.org/2000/svg"
   xmlns:rdf="http://www.w3.org/1999/02/22-rdf-syntax-ns#"
   xmlns:cc="http://creativecommons.org/ns#"
   xmlns:dc="http://purl.org/dc/elements/1.1/">
  <defs
     id="defs1" />
  <sodipodi:namedview
     id="namedview1"
     pagecolor="#ffffff"
     bordercolor="#000000"
     borderopacity="0.25"
     inkscape:showpageshadow="2"
     inkscape:pageopacity="0.0"
     inkscape:pagecheckerboard="0"
     inkscape:deskcolor="#d1d1d1"
     inkscape:zoom="1.6723773"
     inkscape:cx="89.991652"
     inkscape:cy="233.49993"
     inkscape:window-width="3440"
     inkscape:window-height="1377"
     inkscape:window-x="-8"
     inkscape:window-y="-8"
     inkscape:window-maximized="1"
     inkscape:current-layer="svg1" />
  <title
     id="title1">Washington Nationals dark logo</title>
  <path
     id="path2"
     style="fill:#161650"
     sodipodi:type="inkscape:offset"
     inkscape:radius="2.8403618"
     inkscape:original="M 210.02344 -5.6289062 C 200.28154 -6.0530474 191.92295 -1.4575017 186.14844 4.4667969 C 180.37393 10.391095 176.69141 17.564834 176.69141 24.771484 A 5.6561437 5.6561437 0 0 0 181.17188 30.302734 C 191.29935 32.453788 200.48999 38.20161 206.6543 50.648438 C 212.8186 63.095265 215.74465 82.709543 211.23633 112.00781 A 5.6561437 5.6561437 0 0 0 211.23633 112.00977 C 207.61431 135.64924 198.81363 154.7335 188.9707 167.76953 C 185.27945 172.65825 181.45775 176.31999 177.73633 179.37695 C 187.3308 162.70899 194.18257 145.03185 198.4082 127.61523 C 206.88106 92.733866 204.60281 68.804455 196.5625 52.966797 C 188.52301 37.130766 174.5942 30.068577 162.24414 29.460938 L 162.24023 29.460938 C 146.83715 28.694604 132.6355 38.522752 121.50781 53.044922 C 110.37917 67.568331 101.95889 87.234053 98.25 108.58203 A 5.6561437 5.6561437 0 0 0 98.25 108.58594 C 92.779121 140.16476 92.964978 173.42171 111.3418 199.1582 C 103.56314 206.81749 92.04618 211.43267 84.345703 210.00391 C 79.987945 209.19536 76.7084 207.10858 74.240234 202.06055 C 71.772207 197.0128 70.444747 188.5893 72.1875 176.01367 L 72.1875 176.01172 C 78.190511 132.84053 100.00993 84.097997 112.07812 60.251953 L 112.36914 59.736328 A 5.6561437 5.6561437 0 0 0 112.52344 59.441406 C 119.03126 46.122282 124.23627 36.598971 126.31055 33.091797 A 5.6561437 5.6561437 0 0 0 121.51758 24.558594 L 116.59766 24.494141 A 5.6561437 5.6561437 0 0 0 116.42578 24.494141 C 67.832506 25.330202 28.028915 36.195772 8.5253906 62.828125 C -9.1499945 86.95543 -10.296109 114.2526 5.6582031 130.73438 A 5.6561437 5.6561437 0 0 0 5.75 130.82617 L 7.7128906 132.76367 C 12.782637 137.87135 19.505286 140.55664 26.244141 140.55664 L 26.283203 140.55664 C 29.407195 140.55664 32.559337 139.94041 35.53125 138.72656 C 34.457923 142.11841 33.182668 145.80631 32.472656 148.64453 A 5.6561437 5.6561437 0 0 0 32.472656 148.64648 C 17.43387 208.80163 41.715217 247.17283 71.345703 252.72266 A 5.6561437 5.6561437 0 0 0 71.349609 252.72461 C 102.04275 258.45096 126.61672 244.70253 140.73633 225.93945 C 149.74077 230.124 162.33955 232.44461 176.66602 228.6875 C 189.98576 225.1944 204.22887 216.26759 217.14648 199.42969 C 218.82499 203.71024 223.18794 206.63867 227.47852 206.63867 C 232.92384 206.63867 238.52734 201.9603 238.52734 195.71875 C 238.52734 189.47856 232.90203 184.82812 227.47852 184.82812 C 227.23401 184.82812 226.9988 184.95795 226.75391 184.97656 C 226.9448 184.64275 227.14797 184.36553 227.33789 184.02734 A 5.6561437 5.6561437 0 0 0 227.33984 184.02344 C 244.83759 152.82213 253.7489 114.74178 254.41992 80.898438 C 255.09095 47.055099 248.0791 17.034841 229.9375 2.4863281 A 5.6561437 5.6561437 0 0 0 229.93555 2.4863281 C 223.39036 -2.7599194 216.51854 -5.3461238 210.02344 -5.6289062 z M 156.64258 81.382812 C 157.06282 81.423253 157.14849 81.46396 157.12891 81.451172 C 157.10704 81.436895 157.37575 81.510763 157.88477 82.736328 A 5.6561437 5.6561437 0 0 0 157.88867 82.748047 C 158.79053 84.905046 159.41602 88.548479 159.41602 93.076172 C 159.41602 111.45276 149.69848 143.08951 140.79102 164.00195 C 138.26966 153.96498 136.95312 143.2191 136.95312 132.82031 C 136.95312 114.47757 140.90817 97.370139 146.47266 88.572266 L 146.47656 88.568359 C 146.47656 88.568359 146.47656 88.566406 146.47656 88.566406 C 150.17706 82.733133 153.15963 81.170115 156.64258 81.382812 z M 58.550781 82.337891 C 55.071401 89.354947 51.514463 97.10726 47.957031 105.51953 C 46.662646 102.73258 44.938208 100.10098 42.65625 97.832031 C 41.599194 96.776191 40.425702 95.90612 39.242188 95.060547 C 41.955073 91.370315 46.060444 87.796211 51.443359 85.085938 L 51.443359 85.087891 C 53.605072 83.999861 56.043042 83.12532 58.550781 82.337891 z M 227.47852 194.29492 C 228.05751 194.29492 229.08398 195.57886 229.08398 195.71875 C 229.08398 195.88957 228.08903 197.13867 227.47852 197.13867 C 226.64231 197.13867 225.83008 195.97061 225.83008 195.71875 C 225.83008 195.4962 226.6735 194.29492 227.47852 194.29492 z "
     d="m 210.14648,-8.4667969 c -10.70315,-0.4659922 -19.81293,4.5715542 -26.03125,10.9511719 -6.15317,6.3127852 -10.26367,14.112863 -10.26367,22.287109 4.2e-4,1.75652 0.67171,3.437504 1.69727,4.859375 -4.37639,-1.756666 -8.84904,-2.795411 -13.16602,-3.007812 a 2.8406459,2.8406459 0 0 0 -0.13867,-0.002 l 0.13672,0.0039 c -15.99065,-0.795567 -30.36619,8.915385 -41.625,22.876953 3.61304,-7.004477 6.67483,-12.724266 8,-14.964844 1.50644,-2.549202 1.54384,-5.902701 0.0937,-8.484375 -1.45009,-2.581674 -4.33219,-4.293947 -7.29297,-4.333984 a 2.8406459,2.8406459 0 0 0 -0.002,0 l -4.91406,-0.06445 c -0.0861,-0.0013 -0.17176,-0.0013 -0.25782,0 a 2.8406459,2.8406459 0 0 0 -0.006,0 C 67.387134,22.497181 26.608711,33.328932 6.234375,61.150391 -12.009996,86.054374 -13.474447,115.05228 3.6171875,132.70898 a 2.8406459,2.8406459 0 0 0 0.00977,0.01 c 0.045435,0.0465 0.092181,0.0932 0.1386719,0.13867 l 1.9511719,1.92774 -0.019531,-0.0215 c 5.6035134,5.64544 13.0534714,8.63281 20.5468754,8.63281 h 0.03906 c 1.667795,0 3.336932,-0.17978 4.988281,-0.49023 -0.549673,1.72443 -1.172364,3.52052 -1.554687,5.04883 a 2.8406459,2.8406459 0 0 0 0,0.004 c -7.640522,30.56353 -5.358567,55.84845 2.845703,74.35352 8.200024,18.4955 22.403126,30.22034 38.234375,33.19531 a 2.8406459,2.8406459 0 0 0 0.03125,0.01 c 30.847525,5.75515 55.920785,-7.61373 70.785155,-26.24024 9.37908,3.87976 21.7663,5.83157 35.77344,2.15821 13.08418,-3.43133 26.85428,-11.93011 39.41406,-27.12305 2.64089,3.19702 6.56307,5.16602 10.67774,5.16602 7.07219,0 13.88867,-5.81822 13.88867,-13.75977 0,-6.49702 -4.59002,-11.48815 -10.10938,-13.11523 16.77471,-31.15818 25.34149,-68.33726 26.00196,-101.648442 0.67946,-34.268713 -6.19427,-65.167443 -25.54493,-80.68554675 a 2.8406459,2.8406459 0 0 0 -0.002,0 l -0.002,-0.001953 C 224.76479,-5.2993936 217.30569,-8.1551006 210.14648,-8.4667969 Z M 183.90039,34.117187 c 8.04193,2.463869 15.09357,7.462097 20.20898,17.791016 5.79627,11.703698 8.77156,30.740631 4.32032,59.667967 a 2.8406459,2.8406459 0 0 0 0,0.006 c -3.12419,20.38848 -10.25179,37.01203 -18.39063,49.375 4.69956,-10.79703 8.48384,-21.7698 11.12891,-32.67187 8.57076,-35.284397 6.39277,-59.929242 -2.07227,-76.603519 -3.93922,-7.759412 -9.28951,-13.4962 -15.19531,-17.564454 z m -25.01953,45.107422 c 0.041,0.03125 0.2832,0.255209 0.36328,0.335938 -0.0302,-0.02903 -0.24861,-0.236161 -0.36328,-0.335938 z m 0.60156,0.679688 c 0.10021,0.151948 0.19924,0.304717 0.19922,0.304687 -10e-6,-2.9e-5 -2.44583,1.187776 -2.51758,1.222657 0.0636,-0.04196 2.27723,-1.500172 2.31836,-1.527344 z m -1.9375,4.33789 c 6.5e-4,0.0059 -0.11263,0.02279 -0.16992,0.02539 0.0637,-0.0095 0.085,-0.01268 0.16992,-0.02539 z m -0.6543,0.0332 c 0.0535,0.0031 0.069,0.0054 0.1211,0.0078 -0.0117,4.99e-4 -0.0625,0.002 -0.0625,0.002 2e-5,2e-6 -0.047,-0.0079 -0.0586,-0.0098 z m -1.51171,0.01563 c 0.60304,1.6591 1.19726,4.784527 1.19726,8.785156 0,15.023058 -7.2037,40.455958 -14.83203,60.511718 -1.15029,-6.88878 -1.95117,-13.8767 -1.95117,-20.76758 0,-17.93445 4.07973,-34.824549 9.08008,-42.730466 l -0.38672,0.482422 a 2.8406459,2.8406459 0 0 0 0.82812,-2 l -0.43945,1.515625 c 1.72681,-2.722059 3.18681,-4.248609 4.33984,-5.015625 0.77677,-0.516714 1.44661,-0.701084 2.16407,-0.78125 z M 53.076172,87.488281 C 51.26758,91.302463 49.454883,95.231066 47.628906,99.40625 46.740418,98.158411 45.785169,96.938901 44.658203,95.818359 44.23977,95.400743 43.820735,95.149579 43.394531,94.789062 45.75618,92.181133 48.722838,89.637312 52.71875,87.625 a 2.8406459,2.8406459 0 0 0 0.002,0 c 0.103253,-0.05197 0.250203,-0.08554 0.355469,-0.136719 z m 44.414062,11.820313 c -0.697079,2.923916 -1.518194,5.789046 -2.039062,8.787106 a 2.8406459,2.8406459 0 0 0 0,0.006 2.8406459,2.8406459 0 0 0 -0.002,0.008 c -5.373787,31.0239 -5.312519,64.06497 12.173831,90.38476 -7.15867,6.16279 -17.07817,9.77097 -22.759769,8.7168 -3.747198,-0.69527 -5.904526,-1.96486 -8.072265,-6.39844 C 74.694159,196.52389 73.307841,188.61484 75,176.4043 a 2.8406459,2.8406459 0 0 0 0,-0.002 v -0.002 C 78.58496,150.62074 87.981155,122.66306 97.490234,99.308594 Z M 227.47852,194.29883 c 0.89858,0 0.93584,0.28539 0.91406,0.26562 0.0135,0.0218 0.0374,0.0572 0.0879,0.17578 0.0522,0.1228 0.18945,0.24667 0.18945,0.97852 0,0.86921 -0.16421,0.9352 -0.2168,1.05078 -0.0381,0.0838 -0.0461,0.0953 -0.0586,0.11524 0.0442,-0.0345 0.075,0.25 -0.91601,0.25 -0.79604,0 -0.90475,-0.18958 -0.98243,-0.26368 -0.007,-0.0152 -0.008,-0.0117 -0.0156,-0.0293 -0.0645,-0.14394 -0.23633,-0.26339 -0.23633,-1.12305 0,-1.24143 0.21329,-1.1133 0.29297,-1.17188 0.0894,-0.0736 0.22362,-0.24804 0.94141,-0.24804 z"
     transform="translate(8.3693782,8.4967126)" />
  <path
     d="m 234.76738,15.394713 c -23.083,-18.5020004 -44.05,4.622 -44.05,17.874 23.117,4.91 43.72,28.035 34.478,88.095997 -7.52,49.08 -36.48,79.66 -54.726,80.256 15.12,-20.66 25.273,-44.008 30.813,-66.842 16.553,-68.145997 -9.95,-90.141997 -30.95,-91.172997 -25.507,-1.272 -51.02,33.46 -58.14,74.441997 -5.627,32.48 -4.934,65.633 14.833,89.948 -17.455,22.06 -59.435002,28.872 -52.070002,-24.265 6.184,-44.476 28.278002,-93.507997 40.492002,-117.629997 l 0.363,-0.645 c 6.562,-13.43 11.764,-22.963 14.002,-26.747 l -4.92,-0.064 c -47.776002,0.822 -85.723002,11.836 -103.435002,36.022 -16.5879998,22.643 -17.0679998,46.474997 -3.366,60.629997 l 2.005,1.98 c 4.01,4.04 9.275,6.12 14.517,6.12 h 0.04 c 4.726,0 9.524,-1.772 13.132,-5.396 3.614,-3.59 5.394,-8.404 5.38,-13.138 0,-5.25 -2.095,-10.515 -6.128,-14.525 -2.11,-2.11 -4.574,-3.688 -7.19,-4.72 l 0.08,-0.144 c 0.355,-0.87 0.782,-1.707 1.248,-2.528 3.204,-5.619997 8.8,-10.739997 16.095,-14.412997 5.726,-2.882 12.488,-4.863 19.8,-5.603 l -1.154,2.463 c -10.128,18.759997 -24.927,54.489997 -29.588,73.121997 -14.565,58.26 8.977,92.38 34.428,97.147 30.643002,5.717 54.185002,-9.146 66.616002,-28.34 14.832,9.403 53.977,14.83 83.403,-37.568 33.864,-60.385 35.094,-149.416997 3.992,-174.358997 z m -86.624,172.554997 c -5.82,-14.154 -8.477,-30.82 -8.477,-46.633 0,-19.098 3.807,-36.858 10.4,-47.276997 4.35,-6.86 9.494,-10.177 15.33,-9.806 2.07,0.162 4.422,0.838 6.08,4.83 1.353,3.236 1.965,7.52 1.965,12.509997 0,24.913 -14.88,67.376 -25.298,86.376 z m 82.276,16.265 c 0,-3.286 2.568,-5.234 5.428,-5.234 2.818,0 5.394,1.947 5.394,5.234 0,3.3 -2.576,5.265 -5.394,5.265 -2.86,0 -5.427,-1.964 -5.427,-5.265 z m 5.428,-4.236 c -2.262,0 -4.05,1.723 -4.05,4.236 0,2.528 1.788,4.234 4.05,4.234 2.165,0 4.008,-1.707 4.008,-4.234 0,-2.513 -1.843,-4.236 -4.008,-4.236 z m -0.902,7.118 h -1.248 v -5.75 h 2.157 c 1.507,0 2.368,0.402 2.368,1.74 0,1.062 -0.612,1.48 -1.594,1.53 l 1.496,2.48 h -1.263 l -1.346,-2.4 h -0.57 z m 0,-3.365 h 1.087 c 0.684,0 0.942,-0.323 0.942,-0.773 0,-0.53 -0.394,-0.628 -1.014,-0.628 h -1.013 v 1.4 z"
     fill="#ab0003"
     id="path1" />
  <metadata
     id="metadata2">
    <rdf:RDF>
      <cc:Work
         rdf:about="">
        <dc:title>Washington Nationals dark logo</dc:title>
      </cc:Work>
    </rdf:RDF>
  </metadata>
</svg>
