<svg xmlns="http://www.w3.org/2000/svg" class="nesn-icon" fill="none" height="57" viewBox="0 0 100 81" width="70">
<g>
<g>
<path d="M45.385 0.0825195C44.5771 2.92316 33.5751 41.25 33.5751 41.25C32.3676 45.5544 29.3098 48.4971 25.6765 48.4928C25.6765 48.4928 28.2261 44.0603 32.4501 29.5118L40.8678 0.0825195H45.385Z" fill="#FFB71B"></path>
<path d="M63.3671 0.167095C59.004 -0.178212 48.8055 0.117145 48.8055 0.117145L42.3967 21.6782L47.1724 21.7955L52.3433 4.11532C52.3433 4.11532 58.6435 4.16961 60.5351 4.29558C69.5348 4.8928 74.1758 12.7132 70.4361 20.8638C66.7615 28.8753 57.6966 34.1831 48.9836 33.4794C48.988 33.4555 47.8587 37.5645 47.8587 37.5645C47.8587 37.5645 51.2379 37.8012 53.3966 37.5145C58.4416 36.8478 62.9305 34.6739 66.8571 31.5118C72.0106 27.3595 75.7699 22.2971 76.404 15.4084C77.2271 6.46732 70.4643 0.729576 63.3649 0.167095H63.3671Z" fill="#FFB71B"></path>
<path d="M51.0728 29.9071C57.7444 29.9114 62.6352 26.8037 65.9862 21.1962C68.3664 17.2154 67.552 12.4072 64.125 9.77072C61.3169 7.612 58.0767 7.79009 54.6757 7.91605C54.2913 9.31682 53.9069 10.7285 53.4639 12.3464C54.641 12.3464 55.5596 12.2791 56.4653 12.3594C58.9736 12.5788 61.1693 13.4323 62.1183 15.9928C63.0109 18.4012 61.849 20.3232 60.2289 21.9694C58.0094 24.2237 55.2838 25.4138 52.0957 25.4333C48.8989 25.4529 41.3521 25.4767 41.3521 25.4767C41.3521 25.4767 38.8416 33.358 37.3583 38.5137C34.4981 47.5786 33.4948 48.4907 33.4948 48.4907C37.1302 48.4972 40.1859 45.5545 41.3934 41.2479C41.3934 41.2479 41.7778 39.8754 42.4011 37.6537L44.8964 29.9418C45.8911 29.9332 49.5396 29.9028 51.0772 29.9028L51.0728 29.9071Z" fill="#FFB71B"></path>
<path d="M0 70.2212H3.94171C6.25679 70.2212 8.36772 70.8358 8.36772 73.696C8.36772 76.5562 6.08088 77.2142 3.91131 77.2142H2.37154V81.069H0V70.2234V70.2212ZM4.00035 75.366C5.48148 75.366 6.03744 74.7949 6.03744 73.7546C6.03744 72.7143 5.49451 72.1714 4.00035 72.1714H2.37371V75.366H4.00035Z" fill="#FFB71B"></path>
<path d="M10.5286 70.2212H12.9023V81.0669H10.5286V70.2212Z" fill="#FFB71B"></path>
<path d="M18.2687 72.2148H15.0436V70.2212H23.8957V72.2148H20.6554V81.0669H18.2665V72.2148H18.2687Z" fill="#FFB71B"></path>
<path d="M28.3521 72.2148H25.127V70.2212H33.9791V72.2148H30.7388V81.0669H28.3499V72.2148H28.3521Z" fill="#FFB71B"></path>
<path d="M35.0215 78.6061L36.8241 77.5354C37.4256 78.7233 38.5093 79.3814 39.7559 79.3814C40.8548 79.3814 41.6475 78.9709 41.6475 78.1348C41.6475 77.2987 40.87 76.962 39.4497 76.5668C37.5147 76.0239 35.4928 75.5265 35.4928 73.2549C35.4928 71.233 37.076 70.0146 39.4063 70.0146C41.7365 70.0146 42.9527 71.0853 43.715 72.2429L42.058 73.5025C41.4868 72.5795 40.4465 71.9627 39.3911 71.9627C38.3356 71.9627 37.8231 72.4014 37.8231 73.0464C37.8231 73.9108 38.6288 74.2191 40.0513 74.6144C41.9559 75.1269 43.9799 75.7285 43.9799 77.9719C43.9799 79.7158 42.6617 81.2708 39.6408 81.2708C37.2953 81.2708 35.8294 80.1567 35.0237 78.6039L35.0215 78.6061Z" fill="#FFB71B"></path>
<path d="M46.3384 70.2212H50.6776C52.6712 70.2212 54.5476 70.7055 54.5476 72.9033C54.5476 74.4431 53.579 75.1749 52.4801 75.3943V75.4225C53.7984 75.6571 54.8408 76.3455 54.8408 78.0764C54.8408 80.2612 52.921 81.0669 50.8969 81.0669H46.3384V70.2212ZM50.443 74.6906C51.6896 74.6906 52.2608 74.2215 52.2608 73.3854C52.2608 72.5493 51.7482 72.0672 50.4734 72.0672H48.6861V74.6906H50.4452H50.443ZM50.6037 79.2491C51.922 79.2491 52.5084 78.7214 52.5084 77.7984C52.5084 76.8754 51.8199 76.3759 50.4995 76.3759H48.6818V79.2491H50.6016H50.6037Z" fill="#FFB71B"></path>
<path d="M57.0538 76.9208V70.2231H59.4427V76.8622C59.4427 78.4302 60.0443 79.3097 61.4646 79.3097C62.8849 79.3097 63.4583 78.4454 63.4583 76.8622V70.2231H65.8037V76.9078C65.8037 79.5747 64.4551 81.2469 61.4364 81.2469C58.4177 81.2469 57.0538 79.5768 57.0538 76.923V76.9208Z" fill="#FFB71B"></path>
<path d="M68.4424 70.2212H72.5166C75.1835 70.2212 76.7819 71.1746 76.7819 73.5787C76.7819 75.2944 75.9762 76.2326 74.5255 76.6713L76.9448 81.069H74.4234L72.167 76.9796H70.7901V81.069H68.4446V70.2234L68.4424 70.2212ZM72.4146 75.1315C73.7914 75.1315 74.4517 74.7362 74.4517 73.6373C74.4517 72.5384 73.7914 72.1714 72.4146 72.1714H70.7879V75.1315H72.4146Z" fill="#FFB71B"></path>
<path d="M78.7017 75.6001C78.7017 72.1992 80.5933 70.0166 83.6403 70.0166C85.6926 70.0166 87.3344 70.8375 88.0228 73.4892L85.8381 74.0908C85.3842 72.5814 84.6957 71.9951 83.6251 71.9951C82.7455 71.9951 81.1037 72.5076 81.1037 75.5567C81.1037 78.6058 82.5696 79.3529 83.7271 79.3529C84.8847 79.3529 85.736 78.6058 85.9553 77.4027H84.0638V75.6284H88.227V81.0664H86.3072V79.5723H86.2789C86.0444 80.2173 85.091 81.2727 83.4492 81.2727C80.1655 81.2727 78.6996 78.8686 78.6996 75.6001H78.7017Z" fill="#FFB71B"></path>
<path d="M90.9569 70.2212H93.3458V74.4279H97.6111V70.2212H100V81.0669H97.6111V76.4345H93.3458V81.0669H90.9569V70.2212Z" fill="#FFB71B"></path>
<path d="M5.15572 61.0023C2.63433 60.1944 1.90028 59.7666 1.90028 58.5004C1.90028 57.3994 2.8906 56.6588 4.36304 56.6588C5.83548 56.6588 6.86923 57.3277 7.42302 58.761L7.47514 58.8957L8.7 58.3245L8.65874 58.2072C8.19616 56.8999 7.07771 55.3384 4.38041 55.3384C2.16089 55.3384 0.486478 56.7305 0.486478 58.5786C0.486478 60.6027 1.78084 61.365 4.50203 62.2206C7.13418 63.0589 7.57721 63.6952 7.57721 64.8028C7.57721 66.069 6.48266 66.8573 4.72354 66.8573C3.05565 66.8573 1.90245 66.0081 1.38775 64.4032L1.34432 64.2686L0.0629883 64.7355L0.0977361 64.8571C0.70148 66.9246 2.41064 68.1582 4.67359 68.1582C7.22539 68.1582 9.00839 66.7444 9.00839 64.7225C9.00839 62.7006 7.59676 61.7754 5.15572 60.9979V61.0023Z" fill="white"><path d="M90.9569 70.2212H93.3458V74.4279H97.6111V70.2212H100V81.0669H97.6111V76.4345H93.3458V81.0669H90.9569V70.2212Z" fill="#FFB71B"></path></path>
<path d="M16.11 55.5708H11.9554V67.9345H13.3866V62.5747H15.9971C18.8876 62.5747 20.4795 61.3085 20.4795 59.0065C20.4795 56.7045 18.9289 55.5708 16.1122 55.5708H16.11ZM19.0462 59.0391C19.0462 60.6049 18.1579 61.2738 16.0774 61.2738H13.3866V56.9042H16.0622C18.1275 56.9042 19.0484 57.5623 19.0484 59.0391H19.0462Z" fill="white"></path>
<path d="M27.7614 55.3403C24.6797 55.3403 22.5275 57.9768 22.5275 61.7513C22.5275 65.5258 24.6797 68.1623 27.7614 68.1623C30.8431 68.1623 32.9953 65.5258 32.9953 61.7513C32.9953 57.9768 30.8431 55.3403 27.7614 55.3403ZM31.5641 61.7513C31.5641 64.846 30.0721 66.844 27.7614 66.844C25.4506 66.844 23.9586 64.8439 23.9586 61.7513C23.9586 58.6588 25.4506 56.6738 27.7614 56.6738C30.0721 56.6738 31.5641 58.6674 31.5641 61.7513Z" fill="white"></path>
<path d="M44.4164 58.9739C44.4164 56.7783 42.8767 55.5708 40.0816 55.5708H35.8945V67.9345H37.3105V62.5095H40.1012L43.0591 67.9345H44.6771L41.5997 62.3401C43.4717 61.9318 44.4186 60.8025 44.4186 58.9761L44.4164 58.9739ZM42.9853 59.0239C42.9853 60.5549 42.0927 61.2086 39.9991 61.2086H37.3083V56.9042H39.9839C42.0883 56.9042 42.9853 57.5384 42.9853 59.0239Z" fill="white"></path>
<path d="M46.1864 56.9195H50.0912V67.9345H51.5224V56.9195H55.4294V55.5708H46.1864V56.9195Z" fill="white"></path>
<path d="M61.6253 61.0023C59.1039 60.1944 58.3699 59.7666 58.3699 58.5004C58.3699 57.3994 59.3602 56.6588 60.8326 56.6588C62.3051 56.6588 63.3388 57.3277 63.8926 58.761L63.9447 58.8957L65.1696 58.3245L65.1283 58.2072C64.6658 56.8999 63.5473 55.3384 60.85 55.3384C58.6305 55.3384 56.9561 56.7305 56.9561 58.5786C56.9561 60.6027 58.2504 61.365 60.9716 62.2206C63.6038 63.0589 64.0468 63.6952 64.0468 64.8028C64.0468 66.069 62.9523 66.8573 61.1931 66.8573C59.5253 66.8573 58.3721 66.0081 57.8574 64.4032L57.8139 64.2686L56.5326 64.7355L56.5673 64.8571C57.1689 66.9246 58.8802 68.1582 61.141 68.1582C63.6928 68.1582 65.4758 66.7444 65.4758 64.7225C65.4758 62.7006 64.0642 61.7754 61.6232 60.9979L61.6253 61.0023Z" fill="white"></path>
<path d="M76.3649 65.2763L69.8736 55.5708H68.4229V67.9345H69.7911V57.9185L76.4931 67.9345H77.731V55.5708H76.3649V65.2763Z" fill="white"></path>
<path d="M82.65 62.0665H87.1759V60.7504H82.65V56.9195H88.7113V55.5708H81.2166V67.9345H89.0544V66.6011H82.65V62.0665Z" fill="white"></path>
<path d="M90.7419 55.5708V56.9195H94.6488V67.9345H96.08V56.9195H99.9848V55.5708H90.7419Z" fill="white"></path>
<path d="M45.385 0.0825195C44.5771 2.92316 33.5751 41.25 33.5751 41.25C32.3676 45.5544 29.3098 48.4971 25.6765 48.4928C25.6765 48.4928 28.2261 44.0603 32.4501 29.5118L40.8678 0.0825195H45.385Z" fill="#FFB71B"></path>
<path d="M63.3671 0.167095C59.004 -0.178212 48.8055 0.117145 48.8055 0.117145L42.3967 21.6782L47.1724 21.7955L52.3433 4.11532C52.3433 4.11532 58.6435 4.16961 60.5351 4.29558C69.5348 4.8928 74.1758 12.7132 70.4361 20.8638C66.7615 28.8753 57.6966 34.1831 48.9836 33.4794C48.988 33.4555 47.8587 37.5645 47.8587 37.5645C47.8587 37.5645 51.2379 37.8012 53.3966 37.5145C58.4416 36.8478 62.9305 34.6739 66.8571 31.5118C72.0106 27.3595 75.7699 22.2971 76.404 15.4084C77.2271 6.46732 70.4643 0.729576 63.3649 0.167095H63.3671Z" fill="#FFB71B"></path>
<path d="M51.0728 29.9071C57.7444 29.9114 62.6352 26.8037 65.9862 21.1962C68.3664 17.2154 67.552 12.4072 64.125 9.77072C61.3169 7.612 58.0767 7.79009 54.6757 7.91605C54.2913 9.31682 53.9069 10.7285 53.4639 12.3464C54.641 12.3464 55.5596 12.2791 56.4653 12.3594C58.9736 12.5788 61.1693 13.4323 62.1183 15.9928C63.0109 18.4012 61.849 20.3232 60.2289 21.9694C58.0094 24.2237 55.2838 25.4138 52.0957 25.4333C48.8989 25.4529 41.3521 25.4767 41.3521 25.4767C41.3521 25.4767 38.8416 33.358 37.3583 38.5137C34.4981 47.5786 33.4948 48.4907 33.4948 48.4907C37.1302 48.4972 40.1859 45.5545 41.3934 41.2479C41.3934 41.2479 41.7778 39.8754 42.4011 37.6537L44.8964 29.9418C45.8911 29.9332 49.5396 29.9028 51.0772 29.9028L51.0728 29.9071Z" fill="#FFB71B"></path>
<path d="M5.15572 61.0023C2.63433 60.1944 1.90028 59.7666 1.90028 58.5004C1.90028 57.3994 2.8906 56.6588 4.36304 56.6588C5.83548 56.6588 6.86923 57.3277 7.42302 58.761L7.47514 58.8957L8.7 58.3245L8.65874 58.2072C8.19616 56.8999 7.07771 55.3384 4.38041 55.3384C2.16089 55.3384 0.486478 56.7305 0.486478 58.5786C0.486478 60.6027 1.78084 61.365 4.50203 62.2206C7.13418 63.0589 7.57721 63.6952 7.57721 64.8028C7.57721 66.069 6.48266 66.8573 4.72354 66.8573C3.05565 66.8573 1.90245 66.0081 1.38775 64.4032L1.34432 64.2686L0.0629883 64.7355L0.0977361 64.8571C0.70148 66.9246 2.41064 68.1582 4.67359 68.1582C7.22539 68.1582 9.00839 66.7444 9.00839 64.7225C9.00839 62.7006 7.59676 61.7754 5.15572 60.9979V61.0023Z" fill="white"></path>
<path d="M16.11 55.5708H11.9554V67.9345H13.3866V62.5747H15.9971C18.8876 62.5747 20.4795 61.3085 20.4795 59.0065C20.4795 56.7045 18.9289 55.5708 16.1122 55.5708H16.11ZM19.0462 59.0391C19.0462 60.6049 18.1579 61.2738 16.0774 61.2738H13.3866V56.9042H16.0622C18.1275 56.9042 19.0484 57.5623 19.0484 59.0391H19.0462Z" fill="white"></path>
<path d="M27.7614 55.3403C24.6797 55.3403 22.5275 57.9768 22.5275 61.7513C22.5275 65.5258 24.6797 68.1623 27.7614 68.1623C30.8431 68.1623 32.9953 65.5258 32.9953 61.7513C32.9953 57.9768 30.8431 55.3403 27.7614 55.3403ZM31.5641 61.7513C31.5641 64.846 30.0721 66.844 27.7614 66.844C25.4506 66.844 23.9586 64.8439 23.9586 61.7513C23.9586 58.6588 25.4506 56.6738 27.7614 56.6738C30.0721 56.6738 31.5641 58.6674 31.5641 61.7513Z" fill="white"></path>
<path d="M44.4164 58.9739C44.4164 56.7783 42.8767 55.5708 40.0816 55.5708H35.8945V67.9345H37.3105V62.5095H40.1012L43.0591 67.9345H44.6771L41.5997 62.3401C43.4717 61.9318 44.4186 60.8025 44.4186 58.9761L44.4164 58.9739ZM42.9853 59.0239C42.9853 60.5549 42.0927 61.2086 39.9991 61.2086H37.3083V56.9042H39.9839C42.0883 56.9042 42.9853 57.5384 42.9853 59.0239Z" fill="white"></path>
<path d="M46.1864 56.9195H50.0912V67.9345H51.5224V56.9195H55.4294V55.5708H46.1864V56.9195Z" fill="white"></path>
<path d="M61.6253 61.0023C59.1039 60.1944 58.3699 59.7666 58.3699 58.5004C58.3699 57.3994 59.3602 56.6588 60.8326 56.6588C62.3051 56.6588 63.3388 57.3277 63.8926 58.761L63.9447 58.8957L65.1696 58.3245L65.1283 58.2072C64.6658 56.8999 63.5473 55.3384 60.85 55.3384C58.6305 55.3384 56.9561 56.7305 56.9561 58.5786C56.9561 60.6027 58.2504 61.365 60.9716 62.2206C63.6038 63.0589 64.0468 63.6952 64.0468 64.8028C64.0468 66.069 62.9523 66.8573 61.1931 66.8573C59.5253 66.8573 58.3721 66.0081 57.8574 64.4032L57.8139 64.2686L56.5326 64.7355L56.5673 64.8571C57.1689 66.9246 58.8802 68.1582 61.141 68.1582C63.6928 68.1582 65.4758 66.7444 65.4758 64.7225C65.4758 62.7006 64.0642 61.7754 61.6232 60.9979L61.6253 61.0023Z" fill="white"></path>
<path d="M76.3649 65.2763L69.8736 55.5708H68.4229V67.9345H69.7911V57.9185L76.4931 67.9345H77.731V55.5708H76.3649V65.2763Z" fill="white"></path>
<path d="M82.65 62.0665H87.1759V60.7504H82.65V56.9195H88.7113V55.5708H81.2166V67.9345H89.0544V66.6011H82.65V62.0665Z" fill="white"></path>
<path d="M90.7419 55.5708V56.9195H94.6488V67.9345H96.08V56.9195H99.9848V55.5708H90.7419Z" fill="white"></path>
</g>
</g>








</svg>