<?xml version="1.0" encoding="UTF-8" standalone="no"?>
<svg
   fill="none"
   viewBox="0 0 618.65173 685.33649"
   version="1.1"
   id="svg3"
   sodipodi:docname="TOR_light.svg"
   width="618.65173"
   height="685.33649"
   inkscape:version="1.4 (86a8ad7, 2024-10-11)"
   xmlns:inkscape="http://www.inkscape.org/namespaces/inkscape"
   xmlns:sodipodi="http://sodipodi.sourceforge.net/DTD/sodipodi-0.dtd"
   xmlns="http://www.w3.org/2000/svg"
   xmlns:svg="http://www.w3.org/2000/svg">
  <defs
     id="defs3" />
  <sodipodi:namedview
     id="namedview3"
     pagecolor="#ffffff"
     bordercolor="#000000"
     borderopacity="0.25"
     inkscape:showpageshadow="2"
     inkscape:pageopacity="0.0"
     inkscape:pagecheckerboard="0"
     inkscape:deskcolor="#d1d1d1"
     inkscape:zoom="0.91796875"
     inkscape:cx="245.10638"
     inkscape:cy="472.2383"
     inkscape:window-width="3440"
     inkscape:window-height="1377"
     inkscape:window-x="-8"
     inkscape:window-y="-8"
     inkscape:window-maximized="1"
     inkscape:current-layer="svg3" />
  <path
     id="path4"
     style="fill:#ffffff"
     sodipodi:type="inkscape:offset"
     inkscape:radius="26.190031"
     inkscape:original="M 480 3.4628906 A 1 1 0 0 0 479.14844 3.9375 C 468.73144 20.9705 459.06792 38.118047 453.04492 55.748047 A 0.97 0.97 0 0 1 452.46484 56.345703 A 0.966 0.966 0 0 1 451.63477 56.265625 C 445.23477 52.445625 438.52817 48.935172 432.82617 46.951172 A 0.92 0.92 0 0 0 431.63477 47.609375 C 427.88277 63.189375 425.94483 82.53225 427.17383 100.03125 A 0.95 0.95 0 0 1 426.72461 100.91406 A 0.952 0.952 0 0 1 425.73438 100.91016 C 417.56637 95.977156 408.58895 91.457859 400.75195 88.505859 A 0.965 0.965 0 0 0 399.46875 89.242188 C 395.92075 108.58519 394.41611 129.45927 397.66211 148.07227 A 0.918 0.918 0 0 1 396.92383 149.14648 A 0.918 0.918 0 0 1 396.44727 149.10938 C 385.34527 145.25938 371.93603 142.75867 360.83203 142.26367 A 0.932 0.932 0 0 0 359.875 143.02734 A 0.937 0.937 0 0 0 359.89844 143.4668 C 366.33744 165.0088 376.4943 188.96606 389.7793 208.66406 A 0.942 0.942 0 0 1 389.04883 210.14062 C 383.46283 210.45663 377.56844 211.01948 373.14844 212.02148 A 0.96 0.96 0 0 0 372.51562 213.39648 C 383.03562 233.91048 393.82547 256.25222 400.98047 279.69922 C 401.20747 280.44222 400.35575 281.06705 399.71875 280.62305 C 371.79675 261.10105 345.0022 232.46141 324.2832 206.69141 A 0.96 0.96 0 0 0 322.97266 206.51367 C 317.76266 210.26267 313.81325 214.73723 310.78125 219.74023 A 0.97 0.97 0 0 1 309.22266 219.89258 C 297.45866 206.68858 283.95289 194.66452 268.83789 183.72852 A 1.01 1.01 0 0 0 267.37695 184.03711 C 262.25295 193.07911 259.75725 203.51758 257.65625 212.76758 A 0.936 0.936 0 0 1 256.74414 213.5 A 0.957 0.957 0 0 1 256.33594 213.40625 C 242.05194 206.58225 224.88281 199.52881 209.88281 195.63281 C 209.17581 195.44981 208.52116 196.08283 208.66016 196.79883 C 211.88016 213.45283 216.19614 228.82317 222.86914 242.20117 A 0.955 0.955 0 0 1 222.86328 243.08398 A 0.955 0.955 0 0 1 222.13867 243.58789 C 213.99867 244.74489 205.95378 246.9582 197.42578 250.1582 A 1.016 1.016 0 0 0 196.77539 251.19922 C 196.78839 251.34522 196.8313 251.48723 196.9043 251.61523 C 206.9323 268.86123 218.50431 283.08741 231.82031 294.19141 A 0.958 0.958 0 0 1 231.69141 295.75977 A 79.503 79.503 0 0 0 216.9707 307.08984 A 1.008 1.008 0 0 0 216.9707 308.51758 A 355.515 355.515 0 0 0 272.22852 352.95703 A 0.992 0.992 0 0 1 272.68164 353.75781 A 0.992 0.992 0 0 1 272.28906 354.58984 C 264.92306 360.28884 258.43514 366.20342 252.86914 372.85742 A 1 1 0 0 0 252.97656 374.24609 C 267.45956 387.06309 284.04102 397.44864 303.29102 405.30664 A 0.984 0.984 0 0 1 303.90039 406.09961 A 0.987 0.987 0 0 1 303.50586 407.01953 C 296.65886 412.16653 291.09366 417.85948 285.97266 424.02148 A 0.983 0.983 0 0 0 285.77344 424.41406 A 0.99 0.99 0 0 0 285.94141 425.25781 A 0.993 0.993 0 0 0 286.27734 425.54492 C 300.03434 432.61492 316.73178 437.18436 334.05078 440.31836 C 334.83778 440.46136 334.89977 441.54716 334.13477 441.78516 C 312.01877 448.62916 291.70581 457.47373 272.25781 468.30273 A 0.997 0.997 0 0 0 272.14844 469.97461 C 286.40344 480.56261 300.93947 489.79172 317.85547 496.38672 A 0.975 0.975 0 0 1 318.47656 497.14844 A 0.984 0.984 0 0 1 318.12305 498.06836 C 295.00505 516.91136 276.1028 538.60127 259.5918 562.19727 C 259.0978 562.90327 259.68892 563.87072 260.54492 563.76172 C 284.10492 560.76472 306.02988 557.0823 324.92188 551.9043 A 0.944 0.944 0 0 1 326.01953 553.24609 C 321.97253 561.32209 318.32219 569.9195 314.99219 578.9375 C 314.73519 579.6335 315.31378 580.36516 316.05078 580.28516 C 337.29478 577.98316 356.60281 575.28602 372.00781 571.79102 C 372.86981 571.59502 373.51234 572.54225 373.02734 573.28125 C 366.51034 583.20825 361.89359 593.95191 358.18359 605.75391 C 357.95759 606.47191 358.59208 607.18006 359.33008 607.03906 C 396.57208 599.92606 430.4643 589.2708 460.5293 574.8418 C 461.3413 574.4518 462.26908 575.01116 462.33008 575.91016 C 464.14108 602.61416 474.26409 621.18447 488.12109 636.10547 C 488.63509 636.65847 489.50459 636.68483 490.05859 636.17383 L 509.51367 618.21484 C 510.10367 617.66984 510.15886 616.76025 509.63086 616.15625 C 505.78286 611.75625 488.07403 591.66181 491.20703 576.38281 C 491.58003 574.56281 493.60192 573.58947 495.29492 574.35547 C 517.72692 584.50347 564.21766 600.00183 600.72266 607.04883 C 601.44266 607.18883 602.04813 606.49397 601.82812 605.79297 C 598.11613 593.97597 593.49666 583.21825 586.97266 573.28125 C 586.48766 572.54125 587.13019 571.59597 587.99219 571.79297 C 603.39719 575.28697 622.70522 577.98316 643.94922 580.28516 A 1.012 1.012 0 0 0 645.00781 578.93555 C 641.67781 569.91855 638.02842 561.32209 633.98242 553.24609 A 0.944 0.944 0 0 1 635.07812 551.9043 C 653.97013 557.0823 675.89408 560.76572 699.45508 563.76172 C 700.31008 563.87072 700.9032 562.90427 700.4082 562.19727 C 683.8982 538.60327 664.99495 516.91041 641.87695 498.06641 A 0.99 0.99 0 0 1 641.52344 497.14844 A 0.978 0.978 0 0 1 642.14453 496.38672 C 659.06053 489.79172 673.59556 480.56261 687.85156 469.97461 A 0.994 0.994 0 0 0 688.25195 469.10742 A 0.993 0.993 0 0 0 687.74219 468.30273 C 668.29519 457.47373 647.98123 448.62916 625.86523 441.78516 C 625.10023 441.54816 625.16317 440.46136 625.95117 440.31836 C 643.26917 437.18436 659.96566 432.61392 673.72266 425.54492 A 0.996 0.996 0 0 0 674.02734 424.02148 C 668.90634 417.85848 663.34019 412.16653 656.49219 407.01953 A 0.987 0.987 0 0 1 656.09961 406.09961 A 0.99 0.99 0 0 1 656.70898 405.30664 C 675.95898 397.44864 692.54044 387.06409 707.02344 374.24609 C 707.42644 373.89109 707.47586 373.26942 707.13086 372.85742 C 701.56586 366.20342 695.07794 360.28784 687.71094 354.58984 A 1.002 1.002 0 0 1 687.77148 352.95703 A 355.476 355.476 0 0 0 743.0293 308.51758 C 743.4253 308.12758 743.4293 307.47684 743.0293 307.08984 A 79.463 79.463 0 0 0 728.30859 295.75977 A 0.958 0.958 0 0 1 728.17773 294.19141 C 741.49573 283.08741 753.0687 268.86123 763.0957 251.61523 A 1.023 1.023 0 0 0 762.9375 250.39844 A 1.016 1.016 0 0 0 762.57422 250.1582 C 754.04522 246.9582 746.00233 244.74589 737.86133 243.58789 A 0.956 0.956 0 0 1 737.02734 242.64258 A 0.967 0.967 0 0 1 737.13086 242.20117 C 743.80286 228.82317 748.12084 213.45283 751.33984 196.79883 C 751.47784 196.08183 750.82319 195.44881 750.11719 195.63281 C 735.11719 199.52881 717.94806 206.58225 703.66406 213.40625 A 0.931 0.931 0 0 1 702.52148 213.14453 A 0.936 0.936 0 0 1 702.3418 212.76562 C 700.2418 203.51562 697.748 193.07911 692.625 184.03711 A 1.016 1.016 0 0 0 691.96289 183.55859 A 1.015 1.015 0 0 0 691.16211 183.72852 C 676.04811 194.66452 662.5423 206.68858 650.7793 219.89258 A 0.967 0.967 0 0 1 649.53125 220.06641 A 0.979 0.979 0 0 1 649.21875 219.74023 C 646.18675 214.73623 642.23539 210.26267 637.02539 206.51367 A 0.966 0.966 0 0 0 635.7168 206.6875 C 616.3108 230.6875 591.88714 257.94944 560.36914 280.52344 C 559.71514 280.99144 558.81873 280.35398 559.05273 279.58398 C 566.20773 256.17998 576.98142 233.87648 587.48242 213.39648 A 0.956 0.956 0 0 0 586.85156 212.01953 C 582.43156 211.01853 576.53717 210.45663 570.95117 210.14062 A 0.947 0.947 0 0 1 570.05859 209.13281 A 0.94 0.94 0 0 1 570.2207 208.66406 C 583.5057 188.96606 593.66256 165.0088 600.10156 143.4668 A 0.937 0.937 0 0 0 599.59961 142.34961 A 0.932 0.932 0 0 0 599.16797 142.26367 C 588.06397 142.75967 574.65473 145.25837 563.55273 149.10938 A 0.918 0.918 0 0 1 562.33789 148.07227 C 565.58289 129.45927 564.07925 108.58519 560.53125 89.242188 A 0.959 0.959 0 0 0 560.06055 88.572266 A 0.961 0.961 0 0 0 559.24609 88.505859 C 551.41009 91.457859 542.43363 95.978109 534.26562 100.91211 A 0.952 0.952 0 0 1 533.27539 100.91406 A 0.942 0.942 0 0 1 532.82617 100.03125 C 534.05517 82.53125 532.11623 63.190375 528.36523 47.609375 A 0.92 0.92 0 0 0 527.17383 46.951172 C 521.47083 48.934172 514.76423 52.446625 508.36523 56.265625 A 0.96 0.96 0 0 1 506.95508 55.748047 C 500.93208 38.118047 491.26756 20.9705 480.85156 3.9375 A 0.996 0.996 0 0 0 480 3.4628906 z "
     d="m 479.9707,-22.720703 c -9.21303,0.01089 -18.26474,5.058966 -23.10547,12.8984374 a 26.19265,26.19265 0 0 0 -0.0605,0.095703 C 450.66607,0.31078473 444.62675,10.76559 439.17773,21.712891 c -13.80942,-3.320988 -29.69479,5.891038 -33.01757,19.824218 -1.60701,6.682194 -2.7861,13.814898 -3.72852,21.091797 -13.01189,-0.48551 -26.39725,8.942328 -28.73828,21.994141 -1.88476,10.295025 -3.28149,21.098583 -3.80469,32.121093 -2.64504,-0.26232 -5.29472,-0.52881 -7.89062,-0.64453 a 26.19265,26.19265 0 0 0 -0.0371,-0.002 c -12.93208,-0.5583 -25.49047,9.45781 -27.83789,22.18554 -0.77437,4.2025 -0.5417,8.58722 0.68164,12.68164 a 26.19265,26.19265 0 0 0 0,0.002 c 4.39635,14.70823 10.44738,30.23447 17.92578,45.375 -0.46785,0.62165 -0.82879,1.3071 -1.24805,1.96484 -2.24098,-2.67105 -4.65934,-5.37715 -6.77148,-8.00391 -7.97899,-9.94532 -23.37249,-12.57102 -34.47071,-6.50586 -8.19048,-7.51096 -16.85262,-14.63206 -26.05078,-21.2871 a 26.19265,26.19265 0 0 0 -0.0547,-0.041 c -12.24452,-8.81021 -31.71008,-4.69888 -39.34571,8.31055 a 26.19265,26.19265 0 0 0 -0.19726,0.3457 c -1.37815,2.43192 -2.4379,4.81865 -3.52149,7.20508 -8.07661,-3.09311 -16.36951,-5.90823 -24.60351,-8.04688 a 26.19265,26.19265 0 0 0 -0.0215,-0.004 c -18.68181,-4.83561 -37.10404,12.84555 -33.49804,31.49218 3.8e-4,0.002 0.002,0.004 0.002,0.006 1.5492,8.01187 3.42113,15.9297 5.67578,23.73047 -0.13247,0.0494 -0.26796,0.0792 -0.40039,0.12891 a 26.19265,26.19265 0 0 0 -0.11719,0.0449 c -10.98574,4.18227 -18.46137,16.14207 -17.41601,27.84961 0.33256,3.71969 1.44988,7.52894 3.46289,11.05859 a 26.19265,26.19265 0 0 0 0.10937,0.18946 c 6.10608,10.50113 12.91346,20.14496 20.35938,28.97656 -5.92559,10.3536 -4.69575,24.78391 3.85742,33.31055 a 26.19265,26.19265 0 0 0 0.12305,0.12109 c 10.65546,10.48226 21.99435,20.25067 33.80468,29.41211 -8.52008,10.78041 -7.08873,28.1618 3.23242,37.27734 0.001,0.001 0.003,0.003 0.004,0.004 8.16989,7.22765 16.98467,13.78742 26.4082,19.66601 -0.64914,1.44169 -1.26586,2.90288 -1.65429,4.43555 -1.9826,7.8263 -0.25073,16.50355 4.58789,22.9668 0.29429,0.39302 0.68857,0.69792 1.0039,1.07422 -2.14945,1.14102 -4.34173,2.20936 -6.46679,3.39258 -0.001,7.1e-4 -0.003,0.001 -0.004,0.002 -7.7e-4,4.3e-4 -0.001,0.002 -0.002,0.002 -15.79662,8.79565 -17.49698,34.81135 -2.97656,45.58594 5.66877,4.21027 11.63254,8.26612 17.7871,12.18555 -13.39056,13.91833 -25.4445,28.62616 -36.19531,43.99023 -12.56293,17.95431 4.10111,45.30941 25.7168,42.56055 8.9884,-1.14339 17.59109,-2.53768 26.19141,-3.93946 3.47185,12.25245 15.24928,21.99179 28.83203,20.51954 4.59952,-0.49841 8.75973,-1.11804 13.19531,-1.65821 -0.51069,16.44347 15.16463,31.34971 32.17578,28.09961 27.85703,-5.32053 54.09109,-12.66966 78.6582,-22.03125 6.00889,17.25127 15.35524,31.70376 26.02735,43.19531 a 26.19265,26.19265 0 0 0 0.008,0.008 c 10.25876,11.03715 27.9562,11.56515 38.87891,1.49023 a 26.19265,26.19265 0 0 0 0.006,-0.008 l 19.45507,-17.95899 a 26.19265,26.19265 0 0 0 0.008,-0.006 c 5.68265,-5.24922 8.55444,-12.69671 8.61718,-20.18945 19.40872,6.11693 40.40588,11.74424 59.82227,15.49414 0.005,9e-4 0.009,0.001 0.0137,0.002 17.02073,3.29977 32.6199,-11.81184 32.18359,-28.09571 4.43881,0.54054 8.60209,1.15943 13.20508,1.65821 a 26.19265,26.19265 0 0 0 0.0645,0.008 c 12.79055,1.35452 24.51624,-8.60234 28.33984,-20.5918 8.73396,1.43011 17.48477,2.84214 26.62109,4.00391 21.61945,2.74716 38.26914,-24.61826 25.71485,-42.56055 l -0.002,-0.004 c -10.74963,-15.36169 -22.80334,-30.06794 -36.19336,-43.98632 6.14442,-3.91298 12.09759,-7.96118 17.75782,-12.16407 l 0.004,-0.004 c 7.28157,-5.39078 11.54216,-14.61091 10.94336,-23.65039 -0.60013,-9.02322 -6.02346,-17.58369 -13.93164,-21.97071 -2.20035,-1.22491 -4.46874,-2.33597 -6.69531,-3.51562 6.02782,-7.85364 7.73309,-19.0676 4.04687,-28.23828 9.48146,-5.90259 18.34213,-12.50009 26.55665,-19.76758 10.79758,-9.52933 12.21296,-25.99544 3.23632,-37.2793 11.81124,-9.16196 23.15056,-18.93096 33.80664,-29.41406 a 26.19265,26.19265 0 0 0 0.01,-0.01 c 9.06,-8.92272 10.45767,-22.93412 4.03906,-33.49804 7.41979,-8.81047 14.20376,-18.43058 20.29102,-28.90039 a 26.19265,26.19265 0 0 0 0.16797,-0.29102 c 5.73014,-10.15184 3.93442,-23.9826 -4.18946,-32.3418 -2.72629,-2.80466 -6.06376,-5.01376 -9.71289,-6.42187 a 26.19265,26.19265 0 0 0 -0.22851,-0.0879 c -0.13245,-0.0497 -0.26791,-0.0795 -0.40039,-0.12891 2.25551,-7.80288 4.13239,-15.72302 5.68164,-23.73828 a 26.19265,26.19265 0 0 0 0.004,-0.0215 c 3.58383,-18.62031 -14.82928,-36.33317 -33.54297,-31.45899 -8.22762,2.13788 -16.5137,4.95039 -24.58398,8.04102 -1.08311,-2.38582 -2.14198,-4.77178 -3.51953,-7.20313 a 26.19265,26.19265 0 0 0 -0.20703,-0.35742 c -3.80164,-6.4698 -10.39259,-11.23491 -17.72852,-12.81445 a 26.19265,26.19265 0 0 0 -0.1582,-0.0332 c -7.36893,-1.5396 -15.35429,0.15508 -21.46289,4.55469 a 26.19265,26.19265 0 0 0 -0.0469,0.0332 c -9.19682,6.65452 -17.85704,13.77462 -26.04687,21.28515 -11.01965,-6.03222 -26.27907,-3.49844 -34.30274,6.29297 a 26.19265,26.19265 0 0 0 -0.10742,0.13281 c -2.15371,2.66357 -4.56304,5.41534 -6.82812,8.125 -0.42329,-0.66669 -0.78671,-1.36239 -1.25977,-1.99218 7.48117,-15.14422 13.53415,-30.67469 17.93164,-45.38672 a 26.19265,26.19265 0 0 0 0.002,-0.01 c 3.68357,-12.34343 -2.85633,-26.90084 -14.53125,-32.34375 a 26.19265,26.19265 0 0 0 -0.0312,-0.0156 c -3.90873,-1.81583 -8.25636,-2.68219 -12.5625,-2.50196 a 26.19265,26.19265 0 0 0 -0.0723,0.004 c -2.59481,0.11591 -5.24435,0.38421 -7.88867,0.64648 -0.52137,-10.98954 -1.91258,-21.759525 -3.78906,-32.02734 -1.37392,-7.831357 -6.37601,-14.946907 -13.28125,-18.888672 -4.66709,-2.663404 -10.134,-3.715805 -15.49024,-3.335937 -0.94105,-7.22919 -2.11448,-14.316542 -3.71094,-20.957032 C 550.51703,27.603796 534.63179,18.393582 520.82227,21.714844 515.37281,10.766731 509.33339,0.31086054 503.19531,-9.7265625 a 26.19265,26.19265 0 0 0 -0.0293,-0.046875 C 498.32232,-17.657237 489.22303,-22.730511 479.9707,-22.720703 Z m 20.74219,53.285156 c -1.92105,1.07454 -3.91184,2.102247 -5.76953,3.210938 A 26.19265,26.19265 0 0 0 494.75,33.892578 c 4.81032,-2.927291 5.13316,-3.307716 5.96289,-3.328125 z M 461.75,31.935547 c 0.38409,0.103781 0.84289,0.240582 1.05859,0.279297 0.44153,0.360373 0.66223,0.605104 2.34766,1.621093 a 26.19265,26.19265 0 0 0 -0.0977,-0.05859 c -1.06574,-0.636116 -2.22392,-1.214737 -3.30859,-1.841797 z m 67.51758,9.023437 c 1.67121,2.376547 2.52986,7.565675 2.4707,6.322266 -0.73856,-2.161844 -1.65895,-4.206529 -2.4707,-6.322266 z m -99.54883,2.595703 c -0.46139,1.258245 -1.02164,2.452124 -1.45703,3.726563 a 26.19265,26.19265 0 0 0 -0.0215,0.06055 c 0.62818,-1.853664 0.636,-2.172682 0.74219,-2.734375 0.16459,-0.199953 0.45038,-0.629719 0.73633,-1.052735 z m 95.02148,32.722657 c -1.32586,0.763525 -2.71182,1.429215 -4.01562,2.216797 a 26.19265,26.19265 0 0 0 -0.12305,0.07617 c 1.94626,-1.190353 2.49329,-1.655983 2.87305,-2.019531 0.1939,-0.0119 0.88115,-0.197513 1.26562,-0.273437 z m -89.45703,0.01367 c 0.39677,0.07981 1.09522,0.266832 1.29297,0.279296 0.37962,0.364511 0.92478,0.830164 2.86719,2.023438 a 26.19265,26.19265 0 0 0 -0.16992,-0.101563 c -1.29532,-0.782294 -2.67314,-1.442625 -3.99024,-2.201171 z m -34.36328,20.96289 c 0.0688,1.537402 0.0212,3.077814 0.12891,4.611324 a 26.19265,26.19265 0 0 0 0.0137,0.19922 c -0.17742,-2.278556 -0.34421,-2.983352 -0.49609,-3.486325 0.082,-0.187731 0.23841,-0.913136 0.35351,-1.324219 z m 158.16016,0.03906 c 0.12051,0.437975 0.28024,1.196712 0.36523,1.390625 -0.15573,0.500749 -0.3291,1.223858 -0.51953,3.515626 a 26.19265,26.19265 0 0 0 0.0254,-0.33399 c 0.10678,-1.52046 0.0604,-3.048 0.12891,-4.572261 z m 1.94726,24.931641 c 0.10686,-0.009 0.50328,0.10522 0.61328,0.10547 -2.22916,0.65725 -4.4742,1.27317 -6.66015,2.03125 3.56972,-1.32332 4.94522,-2.04312 6.04687,-2.13672 z m -168.77343,1.15234 c -0.0553,0.01 -0.11654,0.0176 -0.0918,0.0117 0.05,-0.009 0.0408,-0.002 0.0918,-0.0117 z m 10.3164,0.23828 c 0.67259,0.13626 0.68268,0.10891 1.08789,0.17774 0.57856,0.23262 0.33777,0.2049 1.54883,0.63476 a 26.19265,26.19265 0 0 0 -0.17969,-0.0625 c -0.80649,-0.27968 -1.64398,-0.48397 -2.45703,-0.75 z m 186.53321,22.19336 c 0.18461,1.19933 -0.17229,2.82478 -0.96485,6.75586 0.39219,-2.2501 0.68214,-4.50302 0.96485,-6.75586 z m -218.06836,0.97266 c 0.25546,1.93065 0.48986,3.86258 0.82617,5.79102 a 26.19265,26.19265 0 0 0 0.0684,0.37695 c -1.44043,-7.60126 -1.77131,-3.73033 -0.89453,-6.16797 z m 206.52734,37.03906 c 0.0274,0.007 0.13181,0.19006 0.76562,0.63086 -1.97823,-0.15995 -3.99268,-0.35117 -5.89843,-0.45898 a 26.19265,26.19265 0 0 0 -0.0293,-0.002 c 4.93789,0.2735 5.10989,-0.18342 5.16211,-0.16992 z m -190.12695,0.18164 c -2.16322,0.12292 -4.43187,0.32672 -6.68946,0.52344 1.12303,-0.40907 2.71752,-0.35907 6.68946,-0.52344 z m 309.54297,3.66211 c -1.5228,0.70592 -3.12959,1.40718 -4.60352,2.11133 a 26.19265,26.19265 0 0 0 -0.23828,0.11328 c 2.61033,-1.27954 3.52368,-1.89901 3.8125,-2.20898 0.12509,0.0315 0.73774,-0.0244 1.0293,-0.0156 z m -431.16016,1.28321 c 0.33754,0.11329 0.3349,0.097 0.58789,0.17773 0.53737,0.27554 0.2431,0.18092 1.23633,0.65625 a 26.19265,26.19265 0 0 0 -0.0176,-0.006 c -0.57839,-0.27632 -1.22047,-0.55127 -1.80664,-0.82812 z m 457.25195,7.95898 c 0.0316,0.04 0.012,0.01 0.043,0.0488 0.0154,0.0197 0.008,0.0152 0.0234,0.0351 a 26.19265,26.19265 0 0 0 -0.0664,-0.084 z m -398.98633,0.5957 c 0.79732,0.35233 1.1763,1.02936 4.67579,4.94922 -1.50705,-1.69116 -3.12121,-3.2963 -4.67579,-4.94922 z m 310.90625,0.98242 c -1.2447,1.33765 -2.55182,2.62384 -3.76562,3.98633 a 26.19265,26.19265 0 0 0 -0.0879,0.0977 c 5.42248,-6.14796 1.23883,-3.12461 3.85351,-4.08399 z m -342.71484,1.92579 c -1.41057,1.88478 -2.71176,3.80743 -3.89258,5.75586 a 26.19265,26.19265 0 0 0 -0.14648,0.24609 c 2.85818,-4.83458 3.11478,-5.44774 4.03906,-6.00195 z m -58.85937,1.46875 c -0.37634,1.62081 -0.96626,3.62368 -1.29883,5.08789 a 26.19265,26.19265 0 0 0 -0.0234,0.10351 c 0.60202,-2.70167 0.71105,-3.84524 0.66602,-4.30859 0.10409,-0.0872 0.47704,-0.66772 0.65625,-0.88281 z m 436.80273,2.21484 c 0.64427,0.84997 0.53076,0.62904 0.89453,1.08008 0.29274,0.5354 0.10574,0.3086 0.6875,1.29883 a 26.19265,26.19265 0 0 0 -0.18359,-0.30469 c -0.42531,-0.70192 -0.94316,-1.37917 -1.39844,-2.07422 z m 57.14648,0.8457 c 0.17362,0.49274 0.18025,0.44539 0.30469,0.77735 0.11354,0.59719 0.006,0.3146 0.24805,1.41406 a 26.19265,26.19265 0 0 0 -0.0352,-0.16406 c -0.13246,-0.58347 -0.37968,-1.41791 -0.51758,-2.02735 z m -508.55078,12.66992 a 26.19265,26.19265 0 0 0 -0.36133,0.0488 c -1.46526,0.20827 -2.8736,0.63062 -4.32421,0.89063 0.71778,-0.30665 1.34167,-0.57919 1.61718,-0.74219 0.55305,0.0218 1.00672,0.0666 3.06836,-0.19727 z m 522.38867,0.002 c 8.42876,1.08455 3.10758,-0.79204 6.14649,1.24219 -1.93983,-0.37191 -3.83517,-0.91572 -5.80078,-1.19532 a 26.19265,26.19265 0 0 0 -0.34571,-0.0469 z m -541.48437,13.21289 c -0.0176,0.0339 -0.0358,0.0638 -0.0273,0.0449 0.0164,-0.0309 0.0107,-0.0135 0.0273,-0.0449 z m 563.49805,11.6543 c 2.2e-4,0.0351 0.002,0.0104 0.002,0.0449 5e-5,0.0238 -0.002,0.017 -0.002,0.041 a 26.19265,26.19265 0 0 0 0,-0.0859 z m -565.47266,7.59179 c 0.58632,1.26607 1.06415,2.56672 1.68945,3.82031 a 26.19265,26.19265 0 0 0 0.13086,0.26172 c -0.94853,-1.84963 -1.24149,-2.19881 -1.57226,-2.64257 -0.0176,-0.26224 -0.14464,-0.88451 -0.24805,-1.43946 z m 563.87109,1.45313 c -0.2901,0.80814 -0.21031,0.69091 -0.36523,1.16406 -0.2932,0.53791 -0.20713,0.26283 -0.73242,1.30469 a 26.19265,26.19265 0 0 0 0.0508,-0.10157 c 0.38736,-0.77669 0.6746,-1.58564 1.04687,-2.36718 z m -20.20898,21.55664 c 4.85711,2.8048 5.55004,3.14572 6.20117,4.1875 -1.94281,-1.34642 -3.83051,-2.77343 -5.85937,-3.98633 a 26.19265,26.19265 0 0 0 -0.3418,-0.20117 z m -522.84375,0.0176 a 26.19265,26.19265 0 0 0 -0.31055,0.18359 c -2.03411,1.21621 -3.92737,2.64769 -5.875,3.99805 0.64629,-1.03313 1.34319,-1.37638 6.18555,-4.18164 z m 542.67773,15.16992 c 0.0267,0.026 0.0449,0.0469 0.0273,0.0312 -0.0102,-0.01 -0.0172,-0.0214 -0.0273,-0.0312 z m -11.07031,21.22656 c -0.45164,0.99375 -1.15471,1.45496 -5.31836,4.89258 a 26.19265,26.19265 0 0 0 0.0977,-0.0801 c 1.81169,-1.51052 3.47402,-3.21675 5.2207,-4.8125 z m -540.32812,0.0117 c 1.74183,1.59114 3.3986,3.29439 5.20507,4.80078 a 26.19265,26.19265 0 0 0 0.1211,0.0996 c -4.17535,-3.43961 -4.8732,-3.90152 -5.32617,-4.90039 z m 46.64453,24.19922 a 26.19265,26.19265 0 0 0 -0.22266,0.16992 c -1.08667,0.84075 -2.08913,1.80916 -3.16015,2.67383 0.31128,-0.42741 0.69109,-0.92771 0.81445,-1.14649 0.49002,-0.25533 0.91081,-0.44304 2.56836,-1.69726 z m 447.16992,0.10742 c 4.26481,3.27285 4.96086,3.66415 5.41602,4.57422 -1.78875,-1.4905 -3.5024,-3.09401 -5.3379,-4.51367 a 26.19265,26.19265 0 0 0 -0.0781,-0.0605 z m -457.15039,20.80078 c 0.003,0.0755 0,0.15365 -0.004,0.11719 -0.002,-0.0764 0.007,-0.0381 0.004,-0.11719 z m 461.19336,16.41406 c -0.49969,0.7279 -1.30313,1.03431 -5.56641,3.83008 l -0.0664,0.043 c 1.90938,-1.24389 3.74608,-2.59508 5.63281,-3.87305 z m -453.0332,1.62696 c 1.09957,0.73277 2.15847,1.52481 3.26562,2.24609 a 26.19265,26.19265 0 0 0 0.084,0.0547 c -1.74944,-1.13034 -2.18474,-1.28847 -2.6914,-1.50586 -0.10263,-0.15386 -0.44994,-0.53953 -0.6582,-0.79492 z m 33.32812,13.26367 a 26.19265,26.19265 0 0 0 -0.22461,0.16601 c -1.18094,0.88774 -2.25567,1.81721 -3.37695,2.72852 0.22616,-0.33373 0.6421,-0.87764 0.73242,-1.05664 0.48215,-0.22095 1.06928,-0.51489 2.86914,-1.83789 z m 384.05664,0.0332 c 1.79571,1.32616 2.37956,1.62146 2.86133,1.84375 0.0881,0.17549 0.49888,0.71114 0.7168,1.03516 -1.12886,-0.91779 -2.21114,-1.85225 -3.40039,-2.7461 a 26.19265,26.19265 0 0 0 -0.17774,-0.13281 z m 22.05664,21.25586 c 0.0215,0.0254 0.0293,0.0384 0.0117,0.0195 -0.005,-0.006 -0.007,-0.0136 -0.0117,-0.0195 z m -428.24219,0.0332 c -0.002,0.003 -0.003,0.007 -0.006,0.01 -0.009,0.0106 -0.0205,0.0207 -0.0293,0.0312 z m 12.04102,2.05079 c 0.005,0.0391 0.007,0.0833 0.004,0.0664 -0.005,-0.0424 0.001,-0.0232 -0.004,-0.0664 z m 404.17578,0.0937 c -0.003,0.0255 0.001,0.0139 -0.002,0.0391 -0.002,0.0116 -0.002,0.006 -0.004,0.0176 a 26.19265,26.19265 0 0 0 0.006,-0.0566 z m -11.33789,18.27929 c -0.29648,0.26358 -0.82858,0.68244 -0.95898,0.83203 -0.3664,0.0683 -1.1849,0.3522 -2.25,0.75196 -0.0449,-0.0192 -0.0918,-0.0355 -0.13672,-0.0547 1.14593,-0.47323 2.21408,-1.03892 3.3457,-1.5293 z m -381.46875,0.008 c 1.12522,0.48748 2.1868,1.05097 3.32617,1.52149 -0.0486,0.0208 -0.0998,0.0378 -0.14844,0.0586 -0.99736,-0.3663 -1.83288,-0.65591 -2.18359,-0.71875 -0.13436,-0.15408 -0.68193,-0.5857 -0.99414,-0.86133 z m 12.39063,50.02149 a 26.19265,26.19265 0 0 0 -0.0899,0.0742 c -1.16718,0.95135 -2.19475,1.98913 -3.3418,2.95312 0.21747,-0.34975 0.60618,-0.90205 0.69141,-1.08789 0.47339,-0.24708 1.02104,-0.55083 2.74024,-1.93945 z m 356.75781,0.0723 c 1.68921,1.37427 2.22661,1.6741 2.69726,1.92383 0.0834,0.18088 0.45593,0.71325 0.66211,1.04688 -1.15326,-0.96945 -2.18574,-2.01405 -3.35937,-2.97071 z m -365.82031,23.44727 c 0.003,0.0156 0.004,0.0299 0.002,0.0215 -0.002,-0.0139 2.4e-4,-0.007 -0.002,-0.0215 z m 363.11523,17.78125 c -0.37789,0.31095 -0.95842,0.74694 -1.11328,0.91406 -0.52558,0.0847 -1.15149,0.20384 -3.22852,0.98633 a 26.19265,26.19265 0 0 0 0.28125,-0.10742 c 1.40786,-0.54888 2.68431,-1.21532 4.06055,-1.79297 z M 304.29297,519 c 1.37227,0.57586 2.64514,1.23986 4.04883,1.78711 a 26.19265,26.19265 0 0 0 0.32422,0.125 c -2.08279,-0.78041 -2.71475,-0.90125 -3.24024,-0.98438 -0.15649,-0.16906 -0.74629,-0.61065 -1.13281,-0.92773 z m -1.5293,22.20117 a 26.19265,26.19265 0 0 0 -0.1582,0.31055 c -0.97778,1.9512 -1.83642,3.98846 -2.76563,5.97461 0.37833,-1.44603 1.19244,-2.94203 2.92383,-6.28516 z m 354.48438,0.0195 c 1.72776,3.34247 2.54043,4.83119 2.91797,6.26953 -0.92927,-1.98671 -1.78973,-4.02277 -2.76758,-5.97461 a 26.19265,26.19265 0 0 0 -0.15039,-0.29492 z m -325.12891,35.86524 c -3.25461,0.93012 -4.848,1.38116 -6.24023,1.54492 1.97697,-0.49958 4.02637,-0.93691 5.96679,-1.46875 a 26.19265,26.19265 0 0 0 0.27344,-0.0762 z m 296.03516,0.0762 c 1.92349,0.5272 3.95463,0.96152 5.91406,1.45703 -1.32779,-0.1709 -2.91329,-0.60394 -5.91406,-1.45703 z"
     transform="translate(-170.59403,22.720717)" />
  <path
     fill="#00205b"
     d="m 446.94997,618.60772 v 11.824 h -2.957 v -11.824 h -3.423 v -2.937 h 9.803 v 2.937 z m 16.023,11.824 v -8.712 l -2.49,5.428 h -2.612 l -2.49,-5.428 v 8.713 h -2.956 v -14.763 h 2.956 l 3.796,7.883 3.796,-7.883 h 2.956 v 14.761 z"
     id="path1" />
  <path
     fill="#00205b"
     d="m 592.50097,274.33572 a 1.023,1.023 0 0 0 -0.157,-1.217 1.016,1.016 0 0 0 -0.364,-0.239 c -8.529,-3.2 -16.572,-5.414 -24.713,-6.572 a 0.956,0.956 0 0 1 -0.834,-0.945 0.967,0.967 0 0 1 0.104,-0.441 c 6.672,-13.378 10.989,-28.748 14.208,-45.402 0.138,-0.717 -0.515,-1.35 -1.221,-1.166 -15,3.896 -32.17,10.949 -46.454,17.773 a 0.931,0.931 0 0 1 -1.143,-0.262 0.936,0.936 0 0 1 -0.179,-0.378 c -2.1,-9.25 -4.594,-19.686 -9.717,-28.728 a 1.016,1.016 0 0 0 -0.663,-0.479 1.015,1.015 0 0 0 -0.8,0.169 c -15.114,10.936 -28.62,22.96 -40.383,36.164 a 0.967,0.967 0 0 1 -1.247,0.174 0.979,0.979 0 0 1 -0.314,-0.326 c -3.032,-5.004 -6.982,-9.478 -12.192,-13.227 a 0.966,0.966 0 0 0 -1.31,0.175 c -19.406,24 -43.829,51.262 -75.347,73.836 -0.654,0.468 -1.55,-0.17 -1.316,-0.94 7.155,-23.404 17.929,-45.707 28.43,-66.187 a 0.956,0.956 0 0 0 -0.632,-1.377 c -4.42,-1.001 -10.314,-1.563 -15.9,-1.879 a 0.947,0.947 0 0 1 -0.893,-1.009 0.94,0.94 0 0 1 0.163,-0.467 c 13.285,-19.698 23.441,-43.656 29.88,-65.198 a 0.937,0.937 0 0 0 -0.502,-1.117 0.932,0.932 0 0 0 -0.432,-0.086 c -11.104,0.496 -24.513,2.994 -35.615,6.845 a 0.918,0.918 0 0 1 -1.214,-1.037 c 3.245,-18.613 1.741,-39.487 -1.807,-58.83 a 0.959,0.959 0 0 0 -0.47,-0.669 0.961,0.961 0 0 0 -0.814,-0.067 c -7.836,2.952 -16.813,7.472 -24.981,12.406 a 0.952,0.952 0 0 1 -0.991,0.003 0.942,0.942 0 0 1 -0.449,-0.883 c 1.229,-17.5 -0.709,-36.841003 -4.46,-52.422003 a 0.92,0.92 0 0 0 -1.193,-0.658 c -5.703,1.983 -12.409,5.495 -18.808,9.314 a 0.96,0.96 0 0 1 -1.41,-0.518 c -6.023,-17.63 -15.688,-34.777 -26.104,-51.81 a 0.996,0.996 0 0 0 -0.851,-0.475 1,1 0 0 0 -0.851,0.475 c -10.417,17.033 -20.081,34.18 -26.104,51.81 a 0.97,0.97 0 0 1 -0.58,0.598 0.966,0.966 0 0 1 -0.83,-0.08 c -6.4,-3.82 -13.106,-7.33 -18.808,-9.314 a 0.92,0.92 0 0 0 -1.193,0.658 c -3.752,15.58 -5.689,34.922003 -4.46,52.421003 a 0.95,0.95 0 0 1 -0.449,0.883 0.952,0.952 0 0 1 -0.991,-0.003 c -8.168,-4.933 -17.145,-9.453 -24.982,-12.405 a 0.965,0.965 0 0 0 -1.283,0.736 c -3.548,19.343 -5.053,40.217 -1.807,58.83 a 0.918,0.918 0 0 1 -0.738,1.075 0.918,0.918 0 0 1 -0.476,-0.038 c -11.102,-3.85 -24.511,-6.35 -35.615,-6.845 a 0.932,0.932 0 0 0 -0.958,0.763 0.937,0.937 0 0 0 0.024,0.44 c 6.439,21.542 16.595,45.5 29.88,65.198 a 0.942,0.942 0 0 1 -0.73,1.476 c -5.586,0.316 -11.48,0.878 -15.9,1.88 a 0.96,0.96 0 0 0 -0.633,1.376 c 10.52,20.514 21.31,42.855 28.465,66.302 0.227,0.743 -0.625,1.369 -1.262,0.925 -27.922,-19.522 -54.716,-48.162 -75.435,-73.932 a 0.96,0.96 0 0 0 -1.311,-0.178 c -5.21,3.749 -9.159,8.223 -12.191,13.226 a 0.97,0.97 0 0 1 -1.56,0.152 c -11.764,-13.204 -25.27,-25.228 -40.385003,-36.164 a 1.01,1.01 0 0 0 -1.461,0.31 c -5.124,9.042 -7.618,19.479 -9.719,28.729 a 0.936,0.936 0 0 1 -0.913,0.733 0.957,0.957 0 0 1 -0.408,-0.094 c -14.284,-6.824 -31.454,-13.877 -46.454,-17.773 -0.707,-0.183 -1.36,0.45 -1.221,1.166 3.22,16.654 7.536,32.024 14.209,45.402 a 0.955,0.955 0 0 1 -0.007,0.883 0.955,0.955 0 0 1 -0.725,0.504 c -8.14,1.157 -16.184,3.37 -24.712,6.57 a 1.016,1.016 0 0 0 -0.651,1.041 c 0.013,0.146 0.057,0.288 0.13,0.416 10.028,17.246 21.6,31.473 34.916,42.577 a 0.958,0.958 0 0 1 -0.129,1.567 79.503,79.503 0 0 0 -14.722,11.33 1.008,1.008 0 0 0 10e-4,1.428 355.515,355.515 0 0 0 55.257003,44.44 0.992,0.992 0 0 1 0.453,0.8 0.992,0.992 0 0 1 -0.392,0.832 c -7.366003,5.699 -13.854003,11.614 -19.420003,18.268 a 1,1 0 0 0 0.107,1.39 c 14.483,12.817 31.065003,23.201 50.315003,31.059 a 0.984,0.984 0 0 1 0.61,0.794 0.987,0.987 0 0 1 -0.395,0.92 c -6.847,5.147 -12.412,10.84 -17.533,17.002 a 0.983,0.983 0 0 0 -0.199,0.393 0.99,0.99 0 0 0 0.168,0.843 0.993,0.993 0 0 0 0.335,0.286 c 13.757,7.07 30.454,11.64 47.773,14.774 0.787,0.143 0.85,1.23 0.085,1.468 -22.116,6.844 -42.43,15.687 -61.878,26.516 a 0.997,0.997 0 0 0 -0.109,1.672 c 14.255,10.588 28.792,19.817 45.708,26.412 a 0.975,0.975 0 0 1 0.621,0.763 0.984,0.984 0 0 1 -0.353,0.919 c -23.118,18.843 -42.022,40.534 -58.533003,64.13 -0.494,0.706 0.097,1.672 0.953,1.563 23.560003,-2.997 45.485003,-6.678 64.377003,-11.856 a 0.944,0.944 0 0 1 1.098,1.342 c -4.047,8.076 -7.696,16.672 -11.026,25.69 -0.257,0.696 0.32,1.428 1.057,1.348 21.244,-2.302 40.552,-4.999 55.957,-8.494 0.862,-0.196 1.506,0.751 1.021,1.49 -6.517,9.927 -11.135,20.671 -14.845,32.473 -0.226,0.718 0.41,1.427 1.148,1.286 37.242,-7.113 71.133,-17.769 101.198,-32.198 0.812,-0.39 1.741,0.169 1.802,1.068 1.811,26.704 11.933,45.274 25.79,60.195 0.514,0.553 1.383,0.58 1.937,0.069 l 19.456,-17.96 c 0.59,-0.545 0.645,-1.453 0.117,-2.057 -3.848,-4.4 -21.556,-24.496 -18.423,-39.775 0.373,-1.82 2.393,-2.793 4.086,-2.027 22.432,10.148 68.923,25.646 105.428,32.693 0.72,0.14 1.327,-0.555 1.107,-1.256 -3.712,-11.817 -8.333,-22.573 -14.857,-32.51 -0.485,-0.74 0.159,-1.687 1.021,-1.49 15.405,3.494 34.713,6.191 55.957,8.493 a 1.012,1.012 0 0 0 1.057,-1.349 c -3.33,-9.017 -6.979,-17.613 -11.025,-25.689 a 0.944,0.944 0 0 1 1.097,-1.342 c 18.892,5.178 40.816,8.86 64.377,11.856 0.855,0.109 1.447,-0.857 0.952,-1.564 -16.51,-23.594 -35.414,-45.286 -58.532,-64.13 a 0.99,0.99 0 0 1 -0.352,-0.918 0.978,0.978 0 0 1 0.62,-0.763 c 16.916,-6.595 31.452,-15.824 45.708,-26.412 a 0.994,0.994 0 0 0 0.399,-0.866 0.993,0.993 0 0 0 -0.508,-0.806 c -19.447,-10.829 -39.762,-19.672 -61.878,-26.516 -0.765,-0.237 -0.702,-1.325 0.086,-1.468 17.318,-3.134 34.015,-7.705 47.772,-14.774 a 0.996,0.996 0 0 0 0.304,-1.522 c -5.121,-6.163 -10.686,-11.855 -17.534,-17.002 a 0.987,0.987 0 0 1 -0.394,-0.921 0.99,0.99 0 0 1 0.61,-0.793 c 19.25,-7.858 35.832,-18.242 50.315,-31.06 0.403,-0.355 0.451,-0.977 0.106,-1.389 -5.565,-6.654 -12.053,-12.57 -19.42,-18.268 a 1.002,1.002 0 0 1 0.061,-1.632 355.476,355.476 0 0 0 55.258,-44.44 c 0.396,-0.39 0.4,-1.04 0,-1.427 a 79.463,79.463 0 0 0 -14.721,-11.33 0.958,0.958 0 0 1 -0.13,-1.568 c 13.318,-11.104 24.89,-25.331 34.917,-42.577 z"
     id="path2" />
  <path
     fill="#ffffff"
     d="m 305.69297,275.17272 a 0.59,0.59 0 0 1 0.276,0.493 c 0.133,7.407 0.316,14.233 0.557,20.87 0.01,0.25 0.213,0.448 0.465,0.45 l 5.28,0.023 h 0.004 a 0.464,0.464 0 0 0 0.343,-0.148 0.464,0.464 0 0 0 0.132,-0.35 c -0.193,-4.66 -0.374,-9.373 -0.535,-14.007 a 0.773,0.773 0 0 1 0.309,-0.644 c 25.033,-18.959 44.808,-41.09 54.254,-60.724 l -0.275,-0.148 c -11.61,19.423 -29.814,38.067 -54.107,55.415 -0.144,0.096 -0.385,0.018 -0.391,-0.195 -0.936,-29.732 -0.93,-54.243 0.02,-74.939 0.081,-2.79 0.153,-5.714 0.223,-8.942 a 0.95,0.95 0 0 1 0.488,-0.814 c 10.694,-6.006 20.467,-13.828 29.878,-23.913 l -0.218,-0.224 c -10.36,9.068 -20.058,15.768 -29.652,20.483 a 0.282,0.282 0 0 1 -0.172,0.023 0.283,0.283 0 0 1 -0.214,-0.172 0.291,0.291 0 0 1 -0.019,-0.109 c 0.643,-36.684 -0.215,-79.496 -1.995,-99.585003 l -0.312,0.015 c 0.18,21.662003 -0.068,43.326003 -0.742,64.978003 a 0.192,0.192 0 0 1 -0.196,0.184 c 0,0 -0.09,-0.01 -0.136,-0.06 -8.82,-9.316 -16.928,-19.703 -24.098,-30.871 l -0.27,0.156 c 5.935,11.412 13.798,22.951 24.039,35.278 0.32,0.385 0.488,0.873 0.47,1.374 a 1586.072,1586.072 0 0 1 -1.977,41.592 c -0.228,4.622 -0.43,9.51 -0.637,15.386 -0.007,0.2 -0.231,0.277 -0.363,0.186 -11.28,-8.01 -21.658,-19.014 -30.013,-31.823 l -0.27,0.159 c 7.41,13.917 17.438,25.76 29.81,35.199 0.435,0.332 0.684,0.853 0.668,1.395 a 1123.31,1123.31 0 0 0 -0.44,48.496 0.145,0.145 0 0 1 -0.04,0.101 0.159,0.159 0 0 1 -0.084,0.041 0.154,0.154 0 0 1 -0.092,-0.017 c -22.197,-13.549 -40.58,-31.11 -54.638,-52.197 l -0.265,0.163 c 12.635,22.358 32.659,43.287 54.935,57.422 z m -160.065,58.649 a 0.482,0.482 0 0 0 0.208,-0.046 l 3.608,-1.705 a 0.416,0.416 0 0 0 0.123,-0.662 532.813,532.813 0 0 0 -3.984,-4.109 1.571,1.571 0 0 1 -0.448,-1.08 c -0.245,-14.006 -4.919,-26.427 -13.892,-36.92 l -0.25,0.189 c 6.777,10.204 10.064,21.052 10.047,33.162 0,0.026 -0.026,0.034 -0.052,0.023 -8.587,-8.557 -17.948,-17.313 -27.823,-26.029 a 1.302,1.302 0 0 1 -0.433,-1.085 c 0.869,-10.327 -0.884,-20.079 -5.21,-28.988 l -0.288,0.12 c 3.019,8.655 3.759,17.349 2.264,26.574 l -0.152,0.055 c -10.923003,-10.052 -22.984003,-21.991 -36.867003,-36.496 l -0.233,0.209 c 11.673,13.914 25.459,28.594 42.148003,44.879 a 306.163,306.163 0 0 1 7.936,7.69 66.237,66.237 0 0 1 -4.926,0.181 c -11.465,10e-4 -23.065003,-2.866 -35.460003,-8.766 l -0.149,0.274 c 13.104,8.01 26.905003,11.904 42.193003,11.904 0.514,0 1.03,-0.005 1.564,-0.014 0.237,0 0.459,0.092 0.621,0.256 5.54,5.635 11.785,12.252 19.091,20.224 0.094,0.103 0.226,0.16 0.364,0.16 z m 361.57,-36.587 c 12.67,-12.81 24.676,-25.828 35.684,-38.688 l -0.23,-0.212 c -13.042,13.107 -26.329,26.066 -40.618,39.617 a 0.13,0.13 0 0 1 -0.09,0.035 c -0.054,0 -0.12,-0.034 -0.13,-0.108 -1.353,-9.102 -1.053,-19.035 0.869,-28.729 l -0.3,-0.084 c -3.407,9.407 -4.638,19.615 -3.763,31.21 0.033,0.436 -0.143,0.87 -0.468,1.162 -10.837,9.671 -21.06,19.458 -30.385,29.09 a 0.4,0.4 0 0 0 -0.036,0.52 0.417,0.417 0 0 0 0.143,0.121 l 3.674,1.893 a 0.565,0.565 0 0 0 0.678,-0.122 662.742,662.742 0 0 1 11.666,-12.453 1.803,1.803 0 0 1 1.276,-0.548 c 15.373,-0.182 28.572,-3.772 40.349,-10.974 l -0.145,-0.277 c -11.462,5.06 -21.715,7.417 -32.266,7.417 a 72.823,72.823 0 0 1 -4.554,-0.145 0.14,0.14 0 0 1 -0.071,-0.026 0.136,0.136 0 0 1 -0.045,-0.061 0.116,0.116 0 0 1 -0.008,-0.071 0.12,0.12 0 0 1 0.033,-0.064 703.034,703.034 0 0 1 18.737,-18.503 z m -184.262,257.999 c -10.867,0 -21.184,2.98 -26.183,10.325 -0.058,0.086 -0.163,0.116 -0.25,0.059 -3.275,-2.136 -14.055,-8.661 -26.614,-8.661 -6.758,0 -14.126,3.28 -21.566,7.49 a 0.467,0.467 0 0 1 -0.295,0.056 c -19.782,-2.915 -38.746,0.917 -57.301,8.128 19.386,-4.907 37.659,-8.037 52.19,-5.197 a 0.098,0.098 0 0 1 0.03,0.181 c -8.618,5.238 -17.157,10.969 -24.78,13.555 15.728,-1.823 36.244,-19.7 52.155,-19.7 10.607,0 21.29,6.615 24.108,8.493 0.09,0.06 0.12,0.164 0.088,0.268 -0.775,2.497 -1.08,5.342 -0.807,8.574 5.183,-14.344 15.696,-17.652 30.1,-17.652 11.077,0 22.173,3.944 35.126,6.892 a 0.754,0.754 0 0 1 0.33,0.166 c 7.914,6.886 22.452,13.771 29.39,14.934 l 2.978,0.5 -2.812,-1.1 c -5.94,-2.32 -16.466,-7.558 -21.75,-12.7 -0.065,-0.062 -0.006,-0.168 0.083,-0.153 5.393,0.911 11.128,1.515 17.317,1.515 23.054,0 33.432,-4.116 39.954,-6.796 -6.932,1.47 -13.53,3.572 -36.681,3.572 -21.1,0 -47.618,-12.749 -64.81,-12.749 z m -160.774,-191.497 c 3.895,-1.97 7.811,-3.9 11.746,-5.789 l -4.574,-8.83 a 635.14,635.14 0 0 0 -33.927,17.564 l 4.572,8.831 a 645.09,645.09 0 0 1 11.506,-6.249 l 0.699,-0.37 22.869,44.173 a 629.992,629.992 0 0 1 9.274,-4.801 l -22.869,-44.173 0.705,-0.357 z m 46.297,33.157 c 1.286,0 2.566,-0.22 3.804,-0.656 a 617.882,617.882 0 0 1 13.852,-4.699 c 2.91,-0.949 5.252,-2.95 6.597,-5.634 1.32,-2.638 1.52,-5.646 0.561,-8.473 l -11.896,-35.075 c -1.574,-4.644 -6.089,-7.886 -10.98,-7.886 a 11.17,11.17 0 0 0 -3.467,0.552 621.642,621.642 0 0 0 -13.818,4.686 c -5.893,2.074 -9.037,8.628 -7.007,14.609 l 11.896,35.075 a 11.036,11.036 0 0 0 10.458,7.501 z m -8.458,-49.055 c 2.132,-0.736 4.266,-1.46 6.406,-2.173 a 4.545,4.545 0 0 1 5.724,2.853 l 9.884,29.149 a 4.45,4.45 0 0 1 -0.228,3.426 4.471,4.471 0 0 1 -2.606,2.262 c -2.137,0.71 -4.266,1.433 -6.392,2.168 -0.473,0.163 -0.97,0.247 -1.47,0.247 h -0.002 a 4.475,4.475 0 0 1 -4.239,-3.038 l -9.884,-29.149 c -0.801,-2.358 0.458,-4.935 2.807,-5.745 z m 117.991,30.959 c 6.4,0 11.308,-4.86 11.308,-11.061 v -37.038 c 0.001,-6.315 -5.08,-11.512 -11.327,-11.585 a 611.712,611.712 0 0 0 -14.59,0 c -6.248,0.07 -11.329,5.268 -11.329,11.585 v 37.038 c 0,6.203 4.907,11.062 11.17,11.062 1.202,-0.007 6.767,-0.094 14.768,-10e-4 z m -15.2,-45.233 c -0.002,-2.49 2.02,-4.527 4.503,-4.54 a 635.82,635.82 0 0 1 6.766,0 c 2.482,0.015 4.502,2.052 4.502,4.54 v 30.78 a 4.488,4.488 0 0 1 -4.489,4.476 636.573,636.573 0 0 0 -6.77,0 c -2.498,0 -4.512,-2.008 -4.512,-4.476 z m -2.588,186.616 h 15.997 l 2.487,9.756 h 10.566 l -14.052,-51.913 h -13.999 l -14.052,51.913 h 10.567 z m 7.999,-31.387 5.512,21.63 h -11.025 z m 27.292,-52.358 v -16.234 c 0,-5.666 -4.595,-10.246 -10.261,-10.246 h -22.418 v 51.912 h 10.176 v -15.171 h 12.242 c 5.666,0 10.26,-4.594 10.26,-10.26 z m -10.165,-2.65 a 3.153,3.153 0 0 1 -3.153,3.154 h -9.185 v -17.228 h 9.185 a 3.153,3.153 0 0 1 3.153,3.154 z m -127.003,44.239 v 51.912 h 30.387 v -9.757 h -20.109 v -42.155 z m 38.715,-68.069 h -8.088 l -11.27,26.02 -11.268,-26.02 h -8.09 v 51.912 h 10.177 v -23.952 l 9.181,20.781 9.182,-20.78 v 23.95 h 10.176 z m 20.925,-26.32 -2.853,-17.672 0.764,-0.133 c 1.445,-0.25 2.892,-0.495 4.342,-0.734 l 0.482,-0.08 0.283,0.398 a 7373.529,7373.529 0 0 1 11.285,15.908 c 3.382,-0.505 6.788,-0.983 10.149,-1.426 a 6652.145,6652.145 0 0 0 -11.111,-15.793 l -0.56,-0.793 0.892,-0.379 a 11.037,11.037 0 0 0 6.606,-11.925 l -3.053,-18.91 c -0.898,-5.549 -5.78,-9.735 -11.358,-9.735 -0.557,0 -1.12,0.043 -1.674,0.127 a 594.833,594.833 0 0 0 -23.981,4.108 l 9.515,58.922 a 605.733,605.733 0 0 1 10.272,-1.883 z m -7.166,-49.237 a 596.593,596.593 0 0 1 9.393,-1.548 c 2.458,-0.386 4.777,1.357 5.166,3.759 l 2.054,12.721 a 4.447,4.447 0 0 1 -0.794,3.34 4.471,4.471 0 0 1 -2.943,1.796 c -3.127,0.489 -6.25,1.004 -9.369,1.543 l -0.78,0.134 -3.49,-21.613 z m 28.381,127.469 h 10.461 l -12.784,-51.912 h -13.86 l -12.784,51.912 h 10.461 l 2.195,-9.756 h 14.116 z m -14.118,-19.512 4.865,-21.63 4.865,21.63 z m 109.118,45.425 v -9.757 h -32.557 v 51.913 h 10.279 v -21.079 h 15.88 v -9.755 h -15.88 v -11.322 z m -24.411,-166.71 -9.96,58.848 c 3.42,0.473 6.888,0.982 10.33,1.517 l 5.719,-33.805 0.999,2.915 a 5886.954,5886.954 0 0 1 11.542,34.014 616.91,616.91 0 0 1 8.134,1.573 l 9.958,-58.847 a 615.279,615.279 0 0 0 -10.252,-1.965 l -5.723,33.82 -0.994,-2.953 a 5783.96,5783.96 0 0 0 -11.541,-33.924 631.551,631.551 0 0 0 -8.212,-1.193 z m 48.284,208.866 h 14.611 c 5.723,0 10.363,-4.593 10.363,-10.26 v -7.432 c 0,-3.851 -1.493,-7.378 -4.956,-9.133 0,0 -18.187,-8.092 -18.434,-8.226 -0.867,-0.467 -1.707,-1.624 -1.707,-2.798 v -1.146 c 0,-1.746 1.43,-3.161 3.193,-3.161 h 8.436 c 1.761,0 3.189,1.413 3.189,3.156 v 2.168 h 10.279 v -4.821 c 0,-5.666 -4.64,-10.26 -10.363,-10.26 h -14.611 c -5.724,0 -10.363,4.594 -10.363,10.26 v 5.349 c 0,3.85 1.493,7.378 4.956,9.132 0,0 18.187,8.093 18.434,8.227 0.866,0.467 1.707,1.624 1.707,2.798 v 3.23 c 0,1.745 -1.43,3.16 -3.193,3.16 h -8.437 c -1.76,0 -3.188,-1.413 -3.188,-3.156 v -2.2 h -10.28 v 4.854 c 0,5.666 4.64,10.259 10.364,10.259 z m 24.973,-77.826 h -19.8 v -11.32 h 13.466 v -9.756 h -13.467 v -11.322 h 19.8 v -9.756 h -29.976 v 51.912 h 29.976 z m -43.149,0 h -18.78 v -42.155 h -10.177 v 51.912 h 28.957 z m 26.514,-56.832 15.847,-47.15 0.748,0.26 a 634.035,634.035 0 0 1 12.327,4.415 l 3.168,-9.426 a 635.746,635.746 0 0 0 -36.217,-12.172 l -3.167,9.427 a 633.876,633.876 0 0 1 12.49,3.925 l 0.753,0.244 -15.847,47.15 a 638.555,638.555 0 0 1 9.898,3.327 z m -131.612,92.502 v -9.757 h -32.558 v 51.913 h 32.558 v -9.757 h -22.279 v -11.322 h 15.88 v -9.755 h -15.88 v -11.322 z m 200.546,-126.872 a 612.862,612.862 0 0 0 -12.966,-6.697 11.114,11.114 0 0 0 -5.034,-1.191 c -4.313,0 -8.374,2.466 -10.346,6.283 l -17.001,32.905 c -1.37,2.653 -1.623,5.658 -0.712,8.464 0.929,2.855 2.946,5.183 5.681,6.556 a 610.925,610.925 0 0 1 12.994,6.714 11.417,11.417 0 0 0 5.333,1.342 c 4.136,0 7.887,-2.291 9.793,-5.979 l 17.002,-32.904 c 2.9,-5.61 0.772,-12.56 -4.744,-15.493 z m -6.112,13.11 -14.129,27.346 a 4.466,4.466 0 0 1 -3.975,2.42 c -0.72,0 -1.441,-0.177 -2.086,-0.514 a 629.338,629.338 0 0 0 -5.997,-3.099 4.481,4.481 0 0 1 -2.236,-2.617 4.477,4.477 0 0 1 0.284,-3.43 l 14.128,-27.345 a 4.53,4.53 0 0 1 6.085,-1.967 620.296,620.296 0 0 1 6.01,3.106 c 2.2,1.153 3.059,3.89 1.916,6.1 z"
     id="path3" />
</svg>
